<svg width="32" height="32" viewBox="0 0 32 32" fill="none" xmlns="http://www.w3.org/2000/svg">
<g clip-path="url(#clip0_7427_38560)">
<path d="M22.1495 22.6668H11.1948C10.1668 22.6668 9.3335 21.7548 9.3335 20.6668C9.3335 19.5668 10.1668 18.6668 11.1948 18.6668H22.1495C23.1668 18.6668 24.0002 19.5668 24.0002 20.6668C24.0002 21.7548 23.1668 22.6668 22.1495 22.6668ZM11.2402 9.3335H16.7602C17.8135 9.3335 18.6668 10.2308 18.6668 11.3282C18.6668 12.4255 17.8135 13.3335 16.7602 13.3335H11.2402C10.1868 13.3335 9.3335 12.4255 9.3335 11.3282C9.3335 10.2308 10.1868 9.3335 11.2402 9.3335ZM31.2175 12.6828C30.5708 12.4175 27.7935 12.7122 27.0228 12.0455C26.4775 11.5655 26.4428 10.6962 26.2308 9.53616C25.8748 7.59483 25.7268 7.15483 25.3562 6.3895C24.0095 3.66683 20.7828 1.3335 17.8495 1.3335H11.0508C5.70416 1.3335 1.3335 5.5095 1.3335 10.6042V21.4148C1.3335 26.5015 5.70283 30.6668 11.0508 30.6668H22.2202C27.5668 30.6668 31.9082 26.5015 31.9388 21.4148L32.0002 13.9282C32.0002 13.9282 32.0002 13.0015 31.2175 12.6828Z" fill="#FF6500"/>
</g>
<defs>
<clipPath id="clip0_7427_38560">
<rect width="32" height="32" fill="white"/>
</clipPath>
</defs>
</svg>
