<svg width="32" height="32" viewBox="0 0 32 32" fill="none" xmlns="http://www.w3.org/2000/svg">
<g clip-path="url(#clip0_7427_38547)">
<path d="M0 16C0 20.2435 1.68571 24.3131 4.68629 27.3137C7.68687 30.3143 11.7565 32 16 32C20.2435 32 24.3131 30.3143 27.3137 27.3137C30.3143 24.3131 32 20.2435 32 16C32 11.7565 30.3143 7.68687 27.3137 4.68629C24.3131 1.68571 20.2435 0 16 0C11.7565 0 7.68687 1.68571 4.68629 4.68629C1.68571 7.68687 0 11.7565 0 16Z" fill="#FFC41A"/>
<path d="M7.7065 22.2215C7.7065 22.2215 5.3665 23.9015 7.7065 25.5215C9.9865 25.7908 13.4945 25.5508 13.4945 25.5508V27.9802H14.9652V25.6415H18.3838V27.9802H20.0638V25.7002C20.0638 25.7002 25.4025 26.3615 26.5425 21.1415C26.6292 17.9135 24.5625 16.6815 24.5625 16.6815C24.5625 16.6815 27.3225 14.5442 26.2425 11.2442C25.1625 7.9455 22.3425 7.5855 20.0025 7.7055L19.9732 5.3335H18.4132V7.7055H15.1158V5.3335H13.4665V7.7055L7.97717 7.7655C7.97717 7.7655 5.30784 8.99483 7.73717 11.1842L7.7065 22.2215Z" fill="white"/>
<path d="M20.3332 10.8892C20.6868 10.8892 21.0259 11.0296 21.276 11.2797C21.526 11.5297 21.6665 11.8689 21.6665 12.2225V19.5558C21.6665 19.9094 21.526 20.2486 21.276 20.4986C21.0259 20.7487 20.6868 20.8892 20.3332 20.8892H13.3265C12.2198 22.9838 11.6665 23.3732 11.6665 22.0585V12.2225C11.6665 11.8689 11.807 11.5297 12.057 11.2797C12.3071 11.0296 12.6462 10.8892 12.9998 10.8892H20.3332ZM15.2772 15.3332C15.1677 15.3331 15.0593 15.3547 14.9582 15.3965C14.8571 15.4384 14.7652 15.4998 14.6878 15.5772C14.6104 15.6546 14.549 15.7464 14.5071 15.8476C14.4652 15.9487 14.4437 16.057 14.4437 16.1665C14.4437 16.2759 14.4652 16.3843 14.5071 16.4854C14.549 16.5865 14.6104 16.6784 14.6878 16.7558C14.7652 16.8332 14.8571 16.8946 14.9582 16.9364C15.0593 16.9783 15.1677 16.9998 15.2772 16.9998C15.4982 16.9998 15.7101 16.912 15.8663 16.7557C16.0226 16.5994 16.1103 16.3875 16.1103 16.1665C16.1103 15.9455 16.0226 15.7336 15.8663 15.5773C15.7101 15.421 15.4982 15.3332 15.2772 15.3332ZM18.6105 15.3332C18.5011 15.3331 18.3927 15.3547 18.2916 15.3965C18.1904 15.4384 18.0985 15.4998 18.0211 15.5772C17.9437 15.6546 17.8823 15.7464 17.8405 15.8476C17.7986 15.9487 17.777 16.057 17.777 16.1665C17.777 16.2759 17.7986 16.3843 17.8405 16.4854C17.8823 16.5865 17.9437 16.6784 18.0211 16.7558C18.0985 16.8332 18.1904 16.8946 18.2916 16.9364C18.3927 16.9783 18.5011 16.9998 18.6105 16.9998C18.8315 16.9998 19.0434 16.912 19.1997 16.7557C19.3559 16.5994 19.4437 16.3875 19.4437 16.1665C19.4437 15.9455 19.3559 15.7336 19.1997 15.5773C19.0434 15.421 18.8315 15.3332 18.6105 15.3332Z" fill="#FFC41A"/>
</g>
<defs>
<clipPath id="clip0_7427_38547">
<rect width="32" height="32" fill="white"/>
</clipPath>
</defs>
</svg>
