<svg width="32" height="32" viewBox="0 0 32 32" fill="none" xmlns="http://www.w3.org/2000/svg">
<path d="M16.0317 0H15.9588C7.14501 0 0 7.14713 0 15.9636V16.0364C0 24.8529 7.14501 32 15.9588 32H16.0317C24.8455 32 31.9906 24.8529 31.9906 16.0364V15.9636C31.9906 7.14713 24.8455 0 16.0317 0Z" fill="#5865F2"/>
<path d="M24.0003 8.65367C22.5276 7.97764 20.9495 7.47986 19.2986 7.1951C19.2684 7.18949 19.2381 7.20295 19.2235 7.23097C19.0206 7.59197 18.7954 8.06396 18.6385 8.43393C16.8631 8.16823 15.0968 8.16823 13.3573 8.43393C13.1993 8.05499 12.9662 7.59197 12.7622 7.23097C12.7465 7.20407 12.7163 7.19061 12.6871 7.1951C11.0373 7.47986 9.45813 7.97764 7.98542 8.65367C7.97309 8.65928 7.96188 8.66824 7.95404 8.68058C4.9593 13.1561 4.13886 17.5217 4.54122 21.8335C4.54346 21.8548 4.55467 21.875 4.57149 21.8873C6.54743 23.3392 8.46176 24.2204 10.3402 24.8045C10.3705 24.8134 10.4018 24.8022 10.4209 24.7776C10.8647 24.171 11.2615 23.5309 11.6011 22.8571C11.6213 22.8178 11.6011 22.7708 11.5607 22.7551C10.932 22.5163 10.3346 22.2259 9.75848 21.8963C9.71253 21.8694 9.70919 21.8044 9.75066 21.773C9.8717 21.6822 9.99274 21.588 10.1082 21.4927C10.1295 21.4747 10.1586 21.4714 10.1833 21.4826C13.9637 23.2091 18.0568 23.2091 21.7924 21.4826C21.817 21.4703 21.8462 21.4747 21.8675 21.4916C21.9829 21.5869 22.1039 21.6822 22.2261 21.773C22.2676 21.8044 22.2653 21.8694 22.2194 21.8963C21.6444 22.2326 21.0459 22.5174 20.416 22.7551C20.3746 22.7708 20.3566 22.8178 20.3768 22.8582C20.7242 23.5298 21.1199 24.1699 21.5559 24.7776C21.5738 24.8033 21.6063 24.8145 21.6366 24.8056C23.524 24.2215 25.4383 23.3403 27.4142 21.8884C27.431 21.8761 27.4422 21.8559 27.4445 21.8357C27.9264 16.8513 26.6375 12.5215 24.0295 8.68282C24.0227 8.67049 24.0126 8.6604 23.9992 8.65479L24.0003 8.65367ZM12.1637 19.2079C11.025 19.2079 10.088 18.163 10.088 16.8793C10.088 15.5956 11.0082 14.5507 12.1637 14.5507C13.3192 14.5507 14.2584 15.6057 14.2394 16.8793C14.2394 18.163 13.3192 19.2079 12.1637 19.2079ZM19.8399 19.2079C18.7012 19.2079 17.7643 18.163 17.7643 16.8793C17.7643 15.5956 18.6844 14.5507 19.8399 14.5507C20.9955 14.5507 21.9347 15.6057 21.9156 16.8793C21.9156 18.163 21.0056 19.2079 19.8399 19.2079Z" fill="white"/>
</svg>
