<svg width="32" height="32" viewBox="0 0 32 32" fill="none" xmlns="http://www.w3.org/2000/svg">
<g clip-path="url(#clip0_7427_38551)">
<path d="M0.0366211 16C0.0366211 20.2435 1.72233 24.3131 4.72291 27.3137C7.72349 30.3143 11.7932 32 16.0366 32C20.2801 32 24.3497 30.3143 27.3503 27.3137C30.3509 24.3131 32.0366 20.2435 32.0366 16C32.0366 11.7565 30.3509 7.68687 27.3503 4.68629C24.3497 1.68571 20.2801 0 16.0366 0C11.7932 0 7.72349 1.68571 4.72291 4.68629C1.72233 7.68687 0.0366211 11.7565 0.0366211 16Z" fill="#3F80F7"/>
<path d="M24.0366 8H8.03662C6.93662 8 6.03662 8.9 6.03662 10V22C6.03662 23.1 6.93662 24 8.03662 24H24.0366C25.1366 24 26.0366 23.1 26.0366 22V10C26.0366 8.9 25.1366 8 24.0366 8ZM24.0366 12L16.0366 17L8.03662 12V10L16.0366 15L24.0366 10V12Z" fill="white"/>
</g>
<defs>
<clipPath id="clip0_7427_38551">
<rect width="32" height="32" fill="white"/>
</clipPath>
</defs>
</svg>
