<svg width="32" height="32" viewBox="0 0 32 32" fill="none" xmlns="http://www.w3.org/2000/svg">
<rect width="32" height="32" rx="4.3" fill="url(#paint0_radial_7427_38525)"/>
<rect width="32" height="32" rx="4.3" fill="url(#paint1_radial_7427_38525)"/>
<path d="M23.9974 9.71561C23.9974 10.6624 23.2299 11.4299 22.2831 11.4299C21.3364 11.4299 20.5688 10.6624 20.5688 9.71561C20.5688 8.76884 21.3364 8.00133 22.2831 8.00133C23.2299 8.00133 23.9974 8.76884 23.9974 9.71561Z" fill="white"/>
<path fill-rule="evenodd" clip-rule="evenodd" d="M15.9974 21.7156C19.1533 21.7156 21.7117 19.1572 21.7117 16.0013C21.7117 12.8454 19.1533 10.287 15.9974 10.287C12.8415 10.287 10.2831 12.8454 10.2831 16.0013C10.2831 19.1572 12.8415 21.7156 15.9974 21.7156ZM15.9974 19.4299C17.891 19.4299 19.426 17.8949 19.426 16.0013C19.426 14.1078 17.891 12.5728 15.9974 12.5728C14.1039 12.5728 12.5688 14.1078 12.5688 16.0013C12.5688 17.8949 14.1039 19.4299 15.9974 19.4299Z" fill="white"/>
<path fill-rule="evenodd" clip-rule="evenodd" d="M4.56885 15.5442C4.56885 11.7038 4.56885 9.78364 5.31623 8.31682C5.97365 7.02656 7.02266 5.97756 8.31291 5.32014C9.77974 4.57275 11.6999 4.57275 15.5403 4.57275H16.4546C20.2949 4.57275 22.2151 4.57275 23.6819 5.32014C24.9722 5.97756 26.0212 7.02656 26.6786 8.31682C27.426 9.78364 27.426 11.7038 27.426 15.5442V16.4585C27.426 20.2988 27.426 22.219 26.6786 23.6858C26.0212 24.9761 24.9722 26.0251 23.6819 26.6825C22.2151 27.4299 20.2949 27.4299 16.4546 27.4299H15.5403C11.6999 27.4299 9.77974 27.4299 8.31291 26.6825C7.02266 26.0251 5.97365 24.9761 5.31623 23.6858C4.56885 22.219 4.56885 20.2988 4.56885 16.4585V15.5442ZM15.5403 6.85847H16.4546C18.4125 6.85847 19.7434 6.86025 20.7722 6.9443C21.7743 7.02617 22.2867 7.17458 22.6442 7.35672C23.5044 7.795 24.2037 8.49434 24.642 9.35451C24.8242 9.712 24.9726 10.2245 25.0544 11.2266C25.1385 12.2553 25.1403 13.5863 25.1403 15.5442V16.4585C25.1403 18.4164 25.1385 19.7473 25.0544 20.7761C24.9726 21.7782 24.8242 22.2907 24.642 22.6481C24.2037 23.5083 23.5044 24.2076 22.6442 24.6459C22.2867 24.8281 21.7743 24.9765 20.7722 25.0583C19.7434 25.1424 18.4125 25.1442 16.4546 25.1442H15.5403C13.5824 25.1442 12.2514 25.1424 11.2226 25.0583C10.2206 24.9765 9.70809 24.8281 9.35061 24.6459C8.49044 24.2076 7.7911 23.5083 7.35282 22.6481C7.17067 22.2907 7.02227 21.7782 6.94039 20.7761C6.85634 19.7473 6.85456 18.4164 6.85456 16.4585V15.5442C6.85456 13.5863 6.85634 12.2553 6.94039 11.2266C7.02227 10.2245 7.17067 9.712 7.35282 9.35451C7.7911 8.49434 8.49044 7.795 9.35061 7.35672C9.70809 7.17458 10.2206 7.02617 11.2226 6.9443C12.2514 6.86025 13.5824 6.85847 15.5403 6.85847Z" fill="white"/>
<defs>
<radialGradient id="paint0_radial_7427_38525" cx="0" cy="0" r="1" gradientUnits="userSpaceOnUse" gradientTransform="translate(8.50004 34.4647) rotate(-90) scale(31.7144 29.4969)">
<stop stop-color="#FFDD55"/>
<stop offset="0.1" stop-color="#FFDD55"/>
<stop offset="0.5" stop-color="#FF543E"/>
<stop offset="1" stop-color="#C837AB"/>
</radialGradient>
<radialGradient id="paint1_radial_7427_38525" cx="0" cy="0" r="1" gradientTransform="matrix(2.78252 13.9007 -57.298 11.4759 -5.36017 2.30523)" gradientUnits="userSpaceOnUse">
<stop stop-color="#3771C8"/>
<stop offset="0.128" stop-color="#3771C8"/>
<stop offset="1" stop-color="#6600FF" stop-opacity="0"/>
</radialGradient>
</defs>
</svg>
