<svg width="32" height="32" viewBox="0 0 32 32" fill="none" xmlns="http://www.w3.org/2000/svg">
<path d="M16.0317 0H15.9589C7.14504 0 0 7.14713 0 15.9636V16.0364C0 24.8529 7.14504 32 15.9589 32H16.0317C24.8456 32 31.9906 24.8529 31.9906 16.0364V15.9636C31.9906 7.14713 24.8456 0 16.0317 0Z" fill="#007EBB"/>
<path d="M7.62904 10.6371C7.20762 10.2458 6.99805 9.76152 6.99805 9.18526C6.99805 8.60901 7.20874 8.10339 7.62904 7.711C8.05045 7.31973 8.59291 7.12354 9.25754 7.12354C9.92217 7.12354 10.4433 7.31973 10.8636 7.711C11.285 8.10227 11.4946 8.59444 11.4946 9.18526C11.4946 9.77609 11.2839 10.2458 10.8636 10.6371C10.4422 11.0284 9.9076 11.2246 9.25754 11.2246C8.60748 11.2246 8.05045 11.0284 7.62904 10.6371ZM11.1405 12.8816V24.8775H7.35108V12.8816H11.1405Z" fill="#FEFFFC"/>
<path d="M23.7548 14.0665C24.5809 14.9634 24.9933 16.1944 24.9933 17.7617V24.6656H21.3945V18.2483C21.3945 17.4579 21.1894 16.8435 20.7803 16.4063C20.3712 15.9691 19.8198 15.7493 19.1294 15.7493C18.439 15.7493 17.8875 15.9679 17.4784 16.4063C17.0694 16.8435 16.8643 17.4579 16.8643 18.2483V24.6656H13.2441V12.8479H16.8643V14.4152C17.2308 13.8928 17.725 13.4802 18.346 13.1764C18.9669 12.8725 19.6651 12.7212 20.4418 12.7212C21.8249 12.7212 22.9299 13.1696 23.7548 14.0665Z" fill="#FEFFFC"/>
</svg>
