<svg width="32" height="32" viewBox="0 0 32 32" fill="none" xmlns="http://www.w3.org/2000/svg">
<path d="M32 0V32H0V0H32Z" fill="white" fill-opacity="0.01"/>
<path d="M15.7059 10.8677C17.4462 10.9058 18.8627 10.982 20.2283 11.4139C20.4252 11.4774 20.6157 11.5537 20.7935 11.6553C21.0921 11.8268 21.0984 11.9729 20.8063 12.1444C20.4124 12.3667 20.0059 12.589 19.5867 12.7668C16.7476 13.9609 13.9973 13.7069 11.3233 12.2396C11.2343 12.1888 11.1454 12.1316 11.0692 12.0681C10.9358 11.9538 10.9358 11.8141 11.0819 11.7315C11.2979 11.6108 11.5265 11.4774 11.7615 11.4266C12.4602 11.2678 13.1652 11.1154 13.8766 11.0201C14.588 10.9248 15.3121 10.8994 15.7059 10.8677Z" fill="#F9AE0A"/>
<path d="M16.7344 8.12454C16.7471 7.52748 16.8869 6.96854 17.268 6.49217C17.8396 5.78714 18.678 5.8189 19.2052 6.54933C19.8404 7.43221 19.7832 8.89943 19.0782 9.72515C18.5383 10.3603 17.7444 10.3476 17.2299 9.69339C16.8615 9.24242 16.7344 8.70253 16.7344 8.12454ZM19.0782 8.07372C19.0591 8.04196 19.0337 7.9721 18.9893 7.92763C18.5701 7.52748 17.3823 7.74979 17.1219 8.28333C17.0838 8.35319 17.1346 8.46752 17.1409 8.5628C17.2235 8.55009 17.3315 8.56915 17.376 8.52469C17.7825 8.16265 18.2144 8.10548 18.7034 8.34684C18.9004 8.44212 19.0845 8.30873 19.0782 8.07372ZM15.2672 8.08643C15.2672 8.69618 15.1402 9.22337 14.7908 9.68068C14.2764 10.3667 13.438 10.373 12.8981 9.70609C12.2184 8.86768 12.1676 7.43856 12.7837 6.56204C13.2982 5.8316 14.1493 5.79349 14.7146 6.48582C15.1084 6.96219 15.2609 7.52748 15.2672 8.08643ZM13.6031 8.20711C13.6285 8.34049 13.6349 8.44212 13.6666 8.54374C13.7555 8.83592 13.9143 9.06458 14.251 9.08363C14.5304 9.10269 14.7908 8.88038 14.8353 8.52469C14.8671 8.27697 14.8417 7.99115 14.7337 7.7752C14.6575 7.61641 14.4098 7.45126 14.2383 7.45126C14.0668 7.45126 13.8699 7.63546 13.7428 7.7879C13.6476 7.89588 13.6412 8.08007 13.6031 8.20711Z" fill="white"/>
<path d="M19.0786 8.07363C19.0786 8.30864 18.8944 8.44203 18.7039 8.34675C18.2148 8.10539 17.7829 8.16255 17.3764 8.5246C17.3256 8.56906 17.2176 8.55 17.1414 8.56271C17.135 8.46743 17.0906 8.3531 17.1223 8.28323C17.3827 7.7497 18.5705 7.52739 18.9897 7.92754C19.0405 7.972 19.0596 8.04187 19.0786 8.07363ZM13.6035 8.20702C13.6416 8.07998 13.648 7.89579 13.7433 7.78781C13.8766 7.63537 14.0672 7.45752 14.2387 7.45117C14.4102 7.45117 14.6579 7.61631 14.7341 7.7751C14.8421 7.99106 14.8611 8.27688 14.8357 8.5246C14.7913 8.88029 14.5309 9.10259 14.2514 9.08354C13.9147 9.06448 13.756 8.83583 13.667 8.54365C13.6353 8.44838 13.6289 8.3404 13.6035 8.20702Z" fill="black"/>
<path d="M22.3369 17.5244C20.5457 17.842 18.1956 18.1532 15.8074 18.1532C15.3247 18.1532 14.8483 18.1405 14.3783 18.1151V21.7229C14.3783 21.7229 13.6986 21.7927 12.676 21.7927C11.6534 21.7927 10.8341 21.5895 10.8341 21.5895V17.7213C10.4276 17.6515 10.0401 17.5816 9.67807 17.5054C9.66537 17.5562 9.65266 17.607 9.64631 17.6578C9.46212 19.1822 9.43036 20.7002 9.63996 22.2246C10.1227 25.7815 12.4855 27.9856 15.8963 28.0681C18.907 28.138 21.1936 26.4675 22.0764 23.5077C22.6608 21.5387 22.5782 19.5315 22.3369 17.5244Z" fill="white"/>
<path d="M23.563 27.6239C23.093 27.4143 22.299 27.1285 21.956 27.0015C20.5777 28.2337 18.9517 28.8371 17.1605 29.0022C17.9672 29.0594 19.2121 29.1356 20.4126 29.1356C22.4006 29.1356 24.0521 29.0657 24.3252 28.7228C24.5919 28.3798 24.1791 27.897 23.563 27.6239ZM12.4857 28.4687C11.5521 28.0876 10.739 27.6112 10.0531 27.0396C9.67197 27.1793 8.97329 27.4334 8.54138 27.6303C7.92528 27.9034 7.51242 28.3861 7.78554 28.7291C8.05866 29.0721 9.71008 29.142 11.6981 29.142C12.8478 29.142 14.0355 29.0721 14.8422 29.0149C14.0419 28.9387 13.2543 28.7799 12.4857 28.4687Z" fill="#F9AE0A"/>
<path d="M27.145 22.9487C26.9799 21.888 26.8528 20.8082 26.5226 19.7983C26.1986 18.8074 25.8302 17.8293 25.4618 16.8511C25.303 16.8956 24.0899 17.2132 22.3368 17.5244C22.4575 18.528 22.5401 19.5315 22.5147 20.5351C22.502 21.5704 22.3813 22.5994 22.0701 23.6156C21.1872 26.4993 18.9006 28.1253 15.8899 28.0554C12.4791 27.9792 10.1163 25.826 9.63358 22.3644C9.5256 21.5958 9.48749 20.8273 9.49385 20.0587C9.49385 19.2584 9.54466 18.4518 9.63993 17.6514C9.64628 17.6006 9.65899 17.5498 9.67169 17.499C7.77891 17.1179 6.54034 16.7114 6.53399 16.7114C6.02586 17.9944 5.54313 19.2902 5.22555 20.6431C4.96514 21.7482 4.71107 22.8534 4.88257 23.9967C4.90797 24.1619 4.99689 24.4096 5.11122 24.4413C5.23826 24.4794 5.46691 24.3524 5.56854 24.2317C5.96869 23.7808 6.34979 23.3044 6.71819 22.828C6.9532 22.5231 7.15645 22.1992 7.40416 21.8308C7.42322 21.9388 7.43592 21.9833 7.44227 22.0214C7.84242 25.1718 9.57642 27.2869 12.4855 28.4683C13.724 28.9764 15.0261 29.0844 16.3536 29.0463C18.5957 28.9891 20.5965 28.3476 22.2289 26.747C23.0927 25.9022 23.7787 24.9431 24.1597 23.7935C24.363 23.1837 24.471 22.5359 24.6298 21.907C24.9855 22.4088 25.3348 22.9297 25.7159 23.4251C25.9763 23.7554 26.2621 24.0666 26.5797 24.3524C26.8401 24.5874 27.0243 24.5176 27.0751 24.1682C27.1387 23.7681 27.2085 23.3425 27.145 22.9487ZM7.58836 14.031L7.69634 13.7579C7.69634 13.7579 11.9202 14.9901 15.6676 14.9266C19.7581 14.8567 24.255 13.7579 24.255 13.7579L24.941 15.4919C24.7886 15.0981 24.6425 14.6979 24.4964 14.3041C24.3948 14.0247 24.3312 13.7071 24.3376 13.4086C24.3694 11.7 24.1915 10.0295 23.6453 8.40348C22.4512 4.84657 20.0058 2.85851 16.4552 2.68067C13.1016 2.50917 10.5609 3.89383 8.99207 6.91085C7.91864 8.97513 7.62012 11.2045 7.67093 13.4975C7.67093 13.6753 7.63282 13.8532 7.58836 14.031ZM17.2682 6.49799C17.8399 5.79296 18.6783 5.82472 19.2055 6.55516C19.8406 7.43803 19.7835 8.90526 19.0784 9.73097C18.5386 10.3661 17.7446 10.3534 17.2301 9.69921C16.8681 9.2419 16.7411 8.70201 16.7411 8.12401C16.7411 7.52696 16.8871 6.96801 17.2682 6.49799ZM12.784 6.56151C13.2985 5.83107 14.1496 5.79296 14.7149 6.48529C15.1087 6.96166 15.2548 7.53331 15.2611 8.09225C15.2611 8.70201 15.1341 9.22919 14.7847 9.68651C14.2703 10.3725 13.4319 10.3788 12.892 9.71192C12.2187 8.86715 12.1679 7.43803 12.784 6.56151ZM11.0881 11.7317C11.3041 11.6111 11.5327 11.4777 11.7677 11.4269C12.4664 11.2681 13.1714 11.1156 13.8828 11.0204C14.5942 10.9251 15.3119 10.906 15.7121 10.8743C17.4524 10.9124 18.8688 10.9886 20.2344 11.4205C20.4313 11.484 20.6219 11.5602 20.7997 11.6619C21.0983 11.8334 21.1046 11.9794 20.8124 12.1509C20.4186 12.3732 20.0121 12.5956 19.5929 12.7734C16.7538 13.9675 14.0035 13.7134 11.3295 12.2462C11.2405 12.1954 11.1516 12.1382 11.0754 12.0747C10.9357 11.954 10.9357 11.8143 11.0881 11.7317Z" fill="black"/>
<path d="M25.4811 16.8447L24.2552 13.7578C24.2552 13.7578 19.7583 14.8566 15.6678 14.9265C11.9204 14.99 7.69652 13.7578 7.69652 13.7578L6.54053 16.7113C6.54053 16.7113 8.29993 17.2893 10.8342 17.7149V21.583C10.8342 21.583 11.6536 21.7863 12.6762 21.7863C13.6988 21.7863 14.3784 21.7164 14.3784 21.7164V18.1087C14.8485 18.1341 15.3248 18.1468 15.8076 18.1468C20.711 18.1531 25.4811 16.8447 25.4811 16.8447Z" fill="#E81F1E"/>
</svg>
