<svg width="32" height="32" viewBox="0 0 32 32" fill="none" xmlns="http://www.w3.org/2000/svg">
<g clip-path="url(#clip0_7427_38528)">
<path d="M16 0C7.16375 0 0 7.16375 0 16C0 20.4188 1.79125 24.4187 4.68625 27.3137L1.63875 30.3612C1.03375 30.9662 1.4625 32 2.3175 32H16C24.8363 32 32 24.8363 32 16C32 7.16375 24.8363 0 16 0Z" fill="#FF4500"/>
<path d="M19.2554 7.54025C19.5329 8.7165 20.5891 9.59275 21.8504 9.59275C23.3229 9.59275 24.5166 8.399 24.5166 6.9265C24.5166 5.454 23.3229 4.26025 21.8504 4.26025C20.5629 4.26025 19.4891 5.17275 19.2391 6.3865C17.0829 6.61775 15.3991 8.4465 15.3991 10.6628C15.3991 10.6678 15.3991 10.6715 15.3991 10.6765C13.0541 10.7753 10.9129 11.4428 9.21287 12.4965C8.58162 12.0078 7.78912 11.7165 6.92912 11.7165C4.86537 11.7165 3.19287 13.389 3.19287 15.4528C3.19287 16.9503 4.07287 18.2403 5.34412 18.8365C5.46787 23.174 10.1941 26.6628 16.0079 26.6628C21.8216 26.6628 26.5541 23.1703 26.6716 18.829C27.9329 18.229 28.8054 16.9428 28.8054 15.454C28.8054 13.3903 27.1329 11.7178 25.0691 11.7178C24.2129 11.7178 23.4241 12.0065 22.7941 12.4915C21.0791 11.4303 18.9141 10.7628 16.5454 10.674C16.5454 10.6703 16.5454 10.6678 16.5454 10.664C16.5454 9.0765 17.7254 7.759 19.2554 7.54275V7.54025ZM9.06287 17.824C9.12537 16.469 10.0254 15.429 11.0716 15.429C12.1179 15.429 12.9179 16.5278 12.8554 17.8828C12.7929 19.2378 12.0116 19.7303 10.9641 19.7303C9.91662 19.7303 9.00037 19.179 9.06287 17.824ZM20.9454 15.429C21.9929 15.429 22.8929 16.469 22.9541 17.824C23.0166 19.179 22.0991 19.7303 21.0529 19.7303C20.0066 19.7303 19.2241 19.239 19.1616 17.8828C19.0991 16.5278 19.8979 15.429 20.9454 15.429ZM19.7004 20.959C19.8966 20.979 20.0216 21.1828 19.9454 21.3653C19.3016 22.904 17.7816 23.9853 16.0079 23.9853C14.2341 23.9853 12.7154 22.904 12.0704 21.3653C11.9941 21.1828 12.1191 20.979 12.3154 20.959C13.4654 20.8428 14.7091 20.779 16.0079 20.779C17.3066 20.779 18.5491 20.8428 19.7004 20.959Z" fill="white"/>
</g>
<defs>
<clipPath id="clip0_7427_38528">
<rect width="32" height="32" fill="white"/>
</clipPath>
</defs>
</svg>
