<svg width="32" height="32" viewBox="0 0 32 32" fill="none" xmlns="http://www.w3.org/2000/svg">
<path d="M16.0317 0H15.9588C7.14501 0 0 7.14713 0 15.9636V16.0364C0 24.8529 7.14501 32 15.9588 32H16.0317C24.8456 32 31.9906 24.8529 31.9906 16.0364V15.9636C31.9906 7.14713 24.8456 0 16.0317 0Z" fill="#00B0F2"/>
<path d="M6.05878 15.4545C6.10361 15.432 6.14846 15.4107 6.19217 15.3906C6.95207 15.0385 7.72205 14.7089 8.49091 14.3793C8.53237 14.3793 8.60185 14.3311 8.64107 14.3154C8.70047 14.2896 8.75989 14.265 8.81929 14.2392L9.16113 14.0923C9.38977 13.9948 9.61728 13.8972 9.84592 13.7997C10.3021 13.6046 10.7582 13.4095 11.2144 13.2133C12.1267 12.8232 13.0402 12.4319 13.9525 12.0418C14.8648 11.6516 15.7782 11.2604 16.6906 10.8702C17.6029 10.4801 18.5163 10.0888 19.4286 9.69865C20.341 9.3085 21.2544 8.91723 22.1667 8.52708C22.3696 8.43963 22.5893 8.30958 22.8067 8.27147C22.9894 8.23895 23.1676 8.17617 23.3514 8.14142C23.6999 8.07527 24.0844 8.04836 24.4184 8.19299C24.5338 8.24344 24.6403 8.31407 24.7288 8.40264C25.1525 8.82193 25.0931 9.5103 25.0034 10.1C24.3791 14.21 23.7549 18.3211 23.1295 22.4312C23.0443 22.9951 22.9277 23.6139 22.4828 23.9704C22.1062 24.272 21.5704 24.3057 21.1053 24.1779C20.6402 24.0489 20.23 23.7787 19.8276 23.513C18.1588 22.4076 16.4888 21.3022 14.82 20.1968C14.4232 19.9344 13.9816 19.5914 13.9861 19.1149C13.9884 18.8279 14.1598 18.5723 14.3347 18.3447C15.785 16.4522 17.8775 15.1518 19.4342 13.3468C19.6539 13.0923 19.8265 12.6326 19.525 12.4857C19.3457 12.3983 19.1395 12.5171 18.9758 12.6304C16.9181 14.0598 14.8614 15.4903 12.8037 16.9198C12.1323 17.3861 11.4285 17.866 10.6193 17.9803C9.89525 18.0835 9.16674 17.8817 8.46625 17.6754C7.87896 17.5027 7.29277 17.3256 6.70884 17.1429C6.39838 17.0464 6.07784 16.9422 5.83799 16.7236C5.59814 16.5049 5.4603 16.1372 5.60488 15.8457C5.69567 15.663 5.87163 15.5475 6.05656 15.4533L6.05878 15.4545Z" fill="#FEFFFC"/>
</svg>
