<svg width="24" height="24" viewBox="0 0 24 24" fill="none" xmlns="http://www.w3.org/2000/svg">
<path d="M17.1767 8.66444C18.7201 9.77162 20.6107 10.4231 22.6528 10.4231V6.47959C22.2663 6.47967 21.8808 6.43923 21.5027 6.35884V9.46291C19.4609 9.46291 17.5705 8.81147 16.0267 7.70438V15.7519C16.0267 19.7776 12.7748 23.0409 8.76358 23.0409C7.2669 23.0409 5.8758 22.5868 4.72021 21.808C6.03913 23.1614 7.87845 24.001 9.91334 24.001C13.9248 24.001 17.1769 20.7377 17.1769 16.7118V8.66444H17.1767ZM18.5954 4.68597C17.8066 3.8212 17.2888 2.70365 17.1767 1.46815V0.960938H16.0869C16.3612 2.53126 17.2969 3.87285 18.5954 4.68597ZM7.2573 18.7188C6.81663 18.1389 6.57849 17.4296 6.57955 16.7002C6.57955 14.859 8.06696 13.3661 9.90202 13.3661C10.244 13.366 10.584 13.4186 10.9099 13.5223V9.49075C10.529 9.43836 10.1446 9.41612 9.76035 9.42428V12.5623C9.43419 12.4585 9.09408 12.4058 8.75201 12.4061C6.91695 12.4061 5.42963 13.8988 5.42963 15.7403C5.42963 17.0424 6.17309 18.1696 7.2573 18.7188Z" fill="#FF004F"/>
<path d="M16.0265 7.7043C17.5702 8.81139 19.4607 9.46283 21.5025 9.46283V6.35876C20.3628 6.11511 19.3538 5.51738 18.5951 4.68597C17.2966 3.87276 16.361 2.53118 16.0867 0.960938H13.2241V16.7116C13.2176 18.5478 11.7327 20.0346 9.90162 20.0346C8.82257 20.0346 7.86394 19.5184 7.25682 18.7188C6.17269 18.1696 5.42923 17.0423 5.42923 15.7404C5.42923 13.8991 6.91655 12.4062 8.75161 12.4062C9.1032 12.4062 9.44208 12.4611 9.75995 12.5624V9.42436C5.81921 9.50607 2.6499 12.7375 2.6499 16.7117C2.6499 18.6956 3.43913 20.494 4.72006 21.8081C5.87565 22.5868 7.26675 23.041 8.76342 23.041C12.7747 23.041 16.0265 19.7775 16.0265 15.7519V7.7043H16.0265Z" fill="black"/>
<path d="M21.5025 6.3578V5.51848C20.4748 5.52005 19.4672 5.23119 18.5952 4.68493C19.3671 5.53306 20.3835 6.11787 21.5025 6.3578ZM16.0867 0.959983C16.0605 0.809911 16.0404 0.658851 16.0265 0.507214V0H12.074V15.7508C12.0677 17.5868 10.5829 19.0736 8.75164 19.0736C8.214 19.0736 7.70638 18.9455 7.25685 18.7179C7.86397 19.5174 8.82259 20.0336 9.90164 20.0336C11.7326 20.0336 13.2177 18.5469 13.2241 16.7107V0.959983H16.0867ZM9.76014 9.42341V8.52989C9.42988 8.48459 9.09691 8.46186 8.76353 8.46202C4.75192 8.46194 1.5 11.7254 1.5 15.7508C1.5 18.2745 2.77806 20.4987 4.72017 21.807C3.43924 20.493 2.65001 18.6944 2.65001 16.7106C2.65001 12.7365 5.81924 9.50511 9.76014 9.42341Z" fill="#00F2EA"/>
</svg>
