<svg width="32" height="32" viewBox="0 0 32 32" fill="none" xmlns="http://www.w3.org/2000/svg">
<path d="M31.9894 16.0006C31.9894 24.0816 26.0011 30.7623 18.2217 31.8464C17.4943 31.9473 16.7501 32 15.9947 32C15.1228 32 14.2665 31.9305 13.4326 31.796C5.81687 30.5695 0 23.9638 0 16.0006C0 7.16393 7.16182 0 15.9958 0C24.8299 0 31.9917 7.16393 31.9917 16.0006H31.9894Z" fill="#1C1C1B"/>
<path d="M6.48687 7.05615L13.8639 16.922L6.44092 24.9436H8.11201L14.6114 17.9209L19.8623 24.9436H25.5481L17.7564 14.5228L24.666 7.05615H22.9949L17.0099 13.5239L12.1737 7.05615H6.48798H6.48687ZM8.94363 8.28714H11.5551L23.0891 23.7126H20.4776L8.94363 8.28714Z" fill="white"/>
</svg>
