<svg width="32" height="32" viewBox="0 0 32 32" fill="none" xmlns="http://www.w3.org/2000/svg">
<g clip-path="url(#clip0_7427_38531)">
<path d="M2.35303 20.4935C2.35303 24.2199 7.20449 27.2418 13.1903 27.2418C19.1761 27.2418 24.0276 24.2195 24.0276 20.4935C24.0276 16.7675 19.1757 13.7456 13.1903 13.7456C7.20491 13.7456 2.35303 16.767 2.35303 20.4935Z" fill="white"/>
<path d="M13.4426 26.6922C8.1452 27.2147 3.57243 24.8209 3.22778 21.3425C2.88399 17.8649 6.90106 14.6218 12.1976 14.098C17.4954 13.5738 22.0686 15.9685 22.4124 19.4452C22.7558 22.924 18.7404 26.168 13.4426 26.6922ZM24.0386 15.1464C23.588 15.012 23.2791 14.9197 23.5148 14.3278C24.0258 13.042 24.0786 11.9331 23.5246 11.1417C22.486 9.65802 19.6437 9.73758 16.3857 11.1021C16.3857 11.1 15.3628 11.5498 15.6241 10.7383C16.1253 9.127 16.0496 7.77777 15.2696 6.99869C13.5026 5.22992 8.80216 7.06549 4.77105 11.0949C1.7526 14.1138 0 17.313 0 20.0796C0 25.3714 6.78618 28.5886 13.4251 28.5886C22.1277 28.5886 27.917 23.532 27.917 19.518C27.917 17.0922 25.8742 15.7158 24.0386 15.1464Z" fill="#E6162D"/>
<path d="M29.8179 5.46227C27.7164 3.13227 24.6162 2.24427 21.7548 2.8523H21.7539C21.5966 2.88591 21.4474 2.95018 21.3149 3.04145C21.1824 3.13271 21.0692 3.24919 20.9817 3.38421C20.8942 3.51924 20.8341 3.67018 20.805 3.82841C20.7758 3.98664 20.7781 4.14907 20.8117 4.30642C20.8453 4.46377 20.9096 4.61295 21.0008 4.74546C21.0921 4.87797 21.2086 4.99121 21.3436 5.0787C21.4786 5.1662 21.6296 5.22624 21.7878 5.25541C21.946 5.28457 22.1085 5.28228 22.2658 5.24867C24.3014 4.81637 26.5041 5.4495 27.9993 7.10382C28.7078 7.88898 29.1971 8.84685 29.418 9.88111C29.6388 10.9154 29.5835 11.9895 29.2575 12.9956L29.2579 12.996C29.2082 13.1492 29.1892 13.3106 29.202 13.4711C29.2148 13.6315 29.2591 13.7879 29.3324 13.9312C29.4057 14.0746 29.5066 14.202 29.6293 14.3063C29.7519 14.4105 29.894 14.4896 30.0472 14.5389C30.3561 14.6388 30.6921 14.612 30.9813 14.4644C31.2705 14.3168 31.4893 14.0605 31.5896 13.7517L31.5901 13.7466C32.487 10.963 31.9202 7.78971 29.8179 5.46227Z" fill="#FF9933"/>
<path d="M26.5898 8.37476C25.5669 7.23997 24.0568 6.80894 22.6625 7.10551C22.5237 7.13089 22.3915 7.18386 22.2736 7.26126C22.1557 7.33867 22.0545 7.43894 21.976 7.55615C21.8976 7.67336 21.8434 7.80512 21.8168 7.94363C21.7902 8.08214 21.7916 8.22458 21.821 8.36253C21.8504 8.50047 21.9072 8.63112 21.988 8.74672C22.0688 8.86232 22.172 8.96054 22.2915 9.03556C22.4109 9.11057 22.5442 9.16086 22.6834 9.18344C22.8226 9.20602 22.965 9.20044 23.102 9.16702V9.16787C23.4484 9.09379 23.8082 9.11203 24.1454 9.22076C24.4826 9.32948 24.7852 9.52488 25.0231 9.78739C25.2606 10.0505 25.4244 10.3717 25.4982 10.7184C25.5719 11.0651 25.5529 11.4251 25.4431 11.7621H25.4439C25.3579 12.0283 25.381 12.3177 25.5083 12.5668C25.6355 12.8159 25.8565 13.0042 26.1226 13.0905C26.3888 13.1763 26.6783 13.1529 26.9273 13.0254C27.1764 12.8979 27.3645 12.6768 27.4505 12.4105C27.8888 11.0545 27.6148 9.50912 26.5898 8.37476Z" fill="#FF9933"/>
<path d="M13.7347 20.3923C13.5492 20.7098 13.1399 20.8621 12.819 20.7298C12.5033 20.5996 12.4042 20.2455 12.5838 19.9341C12.7684 19.6243 13.1624 19.4733 13.4769 19.598C13.7968 19.715 13.9117 20.0737 13.7347 20.3923ZM12.0468 22.5594C11.5345 23.3767 10.4371 23.735 9.61041 23.3576C8.79602 22.987 8.55562 22.0369 9.06876 21.2399C9.57467 20.4464 10.635 20.0924 11.4553 20.4362C12.2851 20.7902 12.5506 21.7335 12.0468 22.5594ZM13.9721 16.7735C11.4511 16.1174 8.60157 17.3739 7.50678 19.5954C6.39156 21.8607 7.47019 24.3754 10.0163 25.1979C12.6548 26.0484 15.7643 24.7451 16.8455 22.2994C17.9122 19.909 16.5808 17.4479 13.9721 16.7735Z" fill="black"/>
</g>
<defs>
<clipPath id="clip0_7427_38531">
<rect width="32" height="32" fill="white"/>
</clipPath>
</defs>
</svg>
