<svg width="40" height="40" viewBox="0 0 40 40" fill="none" xmlns="http://www.w3.org/2000/svg">
<rect width="40" height="40" rx="20" fill="#1F242C"/>
<g opacity="0.3">
<path d="M28.447 27.022L27.4128 25.2786H12.5498L19.9929 12.3919L18.0494 9H15.5414C15.0028 9.00121 14.4742 9.14545 14.0096 9.41798C13.545 9.69052 13.161 10.0816 12.8968 10.5512L8.39907 18.4926C8.13755 18.951 8 19.4697 8 19.9975C8 20.5253 8.13755 21.0441 8.39907 21.5024L11.548 27.0591L12.8968 29.4391C13.128 29.8474 13.4505 30.1965 13.8391 30.4592C14.2277 30.7219 14.6717 30.891 15.1365 30.9533C15.2698 30.972 15.4044 30.9813 15.539 30.9811H24.4351C24.9735 30.9814 25.5023 30.8389 25.9677 30.568C26.4331 30.2971 26.8183 29.9076 27.0842 29.4391L28.4239 27.0591L28.447 27.022Z" fill="url(#paint0_linear_12449_5567)"/>
<path d="M28.4723 27.0221L28.4468 27.0661L27.1049 29.4369C26.8401 29.9053 26.4557 30.2949 25.9911 30.5658C25.5264 30.8368 24.9982 30.9793 24.4604 30.9789H15.5643C15.4296 30.979 15.2951 30.9697 15.1617 30.9511C14.6962 30.8893 14.2513 30.7204 13.8619 30.4577C13.4726 30.195 13.1493 29.8456 12.9175 29.4369L11.5732 27.0591L12.6005 25.281L12.6537 25.2486L17.642 22.2387C18.4124 21.7387 18.9885 21.4446 19.5346 21.352C19.5469 21.3509 19.5593 21.3509 19.5716 21.352L19.678 21.3381L19.8631 21.3242H19.9742C20.0632 21.3266 20.152 21.3336 20.2402 21.3451C20.8071 21.4215 21.4133 21.7062 22.2416 22.1832L27.4103 25.2602L27.4404 25.2787L28.4723 27.0221Z" fill="url(#paint1_linear_12449_5567)"/>
<path d="M31.6023 21.5024L28.4487 27.0591L28.4742 27.0151L27.4376 25.2786L20.0339 12.3757V12.3919L18.0742 9H24.4623C25.0011 9.00152 25.5299 9.14586 25.9948 9.41835C26.4597 9.69083 26.8442 10.0817 27.1091 10.5512L31.6023 18.4926C31.8626 18.9513 31.9995 19.4699 31.9995 19.9975C31.9995 20.5251 31.8626 21.0437 31.6023 21.5024Z" fill="url(#paint2_linear_12449_5567)"/>
<path d="M8.39907 21.5024L11.5549 27.0591L11.5295 27.0151L12.5637 25.2717L19.9674 12.3687V12.3849L21.9317 9H15.5414C15.0028 9.00121 14.4742 9.14545 14.0096 9.41798C13.545 9.69052 13.161 10.0816 12.8968 10.5512L8.39907 18.4926C8.13755 18.951 8 19.4697 8 19.9975C8 20.5253 8.13755 21.0441 8.39907 21.5024Z" fill="url(#paint3_linear_12449_5567)"/>
</g>
<defs>
<linearGradient id="paint0_linear_12449_5567" x1="25.8388" y1="29.027" x2="8.46292" y2="16.528" gradientUnits="userSpaceOnUse">
<stop stop-color="#8B4FDD"/>
<stop offset="1" stop-color="#12B886"/>
</linearGradient>
<linearGradient id="paint1_linear_12449_5567" x1="26.3166" y1="30.1206" x2="18.6221" y2="19.7057" gradientUnits="userSpaceOnUse">
<stop stop-color="#8B4FDD"/>
<stop offset="1" stop-color="#12B886"/>
</linearGradient>
<linearGradient id="paint2_linear_12449_5567" x1="30.2232" y1="25.4536" x2="16.9764" y2="17.5546" gradientUnits="userSpaceOnUse">
<stop stop-color="#8B4FDD"/>
<stop offset="1" stop-color="#12B886"/>
</linearGradient>
<linearGradient id="paint3_linear_12449_5567" x1="20.1546" y1="25.4536" x2="6.90485" y2="17.5493" gradientUnits="userSpaceOnUse">
<stop stop-color="#8B4FDD"/>
<stop offset="1" stop-color="#12B886"/>
</linearGradient>
</defs>
</svg>
