<svg width="16" height="16" viewBox="0 0 16 16" fill="none" xmlns="http://www.w3.org/2000/svg">
<g clip-path="url(#clip0_9108_10818)">
<path d="M14.6563 7.25479C14.2882 7.25479 13.9897 6.95621 13.9897 6.58817C13.9897 4.71817 13.2616 2.96085 11.9396 1.63809C11.679 1.37747 11.679 0.956207 11.9396 0.695465C12.2002 0.434845 12.6216 0.434845 12.8822 0.695465C14.4563 2.26944 15.3229 4.36221 15.3229 6.58817C15.3229 6.95621 15.0243 7.25479 14.6563 7.25479Z" fill="#FFA622"/>
<path d="M1.32288 7.25479C0.954956 7.25479 0.65625 6.95621 0.65625 6.58817C0.65625 4.36221 1.52295 2.26944 3.09692 0.695465C3.35754 0.434845 3.77893 0.434845 4.03955 0.695465C4.30029 0.956207 4.30029 1.37747 4.03955 1.63809C2.71753 2.96011 1.98962 4.71817 1.98962 6.58817C1.98962 6.95621 1.69092 7.25479 1.32288 7.25479Z" fill="#FFA622"/>
<path d="M10.6566 13.3333C10.6566 14.806 9.46277 15.9999 7.98999 15.9999C6.51721 15.9999 5.32324 14.806 5.32324 13.3333C5.32324 11.8605 6.51721 10.6665 7.98999 10.6665C9.46277 10.6665 10.6566 11.8605 10.6566 13.3333Z" fill="#FFA622"/>
<path d="M7.98999 2.66663C7.62195 2.66663 7.32324 2.36804 7.32324 2V0.666626C7.32324 0.298706 7.62195 0 7.98999 0C8.35791 0 8.65662 0.298706 8.65662 0.666626V2C8.65662 2.36804 8.35791 2.66663 7.98999 2.66663Z" fill="#FFA622"/>
<path d="M14.2427 11.2748C13.2346 10.4227 12.6566 9.1781 12.6566 7.85876V6.00012C12.6566 3.42676 10.5626 1.3335 7.98999 1.3335C5.41724 1.3335 3.32324 3.42676 3.32324 6.00012V7.85876C3.32324 9.1781 2.74524 10.4235 1.73132 11.2808C1.47192 11.5021 1.32324 11.8254 1.32324 12.1667C1.32324 12.8102 1.84656 13.3335 2.48999 13.3335H13.49C14.1333 13.3335 14.6566 12.8102 14.6566 12.1667C14.6566 11.8254 14.5079 11.5021 14.2427 11.2748Z" fill="#FFA622"/>
</g>
<defs>
<clipPath id="clip0_9108_10818">
<rect width="16" height="16" fill="white"/>
</clipPath>
</defs>
</svg>
