<svg width="16" height="16" viewBox="0 0 16 16" fill="none" xmlns="http://www.w3.org/2000/svg">
<g clip-path="url(#clip0_3053_14888)">
<path d="M14.6563 7.25461C14.2882 7.25461 13.9897 6.95602 13.9897 6.58798C13.9897 4.71799 13.2616 2.96066 11.9396 1.63791C11.679 1.37729 11.679 0.956024 11.9396 0.695282C12.2002 0.434662 12.6216 0.434662 12.8822 0.695282C14.4563 2.26926 15.3229 4.36203 15.3229 6.58798C15.3229 6.95602 15.0243 7.25461 14.6563 7.25461Z" fill="#3F80F7"/>
<path d="M1.32288 7.25461C0.954956 7.25461 0.65625 6.95602 0.65625 6.58798C0.65625 4.36203 1.52295 2.26926 3.09692 0.695282C3.35754 0.434662 3.77893 0.434662 4.03955 0.695282C4.30029 0.956024 4.30029 1.37729 4.03955 1.63791C2.71753 2.95993 1.98962 4.71799 1.98962 6.58798C1.98962 6.95602 1.69092 7.25461 1.32288 7.25461Z" fill="#3F80F7"/>
<path d="M10.6561 13.3334C10.6561 14.8062 9.46228 16 7.9895 16C6.51672 16 5.32275 14.8062 5.32275 13.3334C5.32275 11.8606 6.51672 10.6666 7.9895 10.6666C9.46228 10.6666 10.6561 11.8606 10.6561 13.3334Z" fill="#3F80F7"/>
<path d="M7.9895 2.66663C7.62146 2.66663 7.32275 2.36804 7.32275 2V0.666626C7.32275 0.298706 7.62146 0 7.9895 0C8.35742 0 8.65613 0.298706 8.65613 0.666626V2C8.65613 2.36804 8.35742 2.66663 7.9895 2.66663Z" fill="#3F80F7"/>
<path d="M14.2422 11.2747C13.2341 10.4226 12.6561 9.17798 12.6561 7.85864V6C12.6561 3.42664 10.5621 1.33337 7.9895 1.33337C5.41675 1.33337 3.32275 3.42664 3.32275 6V7.85864C3.32275 9.17798 2.74475 10.4233 1.73083 11.2806C1.47144 11.502 1.32275 11.8253 1.32275 12.1666C1.32275 12.8101 1.84607 13.3334 2.4895 13.3334H13.4895C14.1328 13.3334 14.6561 12.8101 14.6561 12.1666C14.6561 11.8253 14.5074 11.502 14.2422 11.2747Z" fill="#3F80F7"/>
</g>
<defs>
<clipPath id="clip0_3053_14888">
<rect width="16" height="16" fill="white"/>
</clipPath>
</defs>
</svg>
