<svg width="128" height="128" viewBox="0 0 128 128" fill="none" xmlns="http://www.w3.org/2000/svg">
<path d="M58.88 77.0757L82.1071 53.8388C82.9231 53.0214 83.3811 51.9134 83.3801 50.7584C83.3792 49.6034 82.9195 48.4961 82.1022 47.68C81.2848 46.864 80.1768 46.406 79.0218 46.407C77.8668 46.4079 76.7594 46.8676 75.9434 47.6849L55.7982 67.8302L47.2616 59.2936C46.8568 58.8895 46.3765 58.5691 45.848 58.3507C45.3194 58.1322 44.753 58.02 44.1812 58.0205C43.6093 58.021 43.0431 58.1341 42.5149 58.3533C41.9867 58.5726 41.5069 58.8938 41.1028 59.2985C40.6987 59.7032 40.3783 60.1835 40.1599 60.7121C39.9415 61.2406 39.8293 61.807 39.8297 62.3789C39.8302 62.9508 39.9433 63.517 40.1626 64.0452C40.3818 64.5734 40.703 65.0532 41.1077 65.4573L52.7262 77.0757C53.5436 77.8892 54.6499 78.3459 55.8031 78.3459C56.9563 78.3459 58.0626 77.8892 58.88 77.0757ZM13.6369 25.2849V55.9262C13.6369 95.7834 50.9046 112.02 61.5385 115.84C72.1723 112.02 109.44 95.7834 109.44 55.9262V25.2849C83.7711 19.9089 72.9797 14.8776 61.6369 9.18648C49.5656 15.1434 39.0892 19.968 13.6369 25.2849ZM61.5385 124.8C61.0697 124.8 60.6041 124.724 60.16 124.574C50.9342 121.502 4.9231 103.739 4.9231 55.9262V21.7305C4.9231 19.6628 6.39017 17.8708 8.42833 17.4573C36.7557 11.7957 46.8086 6.81356 59.5299 0.502175C60.1597 0.189175 60.8511 0.0197618 61.5542 0.00614108C62.2574 -0.00747969 62.9549 0.135031 63.5963 0.423406C76.1502 6.74464 86.0652 11.7465 114.649 17.4573C115.637 17.6551 116.525 18.1889 117.164 18.9678C117.803 19.7468 118.153 20.723 118.154 21.7305V55.9262C118.154 103.739 72.1428 121.502 62.9169 124.574C62.4729 124.724 62.0072 124.8 61.5385 124.8Z" fill="#CDF1DF"/>
</svg>
