<?xml version="1.0" standalone="no"?><!DOCTYPE svg PUBLIC "-//W3C//DTD SVG 1.1//EN" "http://www.w3.org/Graphics/SVG/1.1/DTD/svg11.dtd"><svg t="1758010253935" class="icon" viewBox="0 0 2457 1024" version="1.1" xmlns="http://www.w3.org/2000/svg" p-id="24169" xmlns:xlink="http://www.w3.org/1999/xlink" width="479.8828125" height="200"><path d="M409.6 0h1638.4a409.6 409.6 0 0 1 409.6 409.6v204.8a409.6 409.6 0 0 1-409.6 409.6H0V409.6a409.6 409.6 0 0 1 409.6-409.6z" fill="#FFA622" p-id="24170"></path><path d="M497.2544 463.6672H802.816V214.6304h87.6544v599.6544H802.816V542.3104H497.2544v271.9744H409.6V214.6304h87.6544zM997.7856 513.6384c0-62.2592 11.9808-116.736 36.0448-163.4304 24.064-46.6944 57.0368-82.6368 99.1232-107.7248 41.984-25.088 89.088-37.6832 140.9024-37.6832 51.9168 0 98.816 12.5952 140.9024 37.6832 41.984 25.088 75.0592 61.0304 99.1232 107.7248 24.064 46.6944 36.0448 101.1712 36.0448 163.4304 0 62.7712-12.1856 117.5552-36.4544 164.2496-24.2688 46.6944-57.344 82.6368-99.1232 107.7248a267.264 267.264 0 0 1-140.4928 37.6832c-51.9168 0-98.816-12.3904-140.9024-37.2736a258.1504 258.1504 0 0 1-99.1232-107.7248c-24.064-47.0016-36.0448-101.888-36.0448-164.6592z m93.3888 0c0 45.3632 7.4752 85.2992 22.528 120.0128 15.0528 34.7136 36.1472 61.5424 63.488 80.6912 27.3408 19.1488 59.4944 28.672 96.6656 28.672s69.5296-9.5232 97.0752-28.672c27.648-19.1488 48.8448-46.08 63.8976-80.6912 15.0528-34.7136 22.528-74.752 22.528-120.0128 0-45.3632-7.4752-85.1968-22.528-119.6032a183.7056 183.7056 0 0 0-64.3072-80.2816 166.7072 166.7072 0 0 0-96.6656-28.672c-36.5568 0-68.608 9.5232-96.256 28.672-27.648 19.1488-48.8448 45.8752-63.8976 80.2816-15.0528 34.4064-22.528 74.24-22.528 119.6032zM1599.0784 214.6304h457.9328v77.824H1871.872v521.8304h-88.4736V292.4544h-184.32z" fill="#FFFFFF" p-id="24171"></path></svg>