<svg width="12" height="12" viewBox="0 0 12 12" fill="none" xmlns="http://www.w3.org/2000/svg">
<g clip-path="url(#clip0_5673_16705)">
<path d="M11.6338 5.11317L10.7455 4.22488C10.7027 4.18326 10.6686 4.13351 10.6452 4.07855C10.6219 4.02358 10.6097 3.9645 10.6095 3.90478V2.64037C10.6091 2.3094 10.4774 1.9921 10.2434 1.75806C10.0094 1.52403 9.69205 1.39237 9.36108 1.39197H8.09667C8.03695 1.39171 7.97788 1.37955 7.92292 1.35619C7.86796 1.33283 7.8182 1.29874 7.77657 1.25593L6.88829 0.367642C6.65211 0.13317 6.3328 0.00158691 6 0.00158691C5.6672 0.00158691 5.34789 0.13317 5.11171 0.367642L4.22343 1.25593C4.18179 1.29874 4.13204 1.33283 4.07708 1.35619C4.02211 1.37955 3.96305 1.39171 3.90332 1.39197H2.63892C2.30794 1.39237 1.99064 1.52403 1.75661 1.75806C1.52257 1.9921 1.39092 2.3094 1.39052 2.64037V3.90478C1.39028 3.9645 1.37813 4.02358 1.35476 4.07855C1.3314 4.13351 1.29731 4.18326 1.25447 4.22488L0.366186 5.11317C0.131636 5.34931 0 5.66863 0 6.00146C0 6.33428 0.131636 6.6536 0.366186 6.88974L1.25447 7.77803C1.29731 7.81965 1.3314 7.8694 1.35476 7.92436C1.37813 7.97933 1.39028 8.03841 1.39052 8.09813V9.36254C1.39092 9.69351 1.52257 10.0108 1.75661 10.2448C1.99064 10.4789 2.30794 10.6105 2.63892 10.6109H3.90332C3.96305 10.6112 4.02211 10.6234 4.07708 10.6467C4.13204 10.6701 4.18179 10.7042 4.22343 10.747L5.11171 11.6353C5.22833 11.752 5.36681 11.8446 5.51923 11.9077C5.67164 11.9709 5.83501 12.0034 6 12.0034C6.16499 12.0034 6.32836 11.9709 6.48077 11.9077C6.63319 11.8446 6.77167 11.752 6.88829 11.6353L7.77657 10.747C7.8182 10.7042 7.86796 10.6701 7.92292 10.6467C7.97788 10.6234 8.03695 10.6112 8.09667 10.6109H9.36108C9.69205 10.6105 10.0094 10.4789 10.2434 10.2448C10.4774 10.0108 10.6091 9.69351 10.6095 9.36254V8.09813C10.6097 8.03841 10.6219 7.97933 10.6452 7.92436C10.6686 7.8694 10.7027 7.81965 10.7455 7.77803L11.6338 6.88974C11.8684 6.6536 12 6.33428 12 6.00146C12 5.66863 11.8684 5.34931 11.6338 5.11317ZM7.88061 5.2172L5.75192 7.35389C5.67489 7.42599 5.57333 7.4661 5.46783 7.4661C5.36232 7.4661 5.26077 7.42599 5.18374 7.35389L4.11939 6.28155C4.04635 6.20701 4.00566 6.10665 4.00619 6.00228C4.00672 5.89792 4.04841 5.79798 4.12221 5.72418C4.19601 5.65038 4.29595 5.60869 4.40031 5.60816C4.50468 5.60764 4.60503 5.64832 4.67957 5.72137L5.46383 6.50562L7.32042 4.64902C7.39533 4.57591 7.49585 4.53499 7.60051 4.53499C7.70518 4.53499 7.8057 4.57591 7.88061 4.64902C7.91861 4.68593 7.94882 4.7301 7.96945 4.77889C7.99008 4.82769 8.00071 4.88013 8.00071 4.93311C8.00071 4.98609 7.99008 5.03853 7.96945 5.08733C7.94882 5.13613 7.91861 5.18029 7.88061 5.2172Z" fill="#1C9BEF"/>
</g>
<defs>
<clipPath id="clip0_5673_16705">
<rect width="12" height="12" fill="white"/>
</clipPath>
</defs>
</svg>
