<svg width="61" height="62" viewBox="0 0 61 62" fill="none" xmlns="http://www.w3.org/2000/svg">
<path opacity="0.4" d="M15.0004 0H38.0004H50.2671L55.4999 5.5L61.0004 10.6367V15.1899V61.519H15.0004V0Z" fill="#CAD6EC"/>
<path d="M50.3674 0L55.6839 5.31646L61.0003 10.6329H50.3674V0Z" fill="#CAD6EC"/>
<path d="M23.0256 22.7849H53.4054V25.8229H23.0256V22.7849Z" fill="white"/>
<path d="M23.0256 28.8608H53.4054V31.8988H23.0256V28.8608Z" fill="white"/>
<path d="M23.0256 34.9368H53.4054V37.9747H23.0256V34.9368Z" fill="white"/>
<path d="M22.0251 15.1899C30.4141 15.1899 37.2153 21.9905 37.2156 30.3794C37.2156 38.7685 30.4143 45.5698 22.0251 45.5698C13.6362 45.5696 6.83569 38.7684 6.83569 30.3794C6.83592 21.9906 13.6363 15.1902 22.0251 15.1899ZM22.0251 18.9878C15.7336 18.988 10.6338 24.0879 10.6335 30.3794C10.6335 36.6711 15.7335 41.7717 22.0251 41.772C28.317 41.772 33.4177 36.6712 33.4177 30.3794C33.4175 24.0877 28.3169 18.9878 22.0251 18.9878Z" fill="#CAD6EC"/>
<rect x="11.278" y="37.9749" width="3.79747" height="15.9494" transform="rotate(45 11.278 37.9749)" fill="#CAD6EC"/>
</svg>
