<?xml version="1.0" standalone="no"?><!DOCTYPE svg PUBLIC "-//W3C//DTD SVG 1.1//EN" "http://www.w3.org/Graphics/SVG/1.1/DTD/svg11.dtd"><svg t="1758010241100" class="icon" viewBox="0 0 2457 1024" version="1.1" xmlns="http://www.w3.org/2000/svg" p-id="24017" xmlns:xlink="http://www.w3.org/1999/xlink" width="479.8828125" height="200"><path d="M409.6 0h1638.4a409.6 409.6 0 0 1 409.6 409.6v204.8a409.6 409.6 0 0 1-409.6 409.6H0V409.6a409.6 409.6 0 0 1 409.6-409.6z" fill="#F6465D" p-id="24018"></path><path d="M380.1088 205.6192l319.488 445.6448V205.6192h81.92v599.6544H708.608L389.12 358.8096v446.464H307.2V205.6192zM1264.0256 535.7568H1006.7968v191.6928h296.5504v77.824H919.1424V204.8h375.1936v77.824H1006.7968v176.128h257.2288zM1783.3984 204.8l140.0832 455.4752 128.6144-454.656h85.1968L1953.792 805.2736h-68.8128L1744.896 364.544l-135.168 440.7296h-67.9936l-193.3312-599.6544h92.5696l139.264 454.656L1710.4896 204.8z" fill="#FFFFFF" p-id="24019"></path></svg>