<svg width="13" height="14" viewBox="0 0 13 14" fill="none" xmlns="http://www.w3.org/2000/svg">
<path d="M10.9474 2.8H5.47368C5.29222 2.8 5.11819 2.87375 4.98987 3.00503C4.86156 3.1363 4.78947 3.31435 4.78947 3.5V12.6H0.684211C0.502747 12.6 0.328715 12.5263 0.200401 12.395C0.0720862 12.2637 0 12.0857 0 11.9V0.7C0 0.514348 0.0720862 0.336301 0.200401 0.205025C0.328715 0.0737498 0.502747 0 0.684211 0H10.2632C10.4446 0 10.6187 0.0737498 10.747 0.205025C10.8753 0.336301 10.9474 0.514348 10.9474 0.7V2.8ZM6.84211 4.2H12.3158C12.4973 4.2 12.6713 4.27375 12.7996 4.40503C12.9279 4.5363 13 4.71435 13 4.9V13.3C13 13.4857 12.9279 13.6637 12.7996 13.795C12.6713 13.9263 12.4973 14 12.3158 14H6.84211C6.66064 14 6.48661 13.9263 6.3583 13.795C6.22998 13.6637 6.1579 13.4857 6.1579 13.3V4.9C6.1579 4.71435 6.22998 4.5363 6.3583 4.40503C6.48661 4.27375 6.66064 4.2 6.84211 4.2Z" fill="#3F80F7"/>
</svg>
