<svg width="14" height="14" viewBox="0 0 14 14" fill="none" xmlns="http://www.w3.org/2000/svg">
<path d="M0 4.66667H13.3C13.4857 4.66667 13.6637 4.74861 13.795 4.89447C13.9263 5.04033 14 5.23816 14 5.44444V13.2222C14 13.4285 13.9263 13.6263 13.795 13.7722C13.6637 13.9181 13.4857 14 13.3 14H0.7C0.514348 14 0.336301 13.9181 0.205025 13.7722C0.0737498 13.6263 0 13.4285 0 13.2222V4.66667ZM0.7 0H11.2V3.11111H0V0.777778C0 0.571498 0.0737498 0.373667 0.205025 0.227806C0.336301 0.0819442 0.514348 0 0.7 0ZM9.1 8.55556V10.1111H11.2V8.55556H9.1Z" fill="#3F80F7"/>
</svg>
