<svg width="14" height="14" viewBox="0 0 14 14" fill="none" xmlns="http://www.w3.org/2000/svg">
<path d="M8.39756 6.38556e-07C9.67849 -0.000610908 10.9209 0.438054 11.9176 1.24283C12.9143 2.04762 13.605 3.16986 13.8746 4.42241C14.1442 5.67495 13.9762 6.98207 13.3989 8.12577C12.8215 9.26947 11.8696 10.1806 10.7019 10.7072C10.3286 11.5326 9.76077 12.2552 9.04704 12.8128C8.33331 13.3705 7.49499 13.7467 6.60398 13.9092C5.71297 14.0717 4.79587 14.0155 3.93131 13.7456C3.06675 13.4757 2.28055 13 1.64013 12.3595C0.999711 11.7189 0.524184 10.9325 0.254334 10.0677C-0.0155173 9.20298 -0.0716388 8.28565 0.0907818 7.39442C0.253202 6.5032 0.629318 5.66468 1.18687 4.95078C1.74443 4.23688 2.46678 3.6689 3.29198 3.29555C3.73586 2.31318 4.45364 1.47974 5.35923 0.895203C6.26483 0.310661 7.31978 -0.000165978 8.39756 6.38556e-07ZM6.29765 4.90097H4.89771V5.60111C4.44281 5.6 4.00536 5.77613 3.67807 6.09215C3.35079 6.40817 3.1594 6.83925 3.14447 7.29401C3.12955 7.74878 3.29225 8.19149 3.59811 8.5283C3.90396 8.86512 4.32892 9.06956 4.78292 9.0983L4.89771 9.1018H6.29765L6.36065 9.10741C6.44134 9.12202 6.51434 9.16451 6.56691 9.22747C6.61948 9.29043 6.64828 9.36985 6.64828 9.45187C6.64828 9.5339 6.61948 9.61332 6.56691 9.67628C6.51434 9.73923 6.44134 9.78173 6.36065 9.79634L6.29765 9.80194H3.49777V11.2022H4.89771V11.9024H6.29765V11.2022C6.75255 11.2033 7.19001 11.0272 7.51729 10.7112C7.84457 10.3952 8.03596 9.96408 8.05089 9.50932C8.06582 9.05455 7.90311 8.61184 7.59726 8.27503C7.2914 7.93821 6.86644 7.73377 6.41245 7.70503L6.29765 7.70153H4.89771L4.83472 7.69593C4.75402 7.68131 4.68102 7.63882 4.62845 7.57586C4.57588 7.51291 4.54709 7.43348 4.54709 7.35146C4.54709 7.26943 4.57588 7.19001 4.62845 7.12705C4.68102 7.0641 4.75402 7.0216 4.83472 7.00699L4.89771 7.00139H7.69759V5.60111H6.29765V4.90097ZM8.39756 1.40028C7.80447 1.39958 7.21798 1.52486 6.67691 1.76782C6.13584 2.01079 5.65251 2.36589 5.2589 2.80966C6.05005 2.76162 6.84238 2.88212 7.5835 3.16319C8.32462 3.44426 8.99765 3.8795 9.55807 4.44013C10.1185 5.00075 10.5536 5.67399 10.8345 6.41533C11.1154 7.15666 11.2358 7.9492 11.1876 8.74053C11.8241 8.17456 12.2734 7.42844 12.4762 6.60113C12.6789 5.77382 12.6254 4.90441 12.3227 4.10822C12.0201 3.31203 11.4826 2.62667 10.7816 2.14304C10.0806 1.65942 9.24915 1.40038 8.39756 1.40028Z" fill="#3F80F7"/>
</svg>
