<svg width="16" height="16" viewBox="0 0 16 16" fill="none" xmlns="http://www.w3.org/2000/svg">
<path d="M8 14C4.6862 14 2 11.3138 2 8C2 4.6862 4.6862 2 8 2C11.3138 2 14 4.6862 14 8C14 11.3138 11.3138 14 8 14ZM8 12.8C9.27304 12.8 10.4939 12.2943 11.3941 11.3941C12.2943 10.4939 12.8 9.27304 12.8 8C12.8 6.72696 12.2943 5.50606 11.3941 4.60589C10.4939 3.70571 9.27304 3.2 8 3.2C6.72696 3.2 5.50606 3.70571 4.60589 4.60589C3.70571 5.50606 3.2 6.72696 3.2 8C3.2 9.27304 3.70571 10.4939 4.60589 11.3941C5.50606 12.2943 6.72696 12.8 8 12.8ZM7.4018 10.4L4.856 7.8542L5.7044 7.0058L7.4018 8.7032L10.7954 5.309L11.6444 6.1574L7.4018 10.4Z" fill="#12B886"/>
</svg>
