<svg width="20" height="20" viewBox="0 0 20 20" fill="none" xmlns="http://www.w3.org/2000/svg">
<path d="M9.20215 1.74146C9.44862 1.64197 9.72325 1.64197 9.96973 1.74146C10.764 2.06218 10.9193 3.29651 11.8564 3.36548C12.5166 3.41388 13.1647 2.85651 13.8271 3.02368C14.0943 3.09112 14.3251 3.26353 14.4697 3.50415C14.9127 4.24141 14.3411 5.32494 15.0635 5.93677C15.5656 6.36161 16.3955 6.30664 16.832 6.82739C17.0157 7.04668 17.1055 7.33294 17.082 7.62134C17.0122 8.47958 15.9329 9.01677 16.1699 9.94165C16.3341 10.582 17.0268 11.0327 17.082 11.7122C17.1056 12.0006 17.0158 12.2868 16.832 12.5061C16.2836 13.1604 15.097 12.9447 14.7549 13.8313C14.5147 14.4538 14.8233 15.2408 14.4697 15.8293C14.3251 16.07 14.0943 16.2424 13.8271 16.3098C13.0046 16.5173 12.1695 15.6222 11.3779 16.1272C10.813 16.4877 10.6106 17.3334 9.96973 17.592C9.72325 17.6916 9.44862 17.6916 9.20215 17.592C8.56136 17.3333 8.35893 16.4876 7.79395 16.1272C7.01224 15.6286 6.1533 16.5138 5.34473 16.3098C5.07766 16.2423 4.84669 16.0699 4.70215 15.8293C4.25939 15.0921 4.83094 14.0084 4.1084 13.3967C3.60639 12.9718 2.77634 13.027 2.33984 12.5061C2.15616 12.2868 2.0664 12.0006 2.08984 11.7122C2.14526 11.0327 2.83766 10.582 3.00195 9.94165C3.23667 9.02641 2.15883 8.46703 2.08984 7.62134C2.06644 7.33296 2.15614 7.04667 2.33984 6.82739C2.88826 6.17284 4.07473 6.38889 4.41699 5.5022C4.65716 4.87967 4.34864 4.09269 4.70215 3.50415C4.8467 3.2636 5.07764 3.09116 5.34473 3.02368C6.00721 2.85651 6.65526 3.41389 7.31543 3.36548C8.25272 3.2967 8.40799 2.06233 9.20215 1.74146ZM12.9688 7.4397C12.8802 7.17866 12.5973 7.03822 12.3359 7.12622C11.7376 7.32812 11.1513 7.71917 10.623 8.1604C10.0899 8.60568 9.58863 9.12534 9.16016 9.6145C8.74987 10.0829 8.40115 10.5304 8.14844 10.8694C7.88416 10.5137 7.6229 10.2797 7.38574 10.1292C7.20621 10.0152 7.04585 9.9518 6.91895 9.91724C6.85595 9.90012 6.80115 9.88954 6.75781 9.88403C6.73637 9.88133 6.71705 9.88013 6.70117 9.87915C6.6935 9.87868 6.68598 9.87837 6.67969 9.87817C6.67656 9.87801 6.67265 9.87724 6.66992 9.8772H6.66309C6.66272 9.87772 6.66224 9.8892 6.66211 10.1292V9.8772C6.38641 9.87745 6.16248 10.1015 6.16211 10.3772C6.16211 10.6529 6.38566 10.8764 6.66113 10.8772H6.63965C6.63507 10.8769 6.63216 10.8763 6.63184 10.8762C6.63184 10.8762 6.6407 10.8779 6.65625 10.8821C6.68865 10.8909 6.75665 10.914 6.84961 10.9729C7.03508 11.0907 7.34533 11.3662 7.67773 11.9993C7.75971 12.1552 7.91882 12.2565 8.09473 12.2659C8.27064 12.2749 8.43828 12.1907 8.53613 12.0442L8.53711 12.0422C8.53799 12.0409 8.54006 12.0392 8.54199 12.0364C8.54593 12.0305 8.55141 12.021 8.55957 12.009C8.576 11.985 8.60129 11.949 8.63379 11.9026C8.6988 11.8096 8.79448 11.675 8.91602 11.511C9.1596 11.1823 9.5052 10.7373 9.91211 10.2727C10.3198 9.80726 10.7837 9.32888 11.2637 8.92798C11.7485 8.52306 12.2245 8.21887 12.6553 8.07349C12.9169 7.9852 13.057 7.70133 12.9688 7.4397Z" fill="#41CCFF"/>
</svg>
