<svg width="16" height="16" viewBox="0 0 16 16" fill="currentColor" xmlns="http://www.w3.org/2000/svg">
<path d="M3.55564 10.8418H0.727273C0.534388 10.8418 0.349403 10.767 0.213013 10.6337C0.0766231 10.5005 0 10.3198 0 10.1314V5.86865C0 5.68022 0.0766231 5.49952 0.213013 5.36628C0.349403 5.23305 0.534388 5.15819 0.727273 5.15819H3.55564L7.40582 2.08052C7.45909 2.03785 7.52367 2.01085 7.59205 2.00265C7.66042 1.99445 7.72977 2.00539 7.79203 2.03419C7.85429 2.063 7.90688 2.10849 7.9437 2.16537C7.98052 2.22225 8.00004 2.28817 8 2.35546V13.6445C8.00004 13.7118 7.98052 13.7778 7.9437 13.8346C7.90688 13.8915 7.85429 13.937 7.79203 13.9658C7.72977 13.9946 7.66042 14.0056 7.59205 13.9974C7.52367 13.9892 7.45909 13.9621 7.40582 13.9195L3.55636 10.8418H3.55564ZM13.3862 13.7788L12.3564 12.7728C13.0458 12.1736 13.5974 11.4384 13.9747 10.6157C14.352 9.79297 14.5466 8.90149 14.5455 8C14.5464 7.05232 14.3312 6.11635 13.9155 5.26005C13.4999 4.40376 12.8942 3.64865 12.1425 3.04957L13.1753 2.04073C14.0614 2.7736 14.7733 3.68648 15.2611 4.71572C15.749 5.74496 16.0011 6.86578 16 8C16 10.2898 14.992 12.3494 13.3862 13.7788ZM10.8095 11.2617L9.77527 10.2514C10.1283 9.98621 10.4142 9.64522 10.6108 9.25482C10.8074 8.86442 10.9095 8.43508 10.9091 8C10.9091 6.98405 10.3636 6.09244 9.54181 5.59015L10.5884 4.56781C11.1392 4.96367 11.587 5.48063 11.8954 6.07689C12.2038 6.67315 12.3642 7.33195 12.3636 8C12.3636 9.30865 11.76 10.4795 10.8095 11.2617Z" fill="#F5F5F5"/>
</svg>
