<svg width="16" height="16" viewBox="0 0 16 16" fill="currentColor" xmlns="http://www.w3.org/2000/svg">
<path d="M3.40845 10.8418H0.697168C0.512267 10.8418 0.33494 10.767 0.204196 10.6337C0.0734514 10.5005 0 10.3198 0 10.1314V5.86865C0 5.68022 0.0734514 5.49952 0.204196 5.36628C0.33494 5.23305 0.512267 5.15819 0.697168 5.15819H3.40845L7.09926 2.08052C7.15033 2.03785 7.21224 2.01085 7.27778 2.00265C7.34332 1.99445 7.40981 2.00539 7.46949 2.03419C7.52917 2.063 7.57959 2.10849 7.61488 2.16537C7.65018 2.22225 7.66889 2.28817 7.66885 2.35546V13.6445C7.66889 13.7118 7.65018 13.7778 7.61488 13.8346C7.57959 13.8915 7.52917 13.937 7.46949 13.9658C7.40981 13.9946 7.34332 14.0056 7.27778 13.9974C7.21224 13.9892 7.15033 13.9621 7.09926 13.9195L3.40915 10.8418H3.40845ZM13.5348 8L16 10.5122L15.0142 11.5167L12.549 9.00458L10.0838 11.5167L9.09804 10.5122L11.5632 8L9.09804 5.48784L10.0838 4.48327L12.549 6.99542L15.0142 4.48327L16 5.48784L13.5348 8Z" fill="#F5F5F5"/>
</svg>
