<svg width="12" height="12" viewBox="0 0 12 12" fill="none" xmlns="http://www.w3.org/2000/svg">
<path d="M6.66699 2.12793H1V9.67871L1.88184 8.89746H9V4.66699H10V9.46191C9.99991 9.61138 9.9472 9.75465 9.85352 9.86035C9.75975 9.96614 9.63261 10.0254 9.5 10.0254H2.22754L0 12V1.56445C0 1.41484 0.0527162 1.27083 0.146484 1.16504C0.240242 1.05933 0.367442 1 0.5 1H6.66699V2.12793ZM7 6.07715H3V4.94824H7V6.07715Z" fill="#3F80F7"/>
<path d="M9.56668 3.8448L9.68995 3.5621C9.90971 3.05808 10.3055 2.65675 10.7994 2.43722L11.1792 2.26836C11.3846 2.17706 11.3846 1.87837 11.1792 1.78707L10.8207 1.62766C10.3141 1.40248 9.91116 0.986311 9.69514 0.465146L9.56858 0.159663C9.48032 -0.0532209 9.18614 -0.0532209 9.09789 0.159663L8.97133 0.465146C8.75536 0.986311 8.35245 1.40248 7.84585 1.62766L7.48728 1.78707C7.28191 1.87837 7.28191 2.17706 7.48728 2.26836L7.86707 2.43722C8.36099 2.65675 8.75676 3.05808 8.97652 3.5621L9.09984 3.8448C9.19004 4.05173 9.47643 4.05173 9.56668 3.8448Z" fill="currentColor"/>
</svg>
