<svg width="10" height="10" viewBox="0 0 10 10" fill="none" xmlns="http://www.w3.org/2000/svg">
<path d="M7.88462 0H2.11538C0.751282 0 0 0.751282 0 2.11538V7.88462C0 9.24872 0.751282 10 2.11538 10H7.88462C9.24872 10 10 9.24872 10 7.88462V2.11538C10 0.751282 9.24872 0 7.88462 0ZM9.23077 7.88462C9.23077 8.82821 8.82821 9.23077 7.88462 9.23077H2.11538C1.17179 9.23077 0.769231 8.82821 0.769231 7.88462V2.11538C0.769231 1.17179 1.17179 0.769231 2.11538 0.769231H7.88462C8.82821 0.769231 9.23077 1.17179 9.23077 2.11538V7.88462ZM6.81027 4.21537C6.96053 4.36563 6.96053 4.60923 6.81027 4.75949L5.27181 6.29795C5.19694 6.37282 5.09846 6.41076 5 6.41076C4.90154 6.41076 4.80306 6.37334 4.72819 6.29795L3.18973 4.75949C3.03947 4.60923 3.03947 4.36563 3.18973 4.21537C3.33999 4.06511 3.58359 4.06511 3.73385 4.21537L5.0005 5.48202L6.26715 4.21537C6.4169 4.06511 6.66002 4.06511 6.81027 4.21537Z" fill="#3F80F7"/>
</svg>
