<svg width="16" height="16" viewBox="0 0 16 16" fill="none" xmlns="http://www.w3.org/2000/svg">
<path d="M6.00049 9.79004H7.22217V2.65527C7.22217 2.48156 7.29075 2.31424 7.41357 2.19141C7.5363 2.06875 7.70297 2.0001 7.87646 2H8.13916C8.31286 2 8.4802 2.06857 8.60303 2.19141C8.72584 2.31424 8.79443 2.48157 8.79443 2.65527V9.79004H9.99951C10.1166 9.79006 10.2317 9.82226 10.3325 9.88184C10.4334 9.94149 10.5162 10.0272 10.5728 10.1299C10.6293 10.2326 10.6574 10.3486 10.6538 10.4658C10.6502 10.583 10.615 10.6969 10.5522 10.7959L8.51709 13.6953C8.45767 13.7891 8.37525 13.8667 8.27783 13.9199C8.18033 13.9732 8.07057 14.0007 7.95947 14C7.84836 13.9993 7.73892 13.9705 7.64209 13.916C7.54532 13.8615 7.46399 13.7831 7.40576 13.6885L5.44385 10.7891H5.44287C5.3817 10.6898 5.34769 10.5756 5.34521 10.459C5.34281 10.3426 5.37146 10.2276 5.42822 10.126C5.48513 10.0242 5.56882 9.93884 5.66943 9.87988C5.76984 9.82116 5.88417 9.78998 6.00049 9.79004Z" fill="#F53B6A"/>
</svg>
