<svg width="16" height="16" viewBox="0 0 16 16" fill="none" xmlns="http://www.w3.org/2000/svg">
<path d="M6.00073 6.20996H7.22241V13.3447C7.22241 13.5184 7.291 13.6858 7.41382 13.8086C7.53654 13.9313 7.70321 13.9999 7.87671 14H8.1394C8.3131 14 8.48045 13.9314 8.60327 13.8086C8.72608 13.6858 8.79468 13.5184 8.79468 13.3447V6.20996H9.99976C10.1169 6.20994 10.2319 6.17774 10.3328 6.11816C10.4337 6.05851 10.5165 5.97282 10.573 5.87012C10.6295 5.76736 10.6577 5.65141 10.6541 5.53418C10.6504 5.41699 10.6152 5.30313 10.5525 5.2041L8.51733 2.30469C8.45792 2.21089 8.3755 2.13334 8.27808 2.08008C8.18057 2.02682 8.07081 1.9993 7.95972 2C7.84861 2.00071 7.73916 2.02948 7.64233 2.08398C7.54557 2.13848 7.46424 2.21695 7.40601 2.31152L5.44409 5.21094H5.44312C5.38194 5.31022 5.34794 5.42442 5.34546 5.54102C5.34306 5.6574 5.37171 5.7724 5.42847 5.87402C5.48537 5.97582 5.56907 6.06116 5.66968 6.12012C5.77008 6.17884 5.88441 6.21002 6.00073 6.20996Z" fill="currentColor"/>
</svg>
