<svg width="16" height="16" viewBox="0 0 16 16" fill="currentColor" xmlns="http://www.w3.org/2000/svg">
<path d="M6.7999 5.132L4.7617 6.8H2.5999V9.2H4.7617L6.7999 10.868V5.132ZM4.3333 10.4H1.9999C1.84077 10.4 1.68816 10.3368 1.57564 10.2243C1.46312 10.1117 1.3999 9.95913 1.3999 9.8V6.2C1.3999 6.04087 1.46312 5.88826 1.57564 5.77574C1.68816 5.66321 1.84077 5.6 1.9999 5.6H4.3333L7.5097 3.0008C7.55365 2.96477 7.60693 2.94196 7.66334 2.93504C7.71975 2.92811 7.77697 2.93735 7.82833 2.96168C7.87969 2.98601 7.92309 3.02443 7.95346 3.07246C7.98384 3.12049 7.99994 3.17617 7.9999 3.233V12.767C7.99994 12.8238 7.98384 12.8795 7.95346 12.9275C7.92309 12.9756 7.87969 13.014 7.82833 13.0383C7.77697 13.0627 7.71975 13.0719 7.66334 13.065C7.60693 13.058 7.55365 13.0352 7.5097 12.9992L4.3339 10.4H4.3333ZM13.0483 8L15.1699 10.1216L14.3215 10.97L12.1999 8.8484L10.0783 10.97L9.2299 10.1216L11.3515 8L9.2299 5.8784L10.0783 5.03L12.1999 7.1516L14.3215 5.03L15.1699 5.8784L13.0483 8Z" fill="#8CA0C3"/>
</svg>
