<svg width="16" height="16" viewBox="0 0 16 16" fill="currentColor" xmlns="http://www.w3.org/2000/svg">
<path d="M6.7999 5.132L4.7617 6.8H2.5999V9.2H4.7617L6.7999 10.868V5.132ZM4.3333 10.4H1.9999C1.84077 10.4 1.68816 10.3368 1.57564 10.2243C1.46312 10.1117 1.3999 9.95913 1.3999 9.8V6.2C1.3999 6.04087 1.46312 5.88826 1.57564 5.77574C1.68816 5.66321 1.84077 5.6 1.9999 5.6H4.3333L7.5097 3.0008C7.55365 2.96477 7.60693 2.94196 7.66334 2.93504C7.71975 2.92811 7.77697 2.93735 7.82833 2.96168C7.87969 2.98601 7.92308 3.02443 7.95346 3.07246C7.98383 3.12049 7.99994 3.17617 7.9999 3.233V12.767C7.99994 12.8238 7.98383 12.8795 7.95346 12.9275C7.92308 12.9756 7.87969 13.014 7.82833 13.0383C7.77697 13.0627 7.71975 13.0719 7.66334 13.065C7.60693 13.058 7.55365 13.0352 7.5097 12.9992L4.3339 10.4H4.3333ZM12.4435 12.8804L11.5939 12.0308C12.1627 11.5247 12.6177 10.9038 12.929 10.209C13.2403 9.51423 13.4008 8.76134 13.3999 8C13.4006 7.19966 13.2231 6.40919 12.8802 5.68602C12.5373 4.96286 12.0376 4.32514 11.4175 3.8192L12.2695 2.9672C13.0006 3.58613 13.5878 4.35709 13.9903 5.22632C14.3928 6.09554 14.6009 7.04211 14.5999 8C14.5999 9.9338 13.7683 11.6732 12.4435 12.8804ZM10.3177 10.7546L9.4645 9.9014C9.75578 9.67742 9.99165 9.38944 10.1538 9.05974C10.316 8.73004 10.4002 8.36744 10.3999 8C10.3999 7.142 9.9499 6.389 9.2719 5.9648L10.1353 5.1014C10.5898 5.43571 10.9592 5.87231 11.2136 6.37587C11.468 6.87943 11.6004 7.43581 11.5999 8C11.5999 9.1052 11.1019 10.094 10.3177 10.7546Z" fill="#8CA0C3"/>
</svg>
