<svg width="13" height="12" viewBox="0 0 13 12" fill="none" xmlns="http://www.w3.org/2000/svg">
<path d="M10.2632 5.05263L13 12H11.6596L10.9125 10.1053H8.36852L7.62273 12H6.28292L9.01914 5.05263H10.2632ZM4.97608 0V1.26316H8.70813V2.52632H7.48402C7.00421 3.99289 6.23843 5.34633 5.23234 6.50589C5.681 6.91238 6.16765 7.27346 6.68536 7.584L6.21823 8.7701C5.54989 8.38521 4.92482 7.92757 4.35407 7.40526C3.2429 8.42637 1.92701 9.19086 0.496986 9.64611L0.163589 8.42779C1.38885 8.0311 2.51791 7.37642 3.47703 6.50653C2.76713 5.69049 2.17583 4.77554 1.7211 3.78947H3.1144C3.46108 4.43928 3.87678 5.04859 4.35407 5.60653C5.13164 4.69648 5.74445 3.65388 6.16411 2.52695L0 2.52632V1.26316H3.73206V0H4.97608ZM9.64115 6.87474L8.8655 8.8421H10.4156L9.64115 6.87474Z" fill="currentColor"/>
</svg>
