<svg width="12" height="12" viewBox="0 0 12 12" fill="none" xmlns="http://www.w3.org/2000/svg">
<path d="M1.76471 8.21053V9.47368C1.76461 9.79236 1.87671 10.0993 2.07853 10.333C2.28035 10.5666 2.55697 10.7098 2.85294 10.7337L2.94118 10.7368H4.70588V12H2.94118C2.31714 12 1.71866 11.7338 1.2774 11.2601C0.836134 10.7863 0.588235 10.1437 0.588235 9.47368V8.21053H1.76471ZM9.41177 5.05263L12 12H10.7324L10.0259 10.1053H7.62L6.91471 12H5.64765L8.23529 5.05263H9.41177ZM8.82353 6.87474L8.09 8.8421H9.55588L8.82353 6.87474ZM3.52941 0V1.26316H5.88235V5.68421H3.52941V7.57895H2.35294V5.68421H0V1.26316H2.35294V0H3.52941ZM8.82353 0.631579C9.44757 0.631579 10.046 0.897743 10.4873 1.37152C10.9286 1.8453 11.1765 2.48787 11.1765 3.15789V4.42105H10V3.15789C10 2.82288 9.87605 2.5016 9.65542 2.26471C9.43479 2.02782 9.13555 1.89474 8.82353 1.89474H7.05882V0.631579H8.82353ZM2.35294 2.52632H1.17647V4.42105H2.35294V2.52632ZM4.70588 2.52632H3.52941V4.42105H4.70588V2.52632Z" fill="currentColor"/>
</svg>
