<svg width="59" height="16" viewBox="0 0 59 16" fill="currentColor" xmlns="http://www.w3.org/2000/svg">
<path d="M57.1735 3.22C56.7049 3.22 56.3122 3.07434 55.9955 2.783C55.6915 2.479 55.5396 2.10534 55.5396 1.662C55.5396 1.21867 55.6915 0.851337 55.9955 0.560004C56.3122 0.256004 56.7049 0.104004 57.1735 0.104004C57.6422 0.104004 58.0285 0.256004 58.3326 0.560004C58.6492 0.851337 58.8075 1.21867 58.8075 1.662C58.8075 2.10534 58.6492 2.479 58.3326 2.783C58.0285 3.07434 57.6422 3.22 57.1735 3.22ZM58.4846 4.474V15H55.8246V4.474H58.4846Z" fill="white"/>
<path d="M42.2637 9.69898C42.2637 8.63498 42.4727 7.69131 42.8907 6.86798C43.3213 6.04465 43.8977 5.41131 44.6197 4.96798C45.3543 4.52465 46.1713 4.30298 47.0707 4.30298C47.856 4.30298 48.54 4.46131 49.1227 4.77798C49.718 5.09465 50.193 5.49365 50.5477 5.97498V4.47398H53.2267V15H50.5477V13.461C50.2057 13.955 49.7307 14.3666 49.1227 14.696C48.5273 15.0126 47.837 15.171 47.0517 15.171C46.165 15.171 45.3543 14.943 44.6197 14.487C43.8977 14.031 43.3213 13.3913 42.8907 12.568C42.4727 11.732 42.2637 10.7756 42.2637 9.69898ZM50.5477 9.73698C50.5477 9.09098 50.421 8.53998 50.1677 8.08398C49.9143 7.61531 49.5723 7.26065 49.1417 7.01998C48.711 6.76664 48.2487 6.63998 47.7547 6.63998C47.2607 6.63998 46.8047 6.76031 46.3867 7.00098C45.9687 7.24165 45.6267 7.59631 45.3607 8.06498C45.1073 8.52098 44.9807 9.06564 44.9807 9.69898C44.9807 10.3323 45.1073 10.8896 45.3607 11.371C45.6267 11.8396 45.9687 12.2006 46.3867 12.454C46.8173 12.7073 47.2733 12.834 47.7547 12.834C48.2487 12.834 48.711 12.7136 49.1417 12.473C49.5723 12.2196 49.9143 11.865 50.1677 11.409C50.421 10.9403 50.5477 10.383 50.5477 9.73698Z" fill="white"/>
<path d="M39.1901 15.1331C38.7088 15.1331 38.3098 14.9874 37.9931 14.6961C37.6891 14.3921 37.5371 14.0184 37.5371 13.5751C37.5371 13.1318 37.6891 12.7644 37.9931 12.4731C38.3098 12.1691 38.7088 12.0171 39.1901 12.0171C39.6588 12.0171 40.0451 12.1691 40.3491 12.4731C40.6531 12.7644 40.8051 13.1318 40.8051 13.5751C40.8051 14.0184 40.6531 14.3921 40.3491 14.6961C40.0451 14.9874 39.6588 15.1331 39.1901 15.1331Z" fill="white"/>
<path d="M36.0706 9.50898C36.0706 9.88898 36.0452 10.231 35.9946 10.535H28.2996C28.3629 11.295 28.6289 11.8903 29.0976 12.321C29.5662 12.7516 30.1426 12.967 30.8266 12.967C31.8146 12.967 32.5176 12.5426 32.9356 11.694H35.8046C35.5006 12.7073 34.9179 13.5433 34.0566 14.202C33.1952 14.848 32.1376 15.171 30.8836 15.171C29.8702 15.171 28.9582 14.9493 28.1476 14.506C27.3496 14.05 26.7226 13.4103 26.2666 12.587C25.8232 11.7636 25.6016 10.8136 25.6016 9.73698C25.6016 8.64764 25.8232 7.69131 26.2666 6.86798C26.7099 6.04465 27.3306 5.41131 28.1286 4.96798C28.9266 4.52465 29.8449 4.30298 30.8836 4.30298C31.8842 4.30298 32.7772 4.51831 33.5626 4.94898C34.3606 5.37965 34.9749 5.99398 35.4056 6.79198C35.8489 7.57731 36.0706 8.48298 36.0706 9.50898ZM33.3156 8.74898C33.3029 8.06498 33.0559 7.52031 32.5746 7.11498C32.0932 6.69698 31.5042 6.48798 30.8076 6.48798C30.1489 6.48798 29.5916 6.69065 29.1356 7.09598C28.6922 7.48865 28.4199 8.03965 28.3186 8.74898H33.3156Z" fill="white"/>
<path d="M19.3005 12.5491L21.9605 4.47412H24.7915L20.8965 15.0001H17.6665L13.7905 4.47412H16.6405L19.3005 12.5491Z" fill="white"/>
<path d="M9.4429 12.473H4.1609L3.2869 15H0.493896L5.2629 1.71899H8.3599L13.1289 15H10.3169L9.4429 12.473ZM8.7209 10.345L6.8019 4.797L4.8829 10.345H8.7209Z" fill="white"/>
</svg>
