<?xml version="1.0" standalone="no"?><!DOCTYPE svg PUBLIC "-//W3C//DTD SVG 1.1//EN" "http://www.w3.org/Graphics/SVG/1.1/DTD/svg11.dtd"><svg t="1761806543573" class="icon" viewBox="0 0 1024 1024" version="1.1" xmlns="http://www.w3.org/2000/svg" p-id="14966" xmlns:xlink="http://www.w3.org/1999/xlink" width="200" height="200"><path d="M215.481725 411.065725l472.525804 472.545883H197.491451a54.432627 54.432627 0 0 1-44.252863-22.046118l-2.007843-3.011765a55.316078 55.316078 0 0 1-3.875137-52.043294l57.825882-131.092078v-187.01051c0-26.503529 3.573961-52.464941 10.300235-77.342118z m288.527059-298.566274c55.918431 0 102.199216 42.405647 106.034196 96.376471 113.744314 44.333176 192.793098 156.149961 192.793098 279.531921v187.01051l57.825883 131.112157c7.710118 15.400157 5.782588 36.60298-3.855059 52.043294-9.637647 15.420235-26.985412 25.057882-46.260706 25.057882h-8.975059l-551.755294-551.795451a300.815059 300.815059 0 0 1 141.894275-120.470588l6.26447-2.489725c5.782588-53.970824 50.135843-96.376471 106.034196-96.376471z m0 896.441725c53.990902 0 96.396549-42.405647 96.396549-96.37647h-192.793098c0 53.970824 42.425725 96.376471 96.396549 96.37647z" fill="#3F80F7" p-id="14967"></path><path d="M-0.005837 85.179732m28.39519-28.39519l28.395189-28.395189q28.39519-28.39519 56.79038 0l866.053294 866.053293q28.39519 28.39519 0 56.79038l-28.39519 28.39519q-28.39519 28.39519-56.79038 0l-866.053293-866.053294q-28.39519-28.39519 0-56.79038Z" fill="#3F80F7" p-id="14968"></path></svg>