<svg width="13" height="17" viewBox="0 0 13 17" fill="none" xmlns="http://www.w3.org/2000/svg">
<path d="M0 14.175V12.6H1.05V7.35C1.05 6.08125 1.4401 4.96563 2.22031 4.00313C3.00052 3.04063 4.01042 2.44271 5.25 2.20938V1.05C5.25 0.758333 5.35208 0.510417 5.55625 0.30625C5.76042 0.102083 6.00833 0 6.3 0C6.59167 0 6.83958 0.102083 7.04375 0.30625C7.24792 0.510417 7.35 0.758333 7.35 1.05V2.20938C8.58958 2.44271 9.59948 3.04063 10.3797 4.00313C11.1599 4.96563 11.55 6.08125 11.55 7.35V12.6H12.6V14.175H0ZM6.29541 16.8C5.86097 16.8 5.49063 16.6458 5.18438 16.3373C4.87813 16.0289 4.725 15.6581 4.725 15.225H7.875C7.875 15.6625 7.72034 16.0344 7.41103 16.3406C7.10172 16.6469 6.72984 16.8 6.29541 16.8Z" fill="currentColor"/>
</svg>
