<svg width="16" height="16" viewBox="0 0 16 16" fill="none" xmlns="http://www.w3.org/2000/svg">
<g clip-path="url(#clip0_5075_172277)">
<path d="M14.6563 7.25455C14.2882 7.25455 13.9897 6.95596 13.9897 6.58792C13.9897 4.71793 13.2616 2.9606 11.9396 1.63785C11.679 1.37723 11.679 0.955963 11.9396 0.695221C12.2002 0.434601 12.6216 0.434601 12.8822 0.695221C14.4563 2.2692 15.3229 4.36197 15.3229 6.58792C15.3229 6.95596 15.0243 7.25455 14.6563 7.25455Z" fill="#3F80F7"/>
<path d="M1.32288 7.25455C0.954956 7.25455 0.65625 6.95596 0.65625 6.58792C0.65625 4.36197 1.52295 2.2692 3.09692 0.695221C3.35754 0.434601 3.77893 0.434601 4.03955 0.695221C4.30029 0.955963 4.30029 1.37723 4.03955 1.63785C2.71753 2.95987 1.98962 4.71793 1.98962 6.58792C1.98962 6.95596 1.69092 7.25455 1.32288 7.25455Z" fill="#3F80F7"/>
<path d="M10.6562 13.3333C10.6562 14.806 9.4624 15.9999 7.98962 15.9999C6.51685 15.9999 5.32288 14.806 5.32288 13.3333C5.32288 11.8605 6.51685 10.6665 7.98962 10.6665C9.4624 10.6665 10.6562 11.8605 10.6562 13.3333Z" fill="#3F80F7"/>
<path d="M7.98962 2.66663C7.62158 2.66663 7.32288 2.36804 7.32288 2V0.666626C7.32288 0.298706 7.62158 0 7.98962 0C8.35754 0 8.65625 0.298706 8.65625 0.666626V2C8.65625 2.36804 8.35754 2.66663 7.98962 2.66663Z" fill="#3F80F7"/>
<path d="M14.2423 11.2745C13.2343 10.4225 12.6562 9.17786 12.6562 7.85852V5.99988C12.6562 3.42651 10.5623 1.33325 7.98962 1.33325C5.41687 1.33325 3.32288 3.42651 3.32288 5.99988V7.85852C3.32288 9.17786 2.74487 10.4232 1.73096 11.2805C1.47156 11.5018 1.32288 11.8252 1.32288 12.1665C1.32288 12.8099 1.84619 13.3333 2.48962 13.3333H13.4896C14.1329 13.3333 14.6562 12.8099 14.6562 12.1665C14.6562 11.8252 14.5076 11.5018 14.2423 11.2745Z" fill="#3F80F7"/>
</g>
<defs>
<clipPath id="clip0_5075_172277">
<rect width="16" height="16" fill="white"/>
</clipPath>
</defs>
</svg>
