<svg width="12" height="11" viewBox="0 0 12 11" fill="none" xmlns="http://www.w3.org/2000/svg">
<path d="M10.4646 5.57869L9.08407 7.00293C9.08282 7.00421 9.08028 7.00686 9.07488 7.00686C9.06947 7.00686 9.06691 7.00419 9.06566 7.00293L9.03666 6.973C9.1783 6.69321 9.20101 6.36567 9.10518 6.0704C9.12327 6.06298 9.14156 6.05602 9.16006 6.05018C9.64792 5.89646 10.0986 5.61628 10.4634 5.23994C11.655 4.0106 11.691 2.04743 10.5437 0.863799C10.5272 0.846751 10.5104 0.829922 10.4934 0.813165C9.93518 0.264828 9.19353 -0.0233079 8.40429 0.00147542C7.62129 0.0262102 6.87904 0.35722 6.31422 0.933565C5.93 1.32559 5.64899 1.81269 5.50156 2.34219C5.50095 2.34435 5.5002 2.34646 5.49957 2.34861C5.20152 2.24473 4.86929 2.27397 4.59051 2.43618L4.57408 2.41923C3.68299 1.49987 2.23293 1.49985 1.34174 2.41923L0 3.80348L1.53538 5.3875L2.91591 3.96326C2.91715 3.96198 2.91969 3.95933 2.9251 3.95933C2.93051 3.95933 2.93307 3.96198 2.93431 3.96326L3.04206 4.07442C2.92188 4.34408 2.90785 4.65203 2.99978 4.93071C2.9962 4.93185 2.9927 4.93316 2.98911 4.93423C2.47579 5.08632 2.00364 5.37625 1.62367 5.77261C1.06504 6.35536 0.744162 7.12112 0.72021 7.92888C0.696069 8.74278 0.975456 9.5082 1.50701 10.0841C1.52323 10.1017 1.53954 10.119 1.556 10.1359C2.11547 10.7131 2.85444 11 3.60316 11C4.38992 11 5.18734 10.6831 5.79792 10.0532C6.16271 9.67683 6.43426 9.21189 6.58329 8.70856C6.5894 8.68795 6.59671 8.66758 6.60461 8.64748C6.7207 8.68783 6.84194 8.70822 6.96323 8.70822C7.1356 8.70822 7.30787 8.66717 7.46533 8.58566C7.90576 9.01913 8.4737 9.2365 9.04206 9.2365C9.62733 9.2365 10.2127 9.00667 10.6582 8.54699L12 7.16273L10.4646 5.57869ZM6.81012 1.45079C7.24781 1.00418 7.82163 0.74769 8.42589 0.72863C9.02472 0.709327 9.58652 0.926848 10.0071 1.33999C10.0199 1.35258 10.0325 1.36521 10.045 1.37811C10.4648 1.81121 10.6888 2.39677 10.6757 3.02693C10.6625 3.66295 10.41 4.26619 9.96477 4.72553C9.68134 5.01791 9.33186 5.23538 8.95406 5.35443C8.86149 5.3836 8.77229 5.4231 8.68863 5.47015L8.22416 4.99097C8.40368 4.86121 8.60293 4.75844 8.79453 4.70021C9.06341 4.61852 9.31165 4.46589 9.51236 4.25882C9.83784 3.92303 10.0183 3.46297 10.0075 2.99652C9.997 2.54603 9.8154 2.13315 9.49614 1.83394C9.20301 1.55919 8.817 1.4108 8.41204 1.41781C8.01097 1.42411 7.62414 1.58082 7.32284 1.85906C7.08436 2.07927 6.91173 2.36055 6.82359 2.67242C6.7648 2.88029 6.67078 3.07926 6.54702 3.26075L6.0857 2.78482C6.13055 2.69585 6.16014 2.61189 6.17932 2.54305C6.29349 2.13303 6.5116 1.75537 6.81012 1.45079ZM7.05121 3.78086C7.25555 3.5079 7.40887 3.20041 7.50057 2.87607C7.55181 2.6948 7.65298 2.53054 7.79317 2.40109C8.14892 2.07258 8.6887 2.05999 9.02199 2.37238C9.19708 2.53648 9.29672 2.76433 9.3025 3.01393C9.30876 3.2824 9.2035 3.54864 9.01376 3.74441C8.89616 3.86571 8.75149 3.95492 8.59532 4.00235C8.29231 4.09443 7.98617 4.25947 7.71969 4.4705L7.05121 3.78086ZM5.43208 3.13928L8.33786 6.13709C8.49887 6.3032 8.49887 6.57349 8.33786 6.7396C8.17685 6.90571 7.91485 6.90571 7.75384 6.7396L4.84806 3.74179C4.68705 3.57568 4.68705 3.30539 4.84806 3.13928C5.00908 2.97317 5.27107 2.97317 5.43208 3.13928ZM2.9251 3.23184C2.73325 3.23184 2.55289 3.30893 2.41729 3.44885L1.53538 4.35866L0.997222 3.80348L1.84037 2.93364C2.45661 2.29791 3.45926 2.29793 4.07546 2.93364L4.11681 2.9763C4.05877 3.1129 4.02758 3.25871 4.02328 3.40532C3.85108 3.41071 3.67998 3.45673 3.52463 3.5435L3.43291 3.44888C3.29729 3.30893 3.11693 3.23184 2.9251 3.23184ZM5.29928 9.53876C4.85403 9.99809 4.26931 10.2586 3.65278 10.2722C3.04155 10.2853 2.4744 10.0546 2.0545 9.62142C2.04209 9.60862 2.02982 9.59567 2.01767 9.5825C1.61716 9.14853 1.40671 8.5692 1.42505 7.95119C1.44355 7.3278 1.69214 6.73582 2.12504 6.28424C2.42025 5.97629 2.78635 5.75127 3.1838 5.63349C3.25178 5.61334 3.33497 5.58206 3.42302 5.53429L3.88377 6.00963C3.70668 6.13888 3.51229 6.237 3.30918 6.29813C3.00683 6.38909 2.73419 6.56721 2.52076 6.81322C2.25105 7.12406 2.09916 7.52311 2.09307 7.93689C2.08687 8.3557 2.23013 8.75292 2.49643 9.05534C2.78646 9.3847 3.18665 9.57203 3.62331 9.58282C3.63617 9.58313 3.649 9.5833 3.66183 9.5833C4.10068 9.5833 4.53067 9.39828 4.84689 9.07204C5.04763 8.86495 5.19557 8.60887 5.27474 8.3315C5.33162 8.13222 5.43241 7.92493 5.55965 7.73857L6.02365 8.21726C5.97687 8.30497 5.93766 8.39872 5.90885 8.49604C5.79346 8.88581 5.58266 9.24638 5.29928 9.53876ZM5.05529 7.21822C4.84919 7.49416 4.68804 7.81171 4.59832 8.12596C4.55234 8.28703 4.46586 8.43629 4.34827 8.55761C4.15853 8.75335 3.90013 8.86235 3.64021 8.85552C3.39827 8.84953 3.17743 8.74678 3.01837 8.56614C2.71555 8.22226 2.72777 7.66538 3.0462 7.29839C3.17167 7.15376 3.33088 7.04937 3.50663 6.9965C3.82266 6.90139 4.12221 6.7421 4.38785 6.52962L5.05529 7.21822ZM6.6712 7.85647L3.76542 4.85869C3.60441 4.69258 3.60441 4.42229 3.76542 4.25618C3.92644 4.09007 4.18843 4.09007 4.34944 4.25618L7.25522 7.25399C7.41623 7.4201 7.41623 7.69039 7.25522 7.85647C7.09421 8.02256 6.83221 8.02258 6.6712 7.85647ZM10.1596 8.03255C9.55618 8.65509 8.58241 8.66756 7.96365 8.07091C8.03546 7.92299 8.07561 7.75989 8.0805 7.59045C8.23444 7.58558 8.3875 7.54821 8.52922 7.47827L8.56706 7.51731C8.70271 7.65726 8.88305 7.73433 9.07488 7.73433C9.26673 7.73433 9.44709 7.65726 9.58269 7.51731L10.4646 6.60751L11.0028 7.16269L10.1596 8.03255Z" fill="currentColor"/>
</svg>
