<svg width="10" height="12" viewBox="0 0 10 12" fill="none" xmlns="http://www.w3.org/2000/svg">
<path d="M4.21053 6.54545C5.95458 6.54545 7.36842 5.0802 7.36842 3.27273C7.36842 1.46525 5.95458 0 4.21053 0C2.46647 0 1.05263 1.46525 1.05263 3.27273C1.05263 5.0802 2.46647 6.54545 4.21053 6.54545ZM5.78947 9.27273C5.78947 8.36896 6.49637 7.63636 7.36842 7.63636C7.61216 7.63636 7.84305 7.69364 8.04916 7.79586L5.94337 9.97822C5.84474 9.76462 5.78947 9.52533 5.78947 9.27273ZM6.68768 10.7496L8.79347 8.56724C8.89211 8.78084 8.94737 9.02013 8.94737 9.27273C8.94737 10.1765 8.24047 10.9091 7.36842 10.9091C7.12468 10.9091 6.89379 10.8518 6.68768 10.7496ZM7.36842 6.54545C5.91505 6.54545 4.73684 7.76651 4.73684 9.27273C4.73684 10.7789 5.91505 12 7.36842 12C8.82179 12 10 10.7789 10 9.27273C10 7.76651 8.82179 6.54545 7.36842 6.54545ZM4.21053 7.09091C4.25489 7.09091 4.29911 7.09162 4.34316 7.09304C3.92779 7.71109 3.68421 8.46245 3.68421 9.27273C3.68421 10.0839 3.92832 10.8361 4.34458 11.4545H0C0 9.04456 1.88512 7.09091 4.21053 7.09091Z" fill="currentColor"/>
</svg>
