<svg width="18" height="12" viewBox="0 0 18 12" fill="currentColor" xmlns="http://www.w3.org/2000/svg">
<path d="M4 2V0H18V2H4ZM4 7V5H18V7H4ZM4 12V10H18V12H4ZM1 2C0.716667 2 0.479167 1.90417 0.2875 1.7125C0.0958333 1.52083 0 1.28333 0 1C0 0.716667 0.0958333 0.479167 0.2875 0.2875C0.479167 0.0958334 0.716667 0 1 0C1.28333 0 1.52083 0.0958334 1.7125 0.2875C1.90417 0.479167 2 0.716667 2 1C2 1.28333 1.90417 1.52083 1.7125 1.7125C1.52083 1.90417 1.28333 2 1 2ZM1 7C0.716667 7 0.479167 6.90417 0.2875 6.7125C0.0958333 6.52083 0 6.28333 0 6C0 5.71667 0.0958333 5.47917 0.2875 5.2875C0.479167 5.09583 0.716667 5 1 5C1.28333 5 1.52083 5.09583 1.7125 5.2875C1.90417 5.47917 2 5.71667 2 6C2 6.28333 1.90417 6.52083 1.7125 6.7125C1.52083 6.90417 1.28333 7 1 7ZM1 12C0.716667 12 0.479167 11.9042 0.2875 11.7125C0.0958333 11.5208 0 11.2833 0 11C0 10.7167 0.0958333 10.4792 0.2875 10.2875C0.479167 10.0958 0.716667 10 1 10C1.28333 10 1.52083 10.0958 1.7125 10.2875C1.90417 10.4792 2 10.7167 2 11C2 11.2833 1.90417 11.5208 1.7125 11.7125C1.52083 11.9042 1.28333 12 1 12Z" fill="#566275"/>
</svg>
