<svg width="14" height="14" viewBox="0 0 14 14" fill="none" xmlns="http://www.w3.org/2000/svg">
<g clip-path="url(#clip0_13209_81822)">
<path d="M9.33336 10.2666C10.3643 10.2666 11.2 11.1024 11.2 12.1334C11.2 13.1643 10.3643 14 9.33336 14C8.30244 14 7.46664 13.1643 7.46664 12.1334C7.46664 11.1024 8.30244 10.2666 9.33336 10.2666ZM2.8 5.6C4.34639 5.6 5.6 6.85361 5.6 8.4C5.6 9.94639 4.34639 11.2 2.8 11.2C1.25361 11.2 0 9.94639 0 8.4C0 6.85361 1.25361 5.6 2.8 5.6ZM9.8 0C12.1196 0 14 1.88038 14 4.2C14 6.51963 12.1196 8.4 9.8 8.4C7.48037 8.4 5.6 6.51963 5.6 4.2C5.6 1.88038 7.48037 0 9.8 0Z" fill="currentColor"/>
</g>
<defs>
<clipPath id="clip0_13209_81822">
<rect width="14" height="14" fill="white"/>
</clipPath>
</defs>
</svg>
