<svg width="11" height="12" viewBox="0 0 11 12" fill="none" xmlns="http://www.w3.org/2000/svg">
<path d="M5.49989 4.4419e-09C6.5469 -4.16832e-05 7.57217 0.293349 8.45521 0.845694C9.33825 1.39804 10.0424 2.18638 10.4848 3.11809C10.9272 4.04979 11.0896 5.08613 10.9529 6.10532C10.8161 7.12451 10.3859 8.0842 9.7128 8.8716C10.4797 9.3696 10.9552 10.0056 10.9967 10.701L10.9998 10.8L5.49989 12L6.09418e-06 10.8L0.00306166 10.701C0.0440052 10.005 0.520051 9.369 1.28637 8.871C0.453748 7.89935 -0.00192206 6.66981 6.09418e-06 5.4C6.09418e-06 3.96783 0.579456 2.59432 1.61088 1.58162C2.64231 0.568927 4.04123 4.4419e-09 5.49989 4.4419e-09ZM5.49989 1.2C4.36538 1.2 3.27733 1.6425 2.47511 2.43015C1.67289 3.2178 1.2222 4.28609 1.2222 5.4C1.2222 6.3402 1.53631 7.23 2.10524 7.9566L2.22257 8.1L3.10439 9.1302L1.90541 9.9096L1.82169 9.9678L5.49989 10.7706L9.17748 9.9678L9.14754 9.9462L9.03876 9.8724L7.89539 9.1302L8.77721 8.0994C9.42515 7.34398 9.77957 6.38761 9.77758 5.4C9.77758 4.28609 9.32689 3.2178 8.52467 2.43015C7.72245 1.6425 6.6344 1.2 5.49989 1.2ZM5.49989 6.6C6.34321 6.6 7.02764 7.0032 7.02764 7.5C7.02764 7.9968 6.34321 8.4 5.49989 8.4C4.65657 8.4 3.97214 7.9968 3.97214 7.5C3.97214 7.0032 4.65657 6.6 5.49989 6.6ZM3.6666 3.6C4.34186 3.6 4.88879 4.0032 4.88879 4.5C4.88879 4.9968 4.34186 5.4 3.6666 5.4C2.99133 5.4 2.4444 4.9968 2.4444 4.5C2.4444 4.0032 2.99133 3.6 3.6666 3.6ZM7.33318 3.6C8.00845 3.6 8.55538 4.0032 8.55538 4.5C8.55538 4.9968 8.00845 5.4 7.33318 5.4C6.65792 5.4 6.11099 4.9968 6.11099 4.5C6.11099 4.0032 6.65792 3.6 7.33318 3.6Z" fill="currentColor"/>
</svg>
