<svg width="13" height="12" viewBox="0 0 13 12" fill="none" xmlns="http://www.w3.org/2000/svg">
<path d="M11.0835 7.86153C11.4867 6.93665 11.5795 5.91302 11.3489 4.93457C11.1182 3.95613 10.5757 3.07206 9.79765 2.40667C9.01956 1.74128 8.04502 1.32804 7.01104 1.22503C5.97705 1.12202 4.93563 1.33443 4.03318 1.8324L3.4167 0.790356C4.35983 0.27 5.42782 -0.00250897 6.51411 1.74074e-05C7.6004 0.00254378 8.66702 0.280018 9.60753 0.804754C12.3978 2.35973 13.4667 5.68925 12.166 8.46564L13 8.92998L10.4117 10.2582L10.3091 7.43019L11.0835 7.86153ZM1.91716 4.13847C1.51393 5.06336 1.42111 6.08698 1.65175 7.06543C1.88239 8.04387 2.42489 8.92794 3.20297 9.59333C3.98106 10.2587 4.9556 10.672 5.98958 10.775C7.02357 10.878 8.065 10.6656 8.96745 10.1676L9.58392 11.2096C8.64079 11.73 7.57281 12.0025 6.48651 12C5.40022 11.9975 4.3336 11.72 3.39309 11.1952C0.602801 9.64027 -0.466083 6.31076 0.8346 3.53436L0 3.07063L2.58832 1.74242L2.69086 4.57041L1.91654 4.13907L1.91716 4.13847ZM4.32525 7.19983H7.7432C7.82561 7.19983 7.90464 7.16822 7.96291 7.11197C8.02119 7.05572 8.05392 6.97942 8.05392 6.89987C8.05392 6.82032 8.02119 6.74402 7.96291 6.68777C7.90464 6.63152 7.82561 6.59991 7.7432 6.59991H5.25742C4.84538 6.59991 4.45021 6.4419 4.15885 6.16064C3.86749 5.87937 3.70381 5.4979 3.70381 5.10013C3.70381 4.70236 3.86749 4.32089 4.15885 4.03962C4.45021 3.75836 4.84538 3.60035 5.25742 3.60035H5.87887V3.00044H7.12176V3.60035H8.67537V4.80017H5.25742C5.17501 4.80017 5.09598 4.83178 5.03771 4.88803C4.97944 4.94428 4.9467 5.02058 4.9467 5.10013C4.9467 5.17968 4.97944 5.25598 5.03771 5.31223C5.09598 5.36848 5.17501 5.40009 5.25742 5.40009H7.7432C8.15524 5.40009 8.55041 5.5581 8.84177 5.83936C9.13313 6.12063 9.29681 6.5021 9.29681 6.89987C9.29681 7.29764 9.13313 7.67911 8.84177 7.96038C8.55041 8.24164 8.15524 8.39965 7.7432 8.39965H7.12176V8.99957H5.87887V8.39965H4.32525V7.19983Z" fill="currentColor"/>
</svg>
