<svg width="16" height="16" viewBox="0 0 16 16" fill="none" xmlns="http://www.w3.org/2000/svg">
<path d="M2.6 6.79998H13.4V12.8024C13.4 13.1324 13.133 13.4 12.8042 13.4H3.1958C3.11743 13.3999 3.03984 13.3844 2.96747 13.3543C2.89511 13.3242 2.82938 13.2802 2.77404 13.2247C2.71871 13.1692 2.67486 13.1033 2.645 13.0308C2.61513 12.9584 2.59984 12.8807 2.6 12.8024V6.79998ZM6.2 7.99998V9.19998H9.8V7.99998H6.2ZM2 3.19998C2 2.86878 2.273 2.59998 2.5952 2.59998H13.4048C13.7336 2.59998 14 2.86638 14 3.19998V5.59998H2V3.19998Z" fill="currentColor"/>
</svg>
