<svg width="12" height="12" viewBox="0 0 12 12" fill="none" xmlns="http://www.w3.org/2000/svg">
<path d="M3 3V0.6C3 0.44087 3.06321 0.288258 3.17574 0.175736C3.28826 0.0632141 3.44087 0 3.6 0H11.4C11.5591 0 11.7117 0.0632141 11.8243 0.175736C11.9368 0.288258 12 0.44087 12 0.6V8.4C12 8.55913 11.9368 8.71174 11.8243 8.82426C11.7117 8.93679 11.5591 9 11.4 9H9V11.3958C9 11.7294 8.7306 12 8.3958 12H0.6042C0.524833 12.0001 0.44623 11.9845 0.37289 11.9542C0.299549 11.9238 0.232911 11.8793 0.17679 11.8232C0.120669 11.7671 0.0761674 11.7005 0.0458315 11.6271C0.0154955 11.5538 -7.86343e-05 11.4752 2.98536e-07 11.3958L0.00180031 3.6042C0.00180031 3.2706 0.2712 3 0.606 3H3ZM4.2 3H8.3958C8.7294 3 9 3.2694 9 3.6042V7.8H10.8V1.2H4.2V3ZM1.2018 4.2L1.2 10.8H7.8V4.2H1.2018Z" fill="currentColor"/>
</svg>
