<svg width="16" height="16" viewBox="0 0 16 16" xmlns="http://www.w3.org/2000/svg" fill="currentColor" size="16"><path d="M12.8066 0.618251C13.189 0.675314 13.46 1.03348 13.4121 1.41708L13.165 3.39852H14.998C15.3846 3.39852 15.6982 3.71212 15.6982 4.09872C15.6982 4.48527 15.3846 4.79891 14.998 4.79891H12.9902L11.7236 14.9561C11.6758 15.3398 11.3267 15.605 10.9443 15.5479C10.5621 15.4909 10.2912 15.1336 10.3389 14.7501L10.5859 12.7696H4.24512L3.97266 14.9561C3.92481 15.3398 3.57572 15.605 3.19336 15.5479C2.81109 15.4909 2.54022 15.1336 2.58789 14.7501L2.83496 12.7696H1.00195C0.615387 12.7696 0.300834 12.456 0.300781 12.0694C0.300781 11.6828 0.615354 11.3692 1.00195 11.3692H3.00977L3.8291 4.79891H2.11914C1.73257 4.79891 1.419 4.48527 1.41895 4.09872C1.41895 3.71212 1.73254 3.39852 2.11914 3.39852H4.00391L4.27637 1.21005C4.32425 0.826459 4.67332 0.561224 5.05566 0.618251C5.438 0.675314 5.70898 1.03348 5.66113 1.41708L5.41406 3.39852H11.7549L12.0273 1.21005C12.0752 0.826459 12.4243 0.561224 12.8066 0.618251ZM14.5 11.0001C15.3284 11.0001 16 11.6717 16 12.5001C15.9999 13.3285 15.3284 14.0001 14.5 14.0001C13.6716 14.0001 13.0001 13.3285 13 12.5001C13 11.6717 13.6716 11.0001 14.5 11.0001ZM5.23926 4.79891L4.41992 11.3692H10.7607L11.5801 4.79891H5.23926Z"></path></svg>