<svg width="11" height="10" viewBox="0 0 11 10" fill="none" xmlns="http://www.w3.org/2000/svg">
<path d="M1.36366 6.47843V8.18301H3.06825L8.09551 3.15575L6.39093 1.45116L1.36366 6.47843ZM9.4135 1.83762C9.59054 1.66111 9.59093 1.37456 9.41442 1.19765L9.4135 1.19673L8.34981 0.133043C8.1733 -0.0439961 7.88675 -0.0443911 7.70984 0.132122L7.70892 0.133043L6.87716 0.9648L8.58174 2.66938L9.4135 1.83762ZM0.454511 9.09098H10.4544C10.7574 9.09098 10.9089 9.24248 10.9089 9.54549C10.9089 9.8485 10.7574 10 10.4544 10H0.454511C0.151504 10 0 9.8485 0 9.54549C0 9.24248 0.151504 9.09098 0.454511 9.09098Z" fill="currentColor"/>
</svg>
