<svg width="10" height="9" viewBox="0 0 10 9" fill="currentColor" xmlns="http://www.w3.org/2000/svg">
<path d="M6.50012 9.00002C6.37212 9.00002 6.24411 8.95103 6.14661 8.85353C5.95111 8.65803 5.95111 8.342 6.14661 8.1465L7.79309 6.50002H1.50013C1.22363 6.50002 1.00013 6.27602 1.00013 6.00002C1.00013 5.72402 1.22363 5.50002 1.50013 5.50002H9.00012C9.20212 5.50002 9.38516 5.62199 9.46216 5.80849C9.53966 5.99549 9.49664 6.21053 9.35364 6.35353L6.85364 8.85353C6.75614 8.95103 6.62812 9.00002 6.50012 9.00002ZM9.00012 3.50002C9.00012 3.22402 8.77662 3.00002 8.50012 3.00002H2.20716L3.85364 1.35353C4.04914 1.15803 4.04914 0.842003 3.85364 0.646503C3.65814 0.451003 3.34211 0.451003 3.14661 0.646503L0.64661 3.1465C0.50361 3.2895 0.460589 3.50455 0.538089 3.69155C0.615089 3.87855 0.798126 4.00002 1.00013 4.00002H8.50012C8.77662 4.00002 9.00012 3.77602 9.00012 3.50002Z" fill="#666666"/>
</svg>
