<svg width="10" height="9" viewBox="0 0 10 9" fill="none" xmlns="http://www.w3.org/2000/svg">
<path d="M5.00041 0.744432C6.17489 -0.282401 7.98985 -0.248319 9.12133 0.855441C10.2523 1.95969 10.2913 3.71831 9.23933 4.8654L4.99941 9L0.760489 4.8654C-0.291492 3.71831 -0.251992 1.95677 0.878487 0.855441C2.01097 -0.246859 3.82243 -0.283862 5.00041 0.744432ZM8.41335 1.54341C7.66336 0.812109 6.45338 0.782409 5.6684 1.46891L5.00091 2.0522L4.33292 1.4694C3.54544 0.781922 2.33796 0.812109 1.58597 1.54438C0.840987 2.26983 0.803488 3.43105 1.48998 4.19837L4.99991 7.62164L8.50984 4.19886C9.19683 3.43105 9.15933 2.27129 8.41335 1.54341Z" fill="currentColor"/>
</svg>
