<svg width="10" height="10" viewBox="0 0 10 10" fill="none" xmlns="http://www.w3.org/2000/svg">
<path d="M9.92099 0.94348L9.8646 0.696624L9.31746 0.682562L9.30339 0.135412L9.05654 0.0790255C8.45769 -0.0577521 7.61283 -0.0151934 6.79652 0.192834C6.18847 0.347796 5.35179 0.657796 4.58834 1.27206C3.8398 1.29135 2.72892 1.7942 2.1354 2.38774C1.97576 2.54739 1.89777 2.75151 1.90986 2.97809C1.9256 3.27329 2.09763 3.60579 2.42115 3.96636C2.48468 4.03718 2.54769 4.10185 2.60562 4.15858C2.40884 4.77026 2.33892 5.35159 2.35958 5.85458C1.47845 5.79056 0.503959 6.1098 0.159252 6.50089C0.00772889 6.67279 -0.0384235 6.87679 0.0326703 7.06058C0.166635 7.40685 0.534995 7.47296 0.891264 7.53691C1.25673 7.60252 1.67101 7.67685 1.99706 8.00293C2.32312 8.329 2.39748 8.74324 2.46308 9.10873C2.52701 9.46498 2.59314 9.83336 2.93939 9.96732C2.99599 9.98922 3.05453 10 3.11347 10C3.24583 10 3.38015 9.94561 3.4991 9.84074C3.89019 9.49602 4.20945 8.52162 4.14541 7.64041C4.2016 7.64271 4.25876 7.6439 4.31685 7.6439C4.77869 7.64388 5.29814 7.56912 5.84152 7.39431C5.90044 7.45486 5.96853 7.52144 6.04332 7.58853C6.40386 7.91205 6.73638 8.08408 7.03158 8.09982C7.04681 8.10064 7.06195 8.10103 7.07697 8.10103C7.28539 8.10103 7.47302 8.02314 7.62193 7.87423C8.22136 7.27482 8.72834 6.14775 8.7381 5.39917C9.34574 4.63909 9.65304 3.80817 9.80714 3.20346C10.0152 2.38719 10.0577 1.54233 9.92099 0.94348ZM2.56107 2.94343C2.55884 2.90204 2.56816 2.87729 2.59654 2.84889C2.87011 2.57536 3.29865 2.31563 3.72455 2.14131C3.35912 2.58542 3.0783 3.0403 2.86906 3.48852C2.70318 3.29536 2.56884 3.08911 2.56107 2.94343ZM7.1608 7.41316C7.13244 7.44152 7.10765 7.45072 7.06648 7.44865C6.91892 7.44093 6.70759 7.30146 6.51097 7.13111C6.96619 6.91869 7.42826 6.63251 7.87894 6.25878C7.70466 6.6933 7.44001 7.13394 7.1608 7.41316ZM9.17523 3.04243C9.11494 3.27901 9.02847 3.55427 8.90521 3.84534C8.2074 3.75938 7.55785 3.44366 7.0571 2.94288C6.70222 2.58799 6.44363 2.16811 6.28849 1.69489L5.66882 1.89803C5.85613 2.4694 6.16806 2.97608 6.59599 3.40401C7.14507 3.95309 7.84257 4.31757 8.59726 4.45724C8.41656 4.76257 8.1906 5.06818 7.90818 5.35058C7.27546 5.98327 6.53156 6.46156 5.75685 6.73372C5.08628 6.96929 4.39556 7.04732 3.81187 6.95335L3.3247 6.87497L3.44359 7.35386C3.53316 7.71464 3.51716 8.18168 3.39972 8.63513C3.3239 8.92797 3.22861 9.12814 3.1546 9.24377C3.13603 9.16691 3.11906 9.07217 3.10494 8.99349C3.03064 8.57949 2.92886 8.01246 2.45818 7.54177C1.98749 7.07109 1.42046 6.96931 1.00646 6.89501C0.927787 6.88089 0.833061 6.86388 0.756186 6.84535C0.871811 6.77134 1.07199 6.67605 1.36482 6.60023C1.81828 6.48277 2.28529 6.46677 2.64609 6.55636L3.12499 6.67525L3.04662 6.18808C2.95269 5.60441 3.0307 4.91366 3.26624 4.2431C3.53839 3.46839 4.01667 2.72448 4.64939 2.09176C5.40232 1.33883 6.32015 0.987152 6.95757 0.824671C7.65003 0.648187 8.2549 0.627464 8.66488 0.673968L8.68144 1.31844L9.32591 1.335C9.37244 1.74514 9.3517 2.34999 9.17523 3.04243Z" fill="currentColor"/>
</svg>
