<svg width="14" height="14" viewBox="0 0 14 14" fill="none" xmlns="http://www.w3.org/2000/svg">
<circle cx="7" cy="6.99988" r="7" fill="white"/>
<path d="M9.98059 6.49305C9.94861 6.4173 9.87664 6.36681 9.79668 6.36681H7.99753V3.21076C7.99753 3.12239 7.94555 3.04665 7.86959 3.01298C7.79363 2.98353 7.70567 3.00457 7.64969 3.06769L4.05139 7.27995C3.99942 7.34307 3.98342 7.43144 4.01941 7.50719C4.05139 7.58293 4.12336 7.63343 4.20332 7.63343H6.00247V10.7895C6.00247 10.8778 6.05445 10.9536 6.13041 10.9873C6.1544 10.9957 6.17839 10.9999 6.20238 10.9999C6.25835 10.9999 6.31033 10.9746 6.35031 10.9283L9.94861 6.72028C10.0006 6.65716 10.0166 6.56879 9.98059 6.49305Z" fill="#333333"/>
</svg>
