<svg width="17" height="16" viewBox="0 0 17 16" fill="currentColor" xmlns="http://www.w3.org/2000/svg">
<g clip-path="url(#clip0_2298_157079)">
<path d="M7.16667 7.99996C8.63943 7.99996 9.83333 6.80605 9.83333 5.33329C9.83333 3.86053 8.63943 2.66663 7.16667 2.66663C5.69391 2.66663 4.5 3.86053 4.5 5.33329C4.5 6.80605 5.69391 7.99996 7.16667 7.99996Z" fill="#F5F5F5"/>
<path d="M7.61301 8.67996C7.46634 8.67329 7.31967 8.66663 7.16634 8.66663C5.55301 8.66663 4.04634 9.11329 2.75967 9.87996C2.17301 10.2266 1.83301 10.88 1.83301 11.5666V13.3333H8.00634C7.47967 12.58 7.16634 11.66 7.16634 10.6666C7.16634 9.95329 7.33301 9.28663 7.61301 8.67996Z" fill="#F5F5F5"/>
<rect x="9.16699" y="10" width="5.33333" height="1.33333" fill="#F5F5F5"/>
<rect x="11.167" y="13.3334" width="5.33333" height="1.33333" transform="rotate(-90 11.167 13.3334)" fill="#F5F5F5"/>
</g>
<defs>
<clipPath id="clip0_2298_157079">
<rect width="16" height="16" fill="white" transform="translate(0.5)"/>
</clipPath>
</defs>
</svg>
