<svg width="10" height="10" viewBox="0 0 10 10" fill="none" xmlns="http://www.w3.org/2000/svg">
<path d="M0 10C0 8.98965 0.401359 8.02068 1.11578 7.30626C1.83021 6.59184 2.79918 6.19048 3.80952 6.19048C4.81987 6.19048 5.78884 6.59184 6.50326 7.30626C7.21769 8.02068 7.61905 8.98965 7.61905 10H6.66667C6.66667 9.24224 6.36565 8.51551 5.82983 7.97969C5.29401 7.44388 4.56729 7.14286 3.80952 7.14286C3.05176 7.14286 2.32504 7.44388 1.78922 7.97969C1.2534 8.51551 0.952381 9.24224 0.952381 10H0ZM3.80952 5.71429C2.23095 5.71429 0.952381 4.43571 0.952381 2.85714C0.952381 1.27857 2.23095 0 3.80952 0C5.3881 0 6.66667 1.27857 6.66667 2.85714C6.66667 4.43571 5.3881 5.71429 3.80952 5.71429ZM3.80952 4.7619C4.8619 4.7619 5.71429 3.90952 5.71429 2.85714C5.71429 1.80476 4.8619 0.952381 3.80952 0.952381C2.75714 0.952381 1.90476 1.80476 1.90476 2.85714C1.90476 3.90952 2.75714 4.7619 3.80952 4.7619ZM7.75429 6.52524C8.42349 6.82663 8.99142 7.31488 9.3898 7.93129C9.78819 8.5477 10.0001 9.26606 10 10H9.04762C9.04773 9.44951 8.88883 8.91071 8.59004 8.44837C8.29125 7.98603 7.86527 7.61984 7.36333 7.39381L7.75381 6.52524H7.75429ZM7.42667 1.14905C7.90644 1.34681 8.31665 1.68264 8.60525 2.11392C8.89384 2.5452 9.04781 3.0525 9.04762 3.57143C9.04782 4.22492 8.80367 4.85487 8.36312 5.33754C7.92257 5.8202 7.31746 6.1207 6.66667 6.18V5.22143C7.0195 5.1709 7.34683 5.00858 7.60062 4.75831C7.85441 4.50805 8.02128 4.18301 8.07674 3.83092C8.1322 3.47883 8.07332 3.11824 7.90875 2.80207C7.74418 2.48591 7.48259 2.23083 7.16238 2.07429L7.42667 1.14905Z" fill="currentColor"/>
</svg>
