<svg width="9" height="10" viewBox="0 0 9 10" fill="none" xmlns="http://www.w3.org/2000/svg">
<path d="M4.80179 6.09484V7.05606C4.36719 6.90889 3.90207 6.86375 3.44548 6.92443C2.98889 6.98511 2.55417 7.14984 2.17782 7.40478C1.80147 7.65972 1.49448 7.99743 1.28264 8.38956C1.07079 8.78168 0.960271 9.21677 0.960359 9.65828L1.24105e-07 9.65782C-0.00014891 9.09621 0.133932 8.54202 0.39197 8.03771C0.650007 7.5334 1.02515 7.09237 1.48866 6.74839C1.95217 6.40442 2.49173 6.16664 3.06602 6.05328C3.6403 5.93991 4.23406 5.95397 4.80179 6.09438V6.09484ZM3.84143 5.51902C2.24964 5.51902 0.960359 4.28414 0.960359 2.75951C0.960359 1.23488 2.24964 0 3.84143 0C5.43323 0 6.72251 1.23488 6.72251 2.75951C6.72251 4.28414 5.43323 5.51902 3.84143 5.51902ZM3.84143 4.59918C4.90263 4.59918 5.76215 3.77593 5.76215 2.75951C5.76215 1.74309 4.90263 0.919836 3.84143 0.919836C2.78024 0.919836 1.92072 1.74309 1.92072 2.75951C1.92072 3.77593 2.78024 4.59918 3.84143 4.59918ZM6.62311 8.69889L8.32055 7.07308L9 7.7234L6.62311 10L4.9252 8.37373L5.60465 7.7234L6.62263 8.69889H6.62311Z" fill="currentColor"/>
</svg>
