<svg width="12" height="11" viewBox="0 0 12 11" fill="currentColor" xmlns="http://www.w3.org/2000/svg">
<path d="M10.3625 4.41016C10.3625 4.41016 7.48881 7.39214 7.42399 7.41357C7.18038 7.62863 6.80965 7.76283 6.43066 7.34311L4.38973 5.30214C4.38973 5.30214 2.38631 7.36228 2.1726 7.5038C2.00709 7.6478 1.7684 7.68188 1.54387 7.46124C1.46587 7.37293 0.75 6.65063 0.75 6.65063V9.0029C0.75 9.01617 0.75075 9.02929 0.751969 9.04223L0.75 9.0442V9.41203C0.75 9.75088 1.02473 10.015 1.36364 10.015H11.0796C11.4185 10.015 11.6933 9.75088 11.6933 9.41203V5.78054L10.3625 4.41016Z" fill="currentColor"/>
<path d="M1.7659 6.33254C1.61567 6.33254 1.47434 6.27395 1.36817 6.16768L0.934249 5.73386C0.828031 5.62764 0.769531 5.48636 0.769531 5.33612C0.769531 5.18589 0.828078 5.04456 0.934249 4.93834L3.97155 1.901C4.07678 1.79522 4.21994 1.73593 4.36914 1.73633C4.51502 1.73633 4.65273 1.79164 4.75797 1.89228C4.77494 1.90587 4.78923 1.91867 4.80259 1.93198L6.95293 4.08246C8.40525 2.60388 8.95195 2.0517 9.1635 1.84208L8.11603 0.806846C8.04668 0.806881 7.98593 0.760386 7.96784 0.693432C7.94976 0.626478 7.97884 0.555718 8.03878 0.52083C8.09871 0.485941 8.1746 0.495602 8.22389 0.544394L11.5222 0.591269C11.6061 0.592448 11.6735 0.6608 11.6735 0.74469L11.6728 3.93475C11.6727 4.01941 11.6041 4.08802 11.5195 4.08818C11.4793 4.08818 11.4406 4.07243 11.4119 4.0443L10.3665 3.01896C10.2006 3.19268 9.80999 3.59726 8.88248 4.55139C7.46986 6.00451 7.29165 6.18114 7.24679 6.21381L7.24697 6.21414C7.1569 6.27126 7.05242 6.30154 6.94576 6.30142C6.79661 6.30182 6.6535 6.24256 6.5483 6.13684L4.37153 3.95993L2.16354 6.16782C2.05833 6.27365 1.91513 6.33297 1.7659 6.33254Z" fill="currentColor"/>
</svg>
