<svg width="16" height="16" viewBox="0 0 16 16" fill="none" xmlns="http://www.w3.org/2000/svg">
<path d="M14.4572 2.97946H13.8954C14.1803 2.49688 14.3053 2.03658 14.2654 1.60962C14.2322 1.25229 14.0627 0.741217 13.4415 0.333917C12.9264 -0.00456756 12.2641 -0.0875875 11.5293 0.0958078C10.3377 0.394691 8.92739 1.42223 8.00012 2.66401C7.07228 1.42225 5.66312 0.394691 4.47153 0.0958078C3.73611 -0.0887795 3.07321 -0.00517369 2.55824 0.333917C1.93757 0.741217 1.768 1.25229 1.73488 1.60962C1.69493 2.03658 1.81881 2.49688 2.10486 2.97946H1.54303C0.692325 2.97946 0 3.67162 0 4.52213V6.50911C0 7.18189 0.444191 7.77651 1.08684 7.97619C1.02577 8.14502 0.993791 8.31954 0.993791 8.49639V14.4576C0.993791 15.3076 1.6869 16 2.53769 16H13.4643C14.315 16 15.0071 15.3076 15.0071 14.4576V8.49637C15.0071 8.31839 14.9763 8.1433 14.9152 7.97558C15.5569 7.77479 16 7.18018 16 6.50909V4.52263C16 3.67219 15.308 2.97946 14.4572 2.97946ZM13.4643 14.9014H8.54942V8.05204H13.4643C13.7093 8.05204 13.9079 8.25165 13.9079 8.49637V14.4576C13.9079 14.7024 13.7093 14.9014 13.4643 14.9014ZM9.15464 2.97946C9.93629 2.07875 10.9623 1.37093 11.7954 1.16214C12.2281 1.05378 12.5821 1.08344 12.8385 1.25229C13.1109 1.43108 13.1593 1.59049 13.1702 1.71089C13.2136 2.15235 12.7397 2.74755 12.5159 2.97946H9.15464ZM14.9003 4.52265V6.50911C14.9003 6.75382 14.7022 6.95284 14.4572 6.95284H8.54942V4.0786H14.4572C14.7022 4.0786 14.9003 4.27798 14.9003 4.52265ZM7.45028 8.05204V14.9014H2.53767C2.29212 14.9014 2.09342 14.7023 2.09342 14.4576V8.49637C2.09342 8.25165 2.29212 8.05204 2.53767 8.05204H7.45028ZM2.83001 1.71089C2.84083 1.59049 2.88996 1.43106 3.16119 1.25229C3.41579 1.08344 3.7698 1.05232 4.20491 1.16214C5.03337 1.36976 6.05825 2.07764 6.84162 2.97946H3.48318C3.28278 2.77669 2.78602 2.16294 2.83001 1.71089ZM1.09882 4.52265C1.09882 4.278 1.29752 4.0786 1.54301 4.0786H7.45026V6.95284H1.54301C1.29752 6.95284 1.09882 6.75382 1.09882 6.50911V4.52265Z" fill="currentColor"/>
</svg>
