<svg width="24" height="24" viewBox="0 0 24 24" fill="none" xmlns="http://www.w3.org/2000/svg">
<path d="M24 12C23.6384 18.75 18.6408 23.625 12.0134 23.625C5.38595 23.625 0.388367 18.75 0 12C0 5.37258 5.37258 0 12 0C18.6274 0 24 5.37258 24 12Z" fill="white"/>
<path fill-rule="evenodd" clip-rule="evenodd" d="M12.0099 0C5.36875 0 0 5.3281 0 11.9197C0 17.1887 3.43994 21.6488 8.21205 23.2274C8.80869 23.3461 9.02724 22.9709 9.02724 22.6553C9.02724 22.379 9.00757 21.4318 9.00757 20.4449C5.6667 21.1555 4.97099 19.024 4.97099 19.024C4.43409 17.6426 3.63858 17.2875 3.63858 17.2875C2.54511 16.5573 3.71823 16.5573 3.71823 16.5573C4.93117 16.6363 5.56763 17.7808 5.56763 17.7808C6.64118 19.5963 8.37111 19.0833 9.06706 18.7675C9.16638 17.9978 9.48473 17.465 9.82275 17.1691C7.15817 16.8927 4.35469 15.8666 4.35469 11.2881C4.35469 9.98559 4.8316 8.91997 5.58729 8.09121C5.46807 7.79526 5.0504 6.57149 5.70677 4.93358C5.70677 4.93358 6.72083 4.61777 9.00732 6.15711C9.98625 5.89619 10.9958 5.76346 12.0099 5.76234C13.024 5.76234 14.0577 5.90063 15.0123 6.15711C17.299 4.61777 18.3131 4.93358 18.3131 4.93358C18.9695 6.57149 18.5515 7.79526 18.4323 8.09121C19.2079 8.91997 19.6652 9.98559 19.6652 11.2881C19.6652 15.8666 16.8617 16.8729 14.1772 17.1691C14.6148 17.544 14.9924 18.2543 14.9924 19.3793C14.9924 20.9777 14.9727 22.2606 14.9727 22.6551C14.9727 22.9709 15.1915 23.3461 15.7879 23.2276C20.56 21.6486 23.9999 17.1887 23.9999 11.9197C24.0196 5.3281 18.6312 0 12.0099 0Z" fill="#24292F"/>
</svg>
