<svg width="10" height="10" viewBox="0 0 10 10" fill="none" xmlns="http://www.w3.org/2000/svg">
<path d="M6.66667 0C6.97333 0 7.22222 0.248889 7.22222 0.555556V2.77778C7.22222 3.08444 6.97333 3.33333 6.66667 3.33333H5.55556V4.44444H7.77778C8.08444 4.44444 8.33333 4.69333 8.33333 5V6.66667H9.44444C9.75111 6.66667 10 6.91556 10 7.22222V9.44444C10 9.75111 9.75111 10 9.44444 10H6.11111C5.80444 10 5.55556 9.75111 5.55556 9.44444V7.22222C5.55556 6.91556 5.80444 6.66667 6.11111 6.66667H7.22222V5.55556H2.77778V6.66667H3.88889C4.19556 6.66667 4.44444 6.91556 4.44444 7.22222V9.44444C4.44444 9.75111 4.19556 10 3.88889 10H0.555556C0.248889 10 0 9.75111 0 9.44444V7.22222C0 6.91556 0.248889 6.66667 0.555556 6.66667H1.66667V5C1.66667 4.69333 1.91556 4.44444 2.22222 4.44444H4.44444V3.33333H3.33333C3.02667 3.33333 2.77778 3.08444 2.77778 2.77778V0.555556C2.77778 0.248889 3.02667 0 3.33333 0H6.66667Z" fill="currentColor"/>
</svg>
