<svg width="12" height="10" viewBox="0 0 12 10" fill="none" xmlns="http://www.w3.org/2000/svg">
<path d="M11.6484 0.703125H11.2969V0.351562C11.2969 0.157406 11.1395 0 10.9453 0C10.7512 0 10.5938 0.157406 10.5938 0.351562V0.703125H3.86719H2.46094H1.05469C0.860531 0.703125 0.703125 0.860531 0.703125 1.05469C0.703125 1.24854 0.545414 1.40625 0.351562 1.40625C0.157406 1.40625 0 1.56366 0 1.75781V3.16406V3.86719C0 4.06134 0.157406 4.21875 0.351562 4.21875C0.538453 4.21875 0.691758 4.36533 0.702539 4.54957L0.118172 8.63991C0.0274219 9.27527 0.521086 9.84375 1.16227 9.84375H2.54534C3.07441 9.84375 3.52418 9.44801 3.59147 8.92319L3.83402 7.03125H5.27175C5.27222 7.03125 5.27269 7.03132 5.27316 7.03132C5.27585 7.03132 5.27855 7.03111 5.28124 7.03104C5.85921 7.02682 6.32812 6.55549 6.32812 5.97656V4.92188H10.2422C10.3754 4.92188 10.4971 4.84664 10.5566 4.72753L11.1626 3.51562H11.6484C11.8426 3.51562 12 3.35822 12 3.16406V1.05469C12 0.860531 11.8426 0.703125 11.6484 0.703125ZM2.71434 1.40625H3.37941L2.91066 2.8125H2.24559L2.71434 1.40625ZM0.703125 2.04914C1.00238 1.94304 1.23991 1.7055 1.34602 1.40625H1.97318L1.50443 2.8125H0.703125V2.04914ZM4.21875 6.32812C3.83105 6.32812 3.51562 6.0127 3.51562 5.625C3.51562 5.2373 3.83105 4.92188 4.21875 4.92188H4.23373C4.08916 5.38697 4.14274 5.89629 4.40002 6.32812H4.21875ZM5.625 5.97656C5.625 6.14428 5.50685 6.28474 5.34947 6.31962C4.87352 6.02543 4.71684 5.40731 4.99589 4.92188H5.625V5.97656ZM10.0249 4.21875C9.64493 4.21875 4.46135 4.21875 4.21875 4.21875C3.44334 4.21875 2.8125 4.84959 2.8125 5.625C2.8125 5.99123 2.95336 6.32512 3.18356 6.57562L2.89404 8.83378C2.87161 9.00872 2.72168 9.14065 2.54531 9.14065H1.16227C0.948 9.14065 0.783891 8.95172 0.814242 8.73935C1.44368 4.33336 1.40625 4.60755 1.40625 4.57031C1.40625 4.11197 1.11237 3.72096 0.703125 3.57586V3.51562C1.02455 3.51562 10.1753 3.51562 10.3765 3.51562L10.0249 4.21875ZM11.2969 2.8125C11.0531 2.8125 4.24266 2.8125 3.65184 2.8125L4.12059 1.40625H11.2969V2.8125Z" fill="currentColor"/>
</svg>
