<svg width="16" height="16" viewBox="0 0 16 16" fill="none" xmlns="http://www.w3.org/2000/svg">
<path d="M12.6125 8.53825L12.67 8.5945C13.777 9.7015 13.7958 11.4845 12.7268 12.6145L12.6698 12.6728C11.5625 13.7793 9.78075 13.7972 8.65225 12.728L8.59425 12.6718L8.538 12.614C7.48725 11.5035 7.48725 9.76275 8.538 8.65225L8.5955 8.5935C9.6825 7.5065 11.4223 7.47025 12.5533 8.48375L12.6125 8.53825ZM2.5 8.95275L2.50125 8.99025C2.543 9.71575 3.665 10.3015 5.2315 10.5273L5.414 10.5518L5.507 10.5627L5.69525 10.5822C5.98025 10.609 6.2765 10.6245 6.581 10.6272L6.683 10.6278H6.947C6.947 11.1513 7.01125 11.5953 7.2165 11.9963L7.2595 12.0758H6.68325C6.14025 12.0758 5.62125 12.0343 5.14475 11.9583L4.96825 11.9283C4.91063 11.9179 4.85313 11.9069 4.79575 11.8953L4.628 11.859C3.38575 11.5765 2.5375 11.0468 2.50125 10.4368L2.5 10.396V8.95275ZM2.50975 6.849C2.50975 7.6115 3.69975 8.2455 5.35025 8.471L5.532 8.494C5.685 8.51175 5.8415 8.526 6.00125 8.53675L6.194 8.54775C6.356 8.55525 6.52075 8.5595 6.68775 8.5595C7.047 8.5595 7.3045 8.5355 7.6615 8.497C7.324 8.911 7.059 9.4145 7 9.8995L6.99225 9.98025H6.68725C6.28075 9.98025 5.8875 9.95675 5.51575 9.913L5.3315 9.8895C5.30123 9.88532 5.27098 9.88099 5.24075 9.8765L5.0625 9.848C3.59275 9.5975 2.55125 9.018 2.511 8.3395L2.50975 8.2985V6.849ZM2.51025 4.8195C2.51025 5.438 3.3655 5.97925 4.61 6.27125L4.7745 6.308C5.3575 6.43125 6.0175 6.501 6.71 6.501C8.95125 6.501 10.774 5.791 10.8842 4.904L10.8883 4.863V6.38875C10.8735 6.64175 10.8103 6.8045 10.6145 6.968C9.5495 7.00475 8.911 7.333 8.3425 7.75325L8.22575 7.8415C7.79575 7.925 7.41875 7.95225 6.938 7.957L6.688 7.95775C6.17975 7.95775 5.6925 7.921 5.2415 7.85375L5.063 7.82525C3.5935 7.5745 2.55175 6.99375 2.5115 6.31L2.51025 6.26875V4.8195ZM6.5865 2.5005L6.688 2.5C6.9935 2.5 7.29125 2.51325 7.578 2.53825L7.7675 2.55675C7.79875 2.56 7.83 2.5635 7.861 2.56725L8.04525 2.59075L8.136 2.60375L8.31425 2.63225C8.373 2.64225 8.43125 2.65275 8.4885 2.66375L8.6585 2.6985C9.97225 2.982 10.866 3.54 10.866 4.18175C10.866 4.7825 10.0697 5.33725 8.77675 5.6375C7.48425 5.9385 5.89175 5.9385 4.59925 5.6375C3.30625 5.3375 2.50975 4.7825 2.50975 4.18175C2.50975 3.731 2.95025 3.32175 3.6675 3.01975L3.801 2.966C4.16475 2.826 4.591 2.71225 5.06175 2.63225L5.24 2.60375L5.33075 2.59075L5.515 2.56725C5.546 2.5635 5.57725 2.56 5.6085 2.55675L5.798 2.53825C6.053 2.51575 6.31675 2.50325 6.5865 2.5005Z" fill="#5A5E64"/>
<path d="M10.894 12V11.6198L12.0389 10.2284C12.1517 10.0905 12.1977 9.98189 12.1977 9.83148C12.1977 9.56407 12.0389 9.38022 11.7631 9.38022C11.5375 9.38022 11.3244 9.50557 11.3244 9.83983H10.8982C10.8982 9.33426 11.2576 9 11.7631 9C12.2729 9 12.6239 9.32173 12.6239 9.83565C12.6239 10.0989 12.5278 10.2535 12.3439 10.4791L11.4122 11.6198H12.6239V12H10.894Z" fill="white"/>
<path d="M10.3886 9.84259L9.69499 10.8788L10.4178 11.961H9.9039L9.46101 11.2381L9.01393 11.961H8.5L9.22702 10.8788L8.52925 9.84259H9.04318L9.46101 10.532L9.87466 9.84259H10.3886Z" fill="white"/>
</svg>
