<svg width="12" height="12" viewBox="0 0 12 12" fill="currentColor" xmlns="http://www.w3.org/2000/svg">
<path d="M6 11C4.72222 11 3.6088 10.5764 2.65972 9.72917C1.71065 8.88194 1.16667 7.82407 1.02778 6.55556H2.16667C2.2963 7.51852 2.72454 8.31482 3.45139 8.94444C4.17824 9.57407 5.02778 9.88889 6 9.88889C7.08333 9.88889 8.00232 9.51157 8.75694 8.75694C9.51157 8.00232 9.88889 7.08333 9.88889 6C9.88889 4.91667 9.51157 3.99769 8.75694 3.24306C8.00232 2.48843 7.08333 2.11111 6 2.11111C5.36111 2.11111 4.76389 2.25926 4.20833 2.55556C3.65278 2.85185 3.18519 3.25926 2.80556 3.77778H4.33333V4.88889H1V1.55556H2.11111V2.86111C2.58333 2.26852 3.15972 1.81019 3.84028 1.48611C4.52083 1.16204 5.24074 1 6 1C6.69444 1 7.34491 1.13194 7.95139 1.39583C8.55787 1.65972 9.08565 2.0162 9.53472 2.46528C9.9838 2.91435 10.3403 3.44213 10.6042 4.04861C10.8681 4.65509 11 5.30556 11 6C11 6.69444 10.8681 7.34491 10.6042 7.95139C10.3403 8.55787 9.9838 9.08565 9.53472 9.53472C9.08565 9.9838 8.55787 10.3403 7.95139 10.6042C7.34491 10.8681 6.69444 11 6 11ZM7.55556 8.33333L5.44444 6.22222V3.22222H6.55556V5.77778L8.33333 7.55556L7.55556 8.33333Z" fill="#383F4B"/>
</svg>
