<svg width="12" height="12" viewBox="0 0 12 12" fill="none" xmlns="http://www.w3.org/2000/svg">
<path d="M1.13821 9.516L3.48421 7.17L5.18161 8.8668L7.92421 6.1248L9.00001 7.2V4.2H6.00001L7.07581 5.2758L5.18161 7.17L3.48481 5.4726L0.517205 8.4402C0.175162 7.67221 -0.00107262 6.84072 4.91146e-06 6C4.91146e-06 2.6862 2.68621 0 6.00001 0C9.31381 0 12 2.6862 12 6C12 9.3138 9.31381 12 6.00001 12C5.05081 12.0006 4.11504 11.7757 3.26977 11.3439C2.4245 10.912 1.69393 10.2855 1.13821 9.516Z" fill="currentColor"/>
</svg>
