<svg width="12" height="12" viewBox="0 0 12 12" fill="none" xmlns="http://www.w3.org/2000/svg">
<path d="M10.2 10.8362H1.8V11.4181C1.8 11.5724 1.73679 11.7204 1.62426 11.8296C1.51174 11.9387 1.35913 12 1.2 12H0.6C0.44087 12 0.288258 11.9387 0.175736 11.8296C0.0632141 11.7204 0 11.5724 0 11.4181V5.59907L1.4502 3.25458C1.55682 3.08225 1.70763 2.93963 1.88796 2.84061C2.06828 2.74159 2.27198 2.68955 2.4792 2.68955H9.5208C9.72802 2.68955 9.93172 2.74159 10.112 2.84061C10.2924 2.93963 10.4432 3.08225 10.5498 3.25458L12 5.59907V11.4181C12 11.5724 11.9368 11.7204 11.8243 11.8296C11.7117 11.9387 11.5591 12 11.4 12H10.8C10.6409 12 10.4883 11.9387 10.3757 11.8296C10.2632 11.7204 10.2 11.5724 10.2 11.4181V10.8362ZM10.8 6.76287H1.2V9.67239H10.8V6.76287ZM1.3992 5.59907H10.6008L9.5208 3.85336H2.4792L1.3992 5.59907ZM2.064 0.617981L2.7 0L3.336 0.616817C3.46189 0.738877 3.54764 0.894405 3.58239 1.06373C3.61714 1.23305 3.59933 1.40857 3.53122 1.56808C3.46311 1.72759 3.34775 1.86392 3.19974 1.95984C3.05173 2.05577 2.87771 2.10697 2.6997 2.10697C2.52169 2.10697 2.34767 2.05577 2.19966 1.95984C2.05165 1.86392 1.93629 1.72759 1.86818 1.56808C1.80007 1.40857 1.78226 1.23305 1.81701 1.06373C1.85176 0.894405 1.93751 0.738877 2.0634 0.616817L2.064 0.617981ZM5.364 0.617981L6 0L6.636 0.616817C6.7619 0.738877 6.84764 0.894405 6.88239 1.06373C6.91714 1.23305 6.89933 1.40857 6.83122 1.56808C6.76311 1.72759 6.64775 1.86392 6.49974 1.95984C6.35173 2.05577 6.17772 2.10697 5.9997 2.10697C5.82169 2.10697 5.64767 2.05577 5.49966 1.95984C5.35165 1.86392 5.23629 1.72759 5.16818 1.56808C5.10007 1.40857 5.08226 1.23305 5.11701 1.06373C5.15176 0.894405 5.23751 0.738877 5.3634 0.616817L5.364 0.617981ZM8.664 0.617981L9.3 0L9.936 0.616817C10.0619 0.738877 10.1476 0.894405 10.1824 1.06373C10.2171 1.23305 10.1993 1.40857 10.1312 1.56808C10.0631 1.72759 9.94775 1.86392 9.79974 1.95984C9.65173 2.05577 9.47772 2.10697 9.2997 2.10697C9.12169 2.10697 8.94767 2.05577 8.79966 1.95984C8.65165 1.86392 8.53629 1.72759 8.46818 1.56808C8.40007 1.40857 8.38226 1.23305 8.41701 1.06373C8.45176 0.894405 8.53751 0.738877 8.6634 0.616817L8.664 0.617981ZM2.7 9.09049C2.46131 9.09049 2.23239 8.99852 2.0636 8.83483C1.89482 8.67114 1.8 8.44913 1.8 8.21763C1.8 7.98614 1.89482 7.76412 2.0636 7.60043C2.23239 7.43674 2.46131 7.34478 2.7 7.34478C2.93869 7.34478 3.16761 7.43674 3.3364 7.60043C3.50518 7.76412 3.6 7.98614 3.6 8.21763C3.6 8.44913 3.50518 8.67114 3.3364 8.83483C3.16761 8.99852 2.93869 9.09049 2.7 9.09049ZM9.3 9.09049C9.06131 9.09049 8.83239 8.99852 8.6636 8.83483C8.49482 8.67114 8.4 8.44913 8.4 8.21763C8.4 7.98614 8.49482 7.76412 8.6636 7.60043C8.83239 7.43674 9.06131 7.34478 9.3 7.34478C9.5387 7.34478 9.76761 7.43674 9.9364 7.60043C10.1052 7.76412 10.2 7.98614 10.2 8.21763C10.2 8.44913 10.1052 8.67114 9.9364 8.83483C9.76761 8.99852 9.5387 9.09049 9.3 9.09049Z" fill="currentColor"/>
</svg>
