<svg width="14" height="14" viewBox="0 0 14 14" fill="none" xmlns="http://www.w3.org/2000/svg">
<path d="M4.54012 1.30649C4.07339 1.30649 3.61715 1.44489 3.22908 1.70419C2.84101 1.96349 2.53855 2.33204 2.35994 2.76324C2.18133 3.19443 2.1346 3.66891 2.22565 4.12667C2.31671 4.58443 2.54146 5.00491 2.87148 5.33493C3.20151 5.66496 3.62198 5.88971 4.07974 5.98076C4.5375 6.07181 5.01198 6.02508 5.44318 5.84647C5.87437 5.66786 6.24293 5.3654 6.50222 4.97733C6.76152 4.58927 6.89992 4.13302 6.89992 3.6663C6.90003 3.35637 6.83907 3.04946 6.72051 2.76311C6.60196 2.47676 6.42814 2.21657 6.20899 1.99742C5.98984 1.77827 5.72965 1.60445 5.4433 1.4859C5.15695 1.36735 4.85004 1.30638 4.54012 1.30649ZM4.54012 4.84579C4.3066 4.84595 4.07829 4.77685 3.88407 4.64721C3.68984 4.51758 3.53843 4.33325 3.449 4.11754C3.35956 3.90184 3.33612 3.66445 3.38164 3.43542C3.42715 3.20638 3.53958 2.996 3.7047 2.83088C3.86982 2.66576 4.0802 2.55333 4.30924 2.50782C4.53827 2.4623 4.77566 2.48574 4.99136 2.57518C5.20707 2.66461 5.3914 2.81602 5.52103 3.01025C5.65067 3.20447 5.71978 3.43278 5.71961 3.6663C5.71961 3.97912 5.59535 4.27913 5.37415 4.50033C5.15295 4.72153 4.85294 4.84579 4.54012 4.84579ZM8.08023 11.4434V12.0209C8.08023 12.0965 8.05026 12.169 7.99689 12.2226C7.94351 12.2761 7.87109 12.3063 7.7955 12.3065H7.18466C7.10907 12.3063 7.03665 12.2761 6.98327 12.2226C6.9299 12.169 6.89992 12.0965 6.89992 12.0209V8.38591C6.89992 8.22942 6.83782 8.07934 6.72724 7.96861C6.61666 7.85788 6.46666 7.79556 6.31017 7.79535H2.77006C2.69254 7.79535 2.61579 7.81063 2.54418 7.84032C2.47258 7.87001 2.40753 7.91352 2.35276 7.96837C2.29798 8.02322 2.25456 8.08833 2.22497 8.15997C2.19538 8.23162 2.1802 8.30839 2.18031 8.38591V12.0209C2.18031 12.0965 2.15034 12.169 2.09696 12.2226C2.04359 12.2761 1.97117 12.3063 1.89557 12.3065H1.28717C1.24953 12.3067 1.21223 12.2995 1.1774 12.2852C1.14256 12.271 1.11089 12.25 1.08421 12.2234C1.05752 12.1969 1.03634 12.1653 1.02189 12.1306C1.00744 12.0958 0.999999 12.0586 1 12.0209V8.38591C1 7.91646 1.18649 7.46624 1.51844 7.13429C1.85039 6.80234 2.30061 6.61585 2.77006 6.61585H6.31017C6.54258 6.61585 6.77272 6.66164 6.98742 6.75061C7.20213 6.83957 7.39721 6.96996 7.56151 7.13434C7.72581 7.29871 7.85611 7.49385 7.94498 7.7086C8.03384 7.92335 8.07953 8.1535 8.07942 8.38591V11.4434H8.08023Z" fill="currentColor"/>
<path d="M9.8874 1.30649C9.42067 1.30649 8.96443 1.44489 8.57636 1.70419C8.18829 1.96349 7.88583 2.33204 7.70722 2.76324C7.52861 3.19443 7.48188 3.66891 7.57293 4.12667C7.66399 4.58443 7.88874 5.00491 8.21876 5.33493C8.54879 5.66496 8.96926 5.88971 9.42702 5.98076C9.88478 6.07181 10.3593 6.02508 10.7905 5.84647C11.2217 5.66786 11.5902 5.3654 11.8495 4.97733C12.1088 4.58927 12.2472 4.13302 12.2472 3.6663C12.2472 3.04044 11.9986 2.44021 11.556 1.99766C11.1135 1.55511 10.5133 1.30649 9.8874 1.30649ZM9.8874 4.84579C9.65392 4.84579 9.42569 4.77655 9.23157 4.64682C9.03745 4.51709 8.88617 4.3327 8.79686 4.11698C8.70754 3.90126 8.68422 3.6639 8.72983 3.43492C8.77543 3.20594 8.88793 2.99563 9.05308 2.83059C9.21823 2.66556 9.42862 2.55321 9.65763 2.50776C9.88664 2.4623 10.124 2.48579 10.3396 2.57525C10.5553 2.66471 10.7396 2.81612 10.8692 3.01033C10.9988 3.20454 11.0679 3.43282 11.0677 3.6663C11.0677 3.82126 11.0372 3.9747 10.9778 4.11786C10.9185 4.26101 10.8316 4.39108 10.722 4.50061C10.6123 4.61015 10.4822 4.69701 10.339 4.75624C10.1958 4.81547 10.0424 4.8459 9.8874 4.84579Z" fill="currentColor"/>
<path d="M13.4274 11.4434V12.0209C13.4274 12.0965 13.3974 12.169 13.3441 12.2226C13.2907 12.2761 13.2183 12.3063 13.1427 12.3065H12.5351C12.4595 12.3063 12.3871 12.2761 12.3337 12.2226C12.2803 12.169 12.2504 12.0965 12.2504 12.0209V8.3859C12.2504 8.22928 12.1881 8.07906 12.0774 7.96831C11.9666 7.85756 11.8164 7.79534 11.6598 7.79534H8.99984C8.96224 7.79524 8.92502 7.78772 8.89032 7.77324C8.85562 7.75875 8.82411 7.73756 8.79759 7.7109C8.77108 7.68423 8.75007 7.6526 8.73578 7.61782C8.72149 7.58304 8.71419 7.54578 8.7143 7.50818V6.89977C8.71472 6.82432 8.745 6.7521 8.7985 6.6989C8.85201 6.6457 8.92439 6.61584 8.99984 6.61584H11.6574C12.1268 6.61584 12.577 6.80233 12.909 7.13428C13.2409 7.46623 13.4274 7.91645 13.4274 8.3859V11.4425V11.4434Z" fill="currentColor"/>
</svg>
