<svg width="12" height="12" viewBox="0 0 12 12" fill="none" xmlns="http://www.w3.org/2000/svg">
<path d="M5.10089 0.0585499C5.24927 -0.0203351 5.42701 -0.0189951 5.57452 0.0614796C7.81308 1.26615 8.32421 3.38556 8.33331 4.10445C8.68466 3.71246 8.77091 3.12722 8.78351 2.71285C8.7869 2.61932 8.8435 2.53603 8.92902 2.498C9.01487 2.46 9.11518 2.47443 9.18683 2.53511C9.96247 3.21019 10.5645 4.06194 10.9417 5.01851C11.5725 6.59552 11.4507 10.0361 8.4798 11.2978C8.59574 10.8341 8.60067 10.376 8.56378 9.9814C8.50638 9.36822 7.73784 7.71343 5.6673 6.62496C5.60097 6.5901 5.52081 6.59493 5.45929 6.63765C5.39777 6.68063 5.36449 6.75468 5.37433 6.82906C5.45973 7.46743 5.55114 8.74296 5.04718 9.34566C5.10176 8.79552 4.79986 8.34007 4.54718 8.06148C4.49504 8.00418 4.4143 7.98144 4.34015 8.00386C4.26627 8.02635 4.21222 8.08963 4.2005 8.16597C4.1522 8.46907 4.02515 8.93227 3.70245 9.49996C3.41954 9.99681 3.12844 10.628 3.25031 11.3134C0.359395 10.1055 0.429644 6.84613 1.2171 5.5107C1.7217 4.65688 1.92383 4.03582 2.00226 3.63472C2.04076 3.43803 2.30552 3.40279 2.39581 3.58199C2.55819 3.90748 2.705 4.39507 2.6546 5.04878C4.34186 3.27685 4.74917 1.43674 4.8382 0.453081C4.8539 0.285704 4.95246 0.137486 5.10089 0.0585499Z" fill="#666666"/>
</svg>
