<svg width="12" height="12" viewBox="0 0 12 12" fill="currentColor" xmlns="http://www.w3.org/2000/svg">
<g id="&#231;&#188;&#150;&#231;&#187;&#132; 23">
<g id="&#231;&#188;&#150;&#231;&#187;&#132;">
<mask id="mask0_8602_106648" style="mask-type:luminance" maskUnits="userSpaceOnUse" x="0" y="0" width="12" height="12">
<path id="Clip 2" fill-rule="evenodd" clip-rule="evenodd" d="M0.75 0H11.2498V11.8125H0.75V0Z" fill="white"/>
</mask>
<g mask="url(#mask0_8602_106648)">
<path id="Fill 1" d="M9.28125 -0.000488281C10.5937 -0.000480334 11.25 0.655773 11.25 1.96826V10.2515C11.25 10.792 10.6326 11.1006 10.2002 10.7769L9.30762 10.1069C8.91592 9.813 8.368 9.85244 8.02148 10.1987L6.69531 11.5239C6.3114 11.9083 5.68822 11.9084 5.30371 11.5239L3.97852 10.1987C3.632 9.85242 3.08311 9.81299 2.69141 10.1069L1.7998 10.7769C1.36671 11.1006 0.750033 10.792 0.75 10.2515V1.96826C0.75 0.655765 1.40625 -0.000488281 2.71875 -0.000488281H9.28125ZM6.29785 2.80908C6.17579 2.56365 5.82323 2.56365 5.70117 2.80908L5.09961 4.01807C5.05438 4.10918 4.96713 4.17248 4.86621 4.18701L3.47656 4.38721C3.22196 4.42398 3.12029 4.73606 3.30469 4.91455L4.30957 5.88525C4.38297 5.95603 4.41599 6.05842 4.39844 6.15869L4.16895 7.48779C4.12268 7.75733 4.40736 7.9627 4.65137 7.83545L5.85547 7.20752C5.9453 7.16035 6.05372 7.16038 6.14355 7.20752L7.34961 7.83643C7.593 7.96272 7.87665 7.75739 7.83008 7.48779L7.60059 6.15869C7.5837 6.05843 7.61704 5.95602 7.69043 5.88525L8.69434 4.91455C8.87874 4.73605 8.77709 4.42396 8.52246 4.38721L7.13281 4.18701C7.03193 4.17246 6.94463 4.10916 6.89941 4.01807L6.29785 2.80908Z" fill="#666666"/>
</g>
</g>
</g>
</svg>
