<svg width="12" height="12" viewBox="0 0 12 12" fill="none" xmlns="http://www.w3.org/2000/svg">
<path d="M6 10.5C3.51465 10.5 1.5 8.48535 1.5 6C1.5 3.51465 3.51465 1.5 6 1.5C8.48535 1.5 10.5 3.51465 10.5 6C10.5 8.48535 8.48535 10.5 6 10.5ZM6 9.6C6.95478 9.6 7.87045 9.22072 8.54558 8.54558C9.22072 7.87045 9.6 6.95478 9.6 6C9.6 5.04522 9.22072 4.12955 8.54558 3.45442C7.87045 2.77928 6.95478 2.4 6 2.4C5.04522 2.4 4.12955 2.77928 3.45442 3.45442C2.77928 4.12955 2.4 5.04522 2.4 6C2.4 6.95478 2.77928 7.87045 3.45442 8.54558C4.12955 9.22072 5.04522 9.6 6 9.6ZM5.55 3.75H6.45V4.65H5.55V3.75ZM5.55 5.55H6.45V8.25H5.55V5.55Z" fill="#5A5E64"/>
</svg>
