<svg width="11" height="11" viewBox="0 0 11 11" fill="none" xmlns="http://www.w3.org/2000/svg">
<path d="M5.50009 10.5002C5.84384 10.5002 6.1225 10.2215 6.1225 9.87778C6.1225 9.53403 5.84384 9.25537 5.50009 9.25537C5.15635 9.25537 4.87769 9.53403 4.87769 9.87778C4.87769 10.2215 5.15635 10.5002 5.50009 10.5002Z" fill="currentColor"/>
<path d="M5.6228 9.87744C5.62262 9.80999 5.56725 9.75537 5.49976 9.75537C5.43242 9.75555 5.37787 9.8101 5.37769 9.87744C5.37769 9.94493 5.43231 10.0003 5.49976 10.0005C5.56736 10.0005 5.6228 9.94504 5.6228 9.87744ZM6.6228 9.87744C6.6228 10.4973 6.11964 11.0005 5.49976 11.0005C4.88002 11.0003 4.37769 10.4972 4.37769 9.87744C4.37787 9.25782 4.88013 8.75555 5.49976 8.75537C6.11953 8.75537 6.62262 9.25771 6.6228 9.87744Z" fill="currentColor"/>
<path d="M5.50009 10.5002C5.84384 10.5002 6.1225 10.2215 6.1225 9.87778C6.1225 9.53403 5.84384 9.25537 5.50009 9.25537C5.15635 9.25537 4.87769 9.53403 4.87769 9.87778C4.87769 10.2215 5.15635 10.5002 5.50009 10.5002Z" fill="currentColor"/>
<path d="M5.6228 9.87744C5.62262 9.80999 5.56725 9.75537 5.49976 9.75537C5.43242 9.75555 5.37787 9.8101 5.37769 9.87744C5.37769 9.94493 5.43231 10.0003 5.49976 10.0005C5.56736 10.0005 5.6228 9.94504 5.6228 9.87744ZM6.6228 9.87744C6.6228 10.4973 6.11964 11.0005 5.49976 11.0005C4.88002 11.0003 4.37769 10.4972 4.37769 9.87744C4.37787 9.25782 4.88013 8.75555 5.49976 8.75537C6.11953 8.75537 6.62262 9.25771 6.6228 9.87744Z" fill="currentColor"/>
<path d="M4.35645 2.67871C4.35645 1.75184 3.60555 1.00016 2.67871 1C1.75174 1 1 1.75174 1 2.67871C1.00015 3.59228 1.73029 4.33545 2.63867 4.35645L2.62695 4.85645L2.61621 5.35645C1.1658 5.3231 0.000153223 4.13693 0 2.67871C0 1.19946 1.19946 0 2.67871 0C4.15783 0.000155543 5.35645 1.19955 5.35645 2.67871C5.35643 2.83756 5.34315 2.99361 5.31641 3.14551L4.82324 3.05957L4.33105 2.97266C4.3478 2.87765 4.35643 2.77923 4.35645 2.67871Z" fill="currentColor"/>
<path d="M9.99951 2.67871C9.99951 1.75184 9.24861 1.00016 8.32178 1C7.39481 1 6.64307 1.75174 6.64307 2.67871C6.64308 2.77923 6.65171 2.87765 6.66846 2.97266L6.17627 3.05957L5.68408 3.14551C5.65733 2.99358 5.64308 2.83759 5.64307 2.67871C5.64307 1.19946 6.84252 0 8.32178 0C9.8009 0.000155543 10.9995 1.19955 10.9995 2.67871C10.9994 4.13684 9.83458 5.32297 8.38428 5.35645L8.36084 4.35645C9.26932 4.33556 9.99936 3.59235 9.99951 2.67871Z" fill="currentColor"/>
<path d="M8.11157 6.14355C8.11157 4.70392 6.93985 3.5314 5.50024 3.53125C4.06052 3.53125 2.88794 4.70383 2.88794 6.14355C2.88801 6.81007 3.13856 7.4191 3.552 7.88184L5.40845 9.95898L5.0354 10.292L4.66333 10.625L2.80688 8.54785C2.23658 7.90956 1.88801 7.06604 1.88794 6.14355C1.88794 4.15154 3.50823 2.53125 5.50024 2.53125C7.49213 2.5314 9.11157 4.15163 9.11157 6.14355C9.1115 7.06604 8.7639 7.90956 8.1936 8.54785L6.33716 10.625L5.59106 9.95898L7.44751 7.88184C7.86096 7.4191 8.1115 6.81007 8.11157 6.14355Z" fill="currentColor"/>
<path d="M6.78287 8.65201C6.90637 8.40502 7.20678 8.30488 7.45377 8.42838L8.83561 9.11979C9.08254 9.24331 9.18272 9.54372 9.05924 9.79068C8.93564 10.0374 8.63518 10.1377 8.38834 10.0143L7.0065 9.32291C6.75951 9.19942 6.65938 8.899 6.78287 8.65201Z" fill="currentColor"/>
<path d="M9.23413 7.51025C9.51027 7.51025 9.73413 7.73411 9.73413 8.01025C9.73413 8.2864 9.51027 8.51025 9.23413 8.51025H7.98804C7.71189 8.51025 7.48804 8.2864 7.48804 8.01025C7.48804 7.73411 7.71189 7.51025 7.98804 7.51025H9.23413Z" fill="currentColor"/>
<path d="M3.54626 8.42837C3.79324 8.30488 4.09365 8.40505 4.21716 8.652C4.34066 8.89899 4.24052 9.19941 3.99353 9.3229L2.61169 10.0143C2.36485 10.1376 2.06437 10.0374 1.94079 9.79067C1.81733 9.54374 1.91756 9.24332 2.16443 9.11978L3.54626 8.42837Z" fill="currentColor"/>
<path d="M3.01172 7.51025C3.28786 7.51025 3.51172 7.73411 3.51172 8.01025C3.51172 8.2864 3.28786 8.51025 3.01172 8.51025H1.76562C1.48948 8.51025 1.26562 8.2864 1.26562 8.01025C1.26562 7.73411 1.48948 7.51025 1.76562 7.51025H3.01172Z" fill="currentColor"/>
<circle cx="6.7448" cy="6.76579" r="0.311203" fill="currentColor"/>
<circle cx="4.2553" cy="6.76579" r="0.311203" fill="currentColor"/>
</svg>
