<svg width="24" height="24" viewBox="0 0 24 24" fill="none" xmlns="http://www.w3.org/2000/svg">
<rect width="24" height="24" rx="4.3" fill="url(#paint0_radial_5210_22722)"/>
<rect width="24" height="24" rx="4.3" fill="url(#paint1_radial_5210_22722)"/>
<path d="M17.9972 7.28683C17.9972 7.99691 17.4216 8.57254 16.7115 8.57254C16.0014 8.57254 15.4258 7.99691 15.4258 7.28683C15.4258 6.57675 16.0014 6.00112 16.7115 6.00112C17.4216 6.00112 17.9972 6.57675 17.9972 7.28683Z" fill="white"/>
<path fill-rule="evenodd" clip-rule="evenodd" d="M11.9972 16.2868C14.3641 16.2868 16.2829 14.368 16.2829 12.0011C16.2829 9.63418 14.3641 7.7154 11.9972 7.7154C9.63027 7.7154 7.7115 9.63418 7.7115 12.0011C7.7115 14.368 9.63027 16.2868 11.9972 16.2868ZM11.9972 14.5725C13.4174 14.5725 14.5686 13.4213 14.5686 12.0011C14.5686 10.581 13.4174 9.42969 11.9972 9.42969C10.577 9.42969 9.42578 10.581 9.42578 12.0011C9.42578 13.4213 10.577 14.5725 11.9972 14.5725Z" fill="white"/>
<path fill-rule="evenodd" clip-rule="evenodd" d="M3.42578 11.6583C3.42578 8.77799 3.42578 7.33785 3.98632 6.23774C4.47938 5.27005 5.26614 4.48329 6.23383 3.99023C7.33395 3.42969 8.77408 3.42969 11.6544 3.42969H12.3401C15.2203 3.42969 16.6605 3.42969 17.7606 3.99023C18.7283 4.48329 19.515 5.27005 20.0081 6.23774C20.5686 7.33785 20.5686 8.77799 20.5686 11.6583V12.344C20.5686 15.2242 20.5686 16.6644 20.0081 17.7645C19.515 18.7322 18.7283 19.5189 17.7606 20.012C16.6605 20.5725 15.2203 20.5725 12.3401 20.5725H11.6544C8.77408 20.5725 7.33395 20.5725 6.23383 20.012C5.26614 19.5189 4.47938 18.7322 3.98632 17.7645C3.42578 16.6644 3.42578 15.2242 3.42578 12.344V11.6583ZM11.6544 5.14397H12.3401C13.8085 5.14397 14.8067 5.14531 15.5783 5.20835C16.3299 5.26975 16.7142 5.38105 16.9823 5.51766C17.6274 5.84637 18.152 6.37088 18.4807 7.01601C18.6173 7.28412 18.7286 7.66847 18.79 8.42004C18.853 9.19162 18.8544 10.1898 18.8544 11.6583V12.344C18.8544 13.8124 18.853 14.8106 18.79 15.5822C18.7286 16.3338 18.6173 16.7181 18.4807 16.9862C18.152 17.6314 17.6274 18.1559 16.9823 18.4846C16.7142 18.6212 16.3299 18.7325 15.5783 18.7939C14.8067 18.8569 13.8085 18.8583 12.3401 18.8583H11.6544C10.1859 18.8583 9.18771 18.8569 8.41613 18.7939C7.66456 18.7325 7.28021 18.6212 7.0121 18.4846C6.36697 18.1559 5.84247 17.6314 5.51376 16.9862C5.37715 16.7181 5.26585 16.3338 5.20444 15.5822C5.1414 14.8106 5.14007 13.8124 5.14007 12.344V11.6583C5.14007 10.1898 5.1414 9.19162 5.20444 8.42004C5.26585 7.66847 5.37715 7.28412 5.51376 7.01601C5.84247 6.37088 6.36697 5.84637 7.0121 5.51766C7.28021 5.38105 7.66456 5.26975 8.41613 5.20835C9.18771 5.14531 10.1859 5.14397 11.6544 5.14397Z" fill="white"/>
<defs>
<radialGradient id="paint0_radial_5210_22722" cx="0" cy="0" r="1" gradientUnits="userSpaceOnUse" gradientTransform="translate(6.37503 25.8485) rotate(-90) scale(23.7858 22.1226)">
<stop stop-color="#FFDD55"/>
<stop offset="0.1" stop-color="#FFDD55"/>
<stop offset="0.5" stop-color="#FF543E"/>
<stop offset="1" stop-color="#C837AB"/>
</radialGradient>
<radialGradient id="paint1_radial_5210_22722" cx="0" cy="0" r="1" gradientTransform="matrix(2.08689 10.4255 -42.9735 8.60689 -4.02013 1.72892)" gradientUnits="userSpaceOnUse">
<stop stop-color="#3771C8"/>
<stop offset="0.128" stop-color="#3771C8"/>
<stop offset="1" stop-color="#6600FF" stop-opacity="0"/>
</radialGradient>
</defs>
</svg>
