<svg width="16" height="16" viewBox="0 0 16 16" xmlns="http://www.w3.org/2000/svg" fill="currentColor" size="16"><path d="M12.8062 0.618902C13.1898 0.666753 13.4624 1.01653 13.4146 1.40015L13.1655 3.3982H14.9985C15.385 3.39827 15.6986 3.71194 15.6987 4.09839C15.6987 4.48495 15.3851 4.79852 14.9985 4.79859H12.9907L12.1714 11.3689H14.4995C14.886 11.3689 15.1996 11.6826 15.1997 12.0691C15.1997 12.4557 14.8861 12.7693 14.4995 12.7693H11.9966L11.7261 14.9392C11.6782 15.3227 11.3283 15.5952 10.9448 15.5476C10.5612 15.4998 10.2886 15.15 10.3364 14.7664L10.5854 12.7693H4.24463L3.97412 14.9392C3.92627 15.3228 3.5765 15.5955 3.19287 15.5476C2.80945 15.4996 2.53761 15.1499 2.58545 14.7664L2.83447 12.7693H1.00146C0.614866 12.7693 0.30127 12.4557 0.30127 12.0691C0.301393 11.6826 0.614942 11.3689 1.00146 11.3689H3.00928L3.82861 4.79859H2.11865C1.73228 4.79833 1.41943 4.48483 1.41943 4.09839C1.41956 3.71206 1.73235 3.39846 2.11865 3.3982H4.00342L4.27393 1.22632C4.32188 0.842889 4.67171 0.571178 5.05518 0.618902C5.4388 0.666753 5.71143 1.01653 5.66357 1.40015L5.41455 3.3982H11.7544L12.0249 1.22632C12.0728 0.842921 12.4227 0.57125 12.8062 0.618902ZM4.41943 11.3689H10.7603L11.5796 4.79859H5.23975L4.41943 11.3689Z"></path></svg>