<svg width="14" height="13" viewBox="0 0 14 13" fill="none" xmlns="http://www.w3.org/2000/svg">
<path d="M11.5502 12.1833L9.10016 9.76247C8.75989 9.86941 8.41718 9.94962 8.07204 10.0031C7.7269 10.0566 7.36961 10.0833 7.00016 10.0833C5.53211 10.0833 4.22447 9.6774 3.07725 8.86559C1.93002 8.05379 1.09877 7.00136 0.583496 5.7083C0.787663 5.19302 1.0453 4.7142 1.35641 4.27184C1.66752 3.82948 2.02239 3.4333 2.421 3.0833L0.816829 1.44997L1.6335 0.633301L12.3668 11.3666L11.5502 12.1833ZM7.00016 8.3333C7.10711 8.3333 7.20676 8.32844 7.29912 8.31872C7.39148 8.309 7.49114 8.28955 7.59808 8.26038L4.44808 5.11038C4.41891 5.21733 4.39947 5.31698 4.38975 5.40934C4.38002 5.5017 4.37516 5.60136 4.37516 5.7083C4.37516 6.43747 4.63037 7.05726 5.14079 7.56768C5.6512 8.07809 6.271 8.3333 7.00016 8.3333ZM11.2585 8.5958L9.40641 6.7583C9.47447 6.59302 9.52794 6.42531 9.56683 6.25518C9.60572 6.08504 9.62516 5.90275 9.62516 5.7083C9.62516 4.97913 9.36996 4.35934 8.85954 3.84893C8.34912 3.33851 7.72933 3.0833 7.00016 3.0833C6.80572 3.0833 6.62343 3.10275 6.45329 3.14163C6.28315 3.18052 6.11544 3.23886 5.95016 3.31663L4.46266 1.82913C4.86127 1.66386 5.26961 1.5399 5.68766 1.45726C6.10572 1.37462 6.54322 1.3333 7.00016 1.3333C8.46822 1.3333 9.77586 1.7392 10.9231 2.55101C12.0703 3.36281 12.9016 4.41525 13.4168 5.7083C13.1932 6.28191 12.8991 6.8142 12.5345 7.30518C12.17 7.79615 11.7446 8.22636 11.2585 8.5958ZM8.56058 5.91247L6.81058 4.16247C7.0828 4.11386 7.33315 4.13573 7.56162 4.22809C7.79009 4.32045 7.98697 4.45413 8.15225 4.62913C8.31752 4.80413 8.43662 5.00587 8.50954 5.23434C8.58246 5.46281 8.59947 5.68886 8.56058 5.91247Z" fill="currentColor"/>
</svg>
