<svg width="14" height="10" viewBox="0 0 14 10" fill="none" xmlns="http://www.w3.org/2000/svg">
<path d="M7.00016 7.33325C7.72933 7.33325 8.34912 7.07804 8.85954 6.56763C9.36995 6.05721 9.62516 5.43742 9.62516 4.70825C9.62516 3.97909 9.36995 3.35929 8.85954 2.84888C8.34912 2.33846 7.72933 2.08325 7.00016 2.08325C6.271 2.08325 5.6512 2.33846 5.14079 2.84888C4.63037 3.35929 4.37516 3.97909 4.37516 4.70825C4.37516 5.43742 4.63037 6.05721 5.14079 6.56763C5.6512 7.07804 6.271 7.33325 7.00016 7.33325ZM7.00016 6.28325C6.56266 6.28325 6.19079 6.13013 5.88454 5.82388C5.57829 5.51763 5.42516 5.14575 5.42516 4.70825C5.42516 4.27075 5.57829 3.89888 5.88454 3.59263C6.19079 3.28638 6.56266 3.13325 7.00016 3.13325C7.43766 3.13325 7.80954 3.28638 8.11579 3.59263C8.42204 3.89888 8.57516 4.27075 8.57516 4.70825C8.57516 5.14575 8.42204 5.51763 8.11579 5.82388C7.80954 6.13013 7.43766 6.28325 7.00016 6.28325ZM7.00016 9.08325C5.58072 9.08325 4.28766 8.68707 3.121 7.89471C1.95433 7.10235 1.1085 6.0402 0.583496 4.70825C1.1085 3.37631 1.95433 2.31415 3.121 1.52179C4.28766 0.729433 5.58072 0.333252 7.00016 0.333252C8.41961 0.333252 9.71266 0.729433 10.8793 1.52179C12.046 2.31415 12.8918 3.37631 13.4168 4.70825C12.8918 6.0402 12.046 7.10235 10.8793 7.89471C9.71266 8.68707 8.41961 9.08325 7.00016 9.08325Z" fill="currentColor"/>
</svg>
