<svg width="12" height="10" viewBox="0 0 12 10" fill="none" xmlns="http://www.w3.org/2000/svg">
<path d="M6 0C8.9903 0 11.4781 2.15556 12 5C11.4787 7.84444 8.9903 10 6 10C3.00971 10 0.52186 7.84444 0 5C0.521305 2.15556 3.00971 0 6 0ZM6 8.88889C7.13105 8.88864 8.22852 8.50379 9.11278 7.79732C9.99704 7.09084 10.6157 6.1046 10.8675 5C10.6148 3.89628 9.99571 2.91111 9.11154 2.20557C8.22737 1.50003 7.1304 1.11585 6 1.11585C4.8696 1.11585 3.77264 1.50003 2.88846 2.20557C2.00429 2.91111 1.38521 3.89628 1.13245 5C1.38428 6.1046 2.00296 7.09084 2.88722 7.79732C3.77148 8.50379 4.86895 8.88864 6 8.88889ZM6 7.5C5.33812 7.5 4.70336 7.23661 4.23534 6.76777C3.76732 6.29893 3.50439 5.66304 3.50439 5C3.50439 4.33696 3.76732 3.70107 4.23534 3.23223C4.70336 2.76339 5.33812 2.5 6 2.5C6.66188 2.5 7.29664 2.76339 7.76466 3.23223C8.23268 3.70107 8.49561 4.33696 8.49561 5C8.49561 5.66304 8.23268 6.29893 7.76466 6.76777C7.29664 7.23661 6.66188 7.5 6 7.5ZM6 6.38889C6.36771 6.38889 6.72036 6.24256 6.98037 5.98209C7.24038 5.72163 7.38645 5.36836 7.38645 5C7.38645 4.63164 7.24038 4.27837 6.98037 4.01791C6.72036 3.75744 6.36771 3.61111 6 3.61111C5.63229 3.61111 5.27964 3.75744 5.01963 4.01791C4.75962 4.27837 4.61355 4.63164 4.61355 5C4.61355 5.36836 4.75962 5.72163 5.01963 5.98209C5.27964 6.24256 5.63229 6.38889 6 6.38889Z" fill="currentColor"/>
</svg>
