<svg width="10" height="10" viewBox="0 0 10 10" fill="currentColor" xmlns="http://www.w3.org/2000/svg">
<path d="M5 10C4.16667 10 3.40208 9.81667 2.70625 9.45C2.01042 9.08333 1.43333 8.59167 0.975 7.975L3.025 5.925L4.525 7.175L7 4.7V6H8V3H5V4H6.3L4.475 5.825L2.975 4.575L0.45 7.1C0.308333 6.78333 0.197917 6.44792 0.11875 6.09375C0.0395833 5.73958 0 5.375 0 5C0 4.30833 0.13125 3.65833 0.39375 3.05C0.65625 2.44167 1.0125 1.9125 1.4625 1.4625C1.9125 1.0125 2.44167 0.65625 3.05 0.39375C3.65833 0.13125 4.30833 0 5 0C5.69167 0 6.34167 0.13125 6.95 0.39375C7.55833 0.65625 8.0875 1.0125 8.5375 1.4625C8.9875 1.9125 9.34375 2.44167 9.60625 3.05C9.86875 3.65833 10 4.30833 10 5C10 5.69167 9.86875 6.34167 9.60625 6.95C9.34375 7.55833 8.9875 8.0875 8.5375 8.5375C8.0875 8.9875 7.55833 9.34375 6.95 9.60625C6.34167 9.86875 5.69167 10 5 10Z" fill="#566275"/>
</svg>
