<svg width="14" height="14" viewBox="0 0 14 14" fill="none" xmlns="http://www.w3.org/2000/svg">
<g id="&#233;&#146;&#177;&#229;&#140;&#133;&#229;&#164;&#135;&#228;&#187;&#189; 3">
<g id="Group 1912055960">
<path id="Vector" d="M2.89062 9.09375C2.89013 8.96748 2.86385 8.84179 2.81445 8.72559C2.76597 8.61171 2.69553 8.50873 2.60742 8.42188H2.6084L1.71875 7.5332C1.57841 7.39096 1.50002 7.19887 1.5 6.99902C1.5 6.79896 1.57813 6.60616 1.71875 6.46387L1.71973 6.46484L2.6084 5.57617L2.60742 5.5752C2.69546 5.4883 2.76604 5.38538 2.81445 5.27148C2.86379 5.15534 2.89013 5.03048 2.89062 4.9043V3.63867L2.90527 3.49219C2.93418 3.34839 3.00508 3.21463 3.11035 3.10938C3.21568 3.00419 3.34928 2.9341 3.49316 2.90527L3.63965 2.89062H4.90527C5.03143 2.89008 5.15635 2.86378 5.27246 2.81445C5.38656 2.76597 5.49013 2.69566 5.57715 2.60742L6.46387 1.7207C6.60638 1.57926 6.79917 1.5 7 1.5C7.15055 1.5 7.29624 1.54503 7.41992 1.62695L7.53613 1.7207L8.42285 2.60742C8.50987 2.69566 8.61344 2.76597 8.72754 2.81445C8.84365 2.86378 8.96857 2.89008 9.09473 2.89062H10.3604L10.5068 2.90527C10.6507 2.93411 10.7843 3.00419 10.8896 3.10938C11.03 3.24968 11.109 3.44029 11.1094 3.63867V4.9043C11.1099 5.03049 11.1362 5.15535 11.1855 5.27148C11.2339 5.38517 11.3038 5.4884 11.3916 5.5752V5.57617L12.2803 6.46387C12.4212 6.60621 12.5 6.79873 12.5 6.99902C12.5 7.19909 12.4209 7.39091 12.2803 7.5332L11.3916 8.42188C11.3262 8.48649 11.2707 8.56027 11.2266 8.64062L11.1855 8.72559C11.1362 8.84178 11.1099 8.96748 11.1094 9.09375V10.3594L11.0947 10.5059C11.0658 10.6496 10.9948 10.7825 10.8896 10.8877C10.7492 11.0281 10.559 11.1072 10.3604 11.1074H9.09473C9.00026 11.1078 8.90627 11.1224 8.81641 11.1504L8.72754 11.1836C8.61341 11.2321 8.50989 11.3024 8.42285 11.3906L7.53516 12.2783H7.53418C7.46403 12.3485 7.38073 12.4044 7.28906 12.4424C7.1974 12.4803 7.09922 12.5 7 12.5C6.90079 12.5 6.8026 12.4803 6.71094 12.4424C6.61927 12.4044 6.53597 12.3485 6.46582 12.2783H6.46484L5.57715 11.3906C5.51223 11.3248 5.43823 11.2689 5.35742 11.2246L5.27246 11.1836L5.18359 11.1504C5.09373 11.1224 4.99974 11.1078 4.90527 11.1074H3.63965C3.44105 11.1072 3.25076 11.0281 3.11035 10.8877C2.97012 10.7474 2.89098 10.5577 2.89062 10.3594V9.09375Z" stroke="currentColor"/>
<path id="Vector_2" d="M5.5 7.30005C5.5 7.30005 5.5 7.30005 6.5 8.30005C6.5 8.30005 7.5 7.30005 9 5.80005" stroke="currentColor" stroke-linecap="round" stroke-linejoin="round"/>
</g>
</g>
</svg>
