<svg width="12" height="10" viewBox="0 0 12 10" fill="none" xmlns="http://www.w3.org/2000/svg">
<path d="M6.54545 7.74333V8.88889H9.27273V10H2.72727V8.88889H5.45455V7.74333C4.40002 7.60789 3.43027 7.08515 2.72727 6.27319C2.02428 5.46124 1.63638 4.41589 1.63636 3.33333V0H10.3636V3.33333C10.3636 4.41589 9.97572 5.46124 9.27273 6.27319C8.56973 7.08515 7.59998 7.60789 6.54545 7.74333ZM2.72727 1.11111V3.33333C2.72727 4.21739 3.07208 5.06523 3.68583 5.69036C4.29959 6.31548 5.13202 6.66667 6 6.66667C6.86798 6.66667 7.70041 6.31548 8.31417 5.69036C8.92792 5.06523 9.27273 4.21739 9.27273 3.33333V1.11111H2.72727ZM0 1.11111H1.09091V3.33333H0V1.11111ZM10.9091 1.11111H12V3.33333H10.9091V1.11111Z" fill="currentColor"/>
</svg>
