<svg width="11" height="10" viewBox="0 0 11 10" fill="none" xmlns="http://www.w3.org/2000/svg">
<path d="M7.75781 3L5.01562 9.75H6.12281L6.6968 8.39062H8.81883L9.39281 9.75H10.5L7.75781 3ZM7.13227 7.35938L7.75781 5.43398L8.38336 7.35938H7.13227Z" fill="#FFA622"/>
<path d="M5.625 6.375C5.61914 6.37055 5.14242 6.00539 4.56047 5.37492C5.48812 4.11773 6.01359 2.68875 6.22805 2.01562H7.5V0.984375H4.26562V0H3.23438V0.984375H0V2.01562H5.13867C4.91555 2.64727 4.50469 3.64453 3.87797 4.55531C3.11203 3.53719 2.77313 2.77688 2.76867 2.76891L2.60156 2.4375L1.71094 2.95312L1.87195 3.27797C1.89281 3.31453 2.27484 4.16625 3.15422 5.30695C3.17578 5.33531 3.19758 5.36297 3.21938 5.39062C2.05406 6.72328 1.12992 7.2443 1.11797 7.2532L0.75 7.5L1.28906 8.34375L1.74141 8.07492C1.79297 8.03578 2.71008 7.51242 3.89766 6.18164C4.47234 6.79758 4.91062 7.13859 4.93594 7.15828L5.22656 7.35938L5.625 6.375Z" fill="#FFA622"/>
</svg>
