<svg width="16" height="16" viewBox="0 0 16 16" fill="none" xmlns="http://www.w3.org/2000/svg">
<path d="M8.42462 2.8891C9.79146 1.52226 12.0075 1.52226 13.3744 2.8891C14.7412 4.25594 14.7412 6.47202 13.3744 7.83885L8.42462 12.7886C7.05779 14.1554 4.84171 14.1554 3.47487 12.7886C2.10804 11.4218 2.10804 9.20568 3.47487 7.83885L8.42462 2.8891ZM4.18198 8.54595C3.20567 9.52226 3.20567 11.1052 4.18198 12.0815C5.15829 13.0578 6.74121 13.0578 7.71751 12.0815L10.1917 9.6073L6.65616 6.07177L4.18198 8.54595ZM10.8988 8.9002L12.6673 7.13174C13.6436 6.15544 13.6436 4.57252 12.6673 3.59621C11.691 2.6199 10.108 2.6199 9.13173 3.59621L7.36327 5.36466L10.8988 8.9002Z" fill="currentColor"/>
</svg>
