<svg width="16" height="16" viewBox="0 0 16 16" fill="currentColor" xmlns="http://www.w3.org/2000/svg">
<g clip-path="url(#clip0_1090_7785)">
<path d="M13.9996 8.00111C13.9996 4.6934 11.3162 2.01196 8.00604 2.01196C4.69581 2.01196 2.01233 4.69341 2.01233 8.00111C2.01233 11.0566 4.30207 13.5775 7.26042 13.9443C7.4272 13.9795 7.63032 14 7.87225 14C7.94018 14 8.00567 13.9964 8.06892 13.9899C11.3501 13.9562 13.9996 11.288 13.9996 8.00111ZM13.1426 8.08585C13.1254 7.78702 13.0859 7.49452 13.0258 7.21025C13.0311 7.10874 13.0326 7.01258 13.0298 6.92317C13.1042 7.27075 13.1434 7.63136 13.1434 8.00111C13.1433 8.02936 13.1431 8.05761 13.1426 8.08585ZM2.86859 8.00112C2.86859 7.6381 2.90639 7.28392 2.97811 6.94219C3.19997 7.17947 3.72288 7.17387 3.8504 6.81935C4.07858 6.95534 4.38521 6.9801 4.38521 7.25192C4.38521 8.14899 4.41716 9.11072 5.23224 9.12558C5.25519 9.12589 5.68679 9.28915 5.8922 9.82187C5.96321 10.006 6.24415 9.82187 6.55222 9.82187C6.70602 9.82187 6.55222 10.081 6.55222 10.6413C6.55222 11.1994 7.7555 12.0588 7.7555 12.0588C7.74993 12.4282 7.76511 12.7269 7.79585 12.9656C7.52424 12.9606 7.29534 12.9966 7.11552 13.0578C4.70265 12.6364 2.86858 10.5329 2.86858 8.00111L2.86859 8.00112ZM9.27078 12.9779C9.24415 12.8475 9.12764 12.7761 8.91505 12.832C9.08467 12.1096 9.16713 11.705 9.52124 11.3978C10.0336 10.9536 9.58224 10.4598 9.19237 10.518C8.88508 10.5644 9.07927 10.1375 8.805 10.1139C8.53073 10.0909 8.17254 9.54537 7.77781 9.35766C7.56857 9.25829 7.36293 8.99199 7.04024 8.98006C6.75422 8.96897 6.33622 9.22191 6.33622 9.02694C6.33622 8.39892 6.27262 7.95078 6.25956 7.77181C6.24901 7.62802 6.16557 7.72338 6.55222 7.73267C6.76265 7.73831 6.65987 7.31 6.86816 7.29328C7.07272 7.27708 7.56017 7.48476 7.68437 7.40199C7.79975 7.32492 8.53247 9.32535 8.53247 7.73266C8.53247 7.54368 8.4346 7.21511 8.53247 7.03613C8.91954 6.32888 9.2819 5.75247 9.24936 5.66815C9.2309 5.62068 8.85336 5.58148 8.55128 5.68284C8.44933 5.71688 8.58371 5.87655 8.43729 5.91065C7.88868 6.03731 7.40399 5.76274 7.57372 5.50465C7.74752 5.24016 8.37727 5.38927 8.43249 4.85866C8.46425 4.55472 8.49057 4.20271 8.5082 3.94109C9.24652 4.05656 9.16524 2.98288 8.06741 2.86796C10.2884 2.89394 12.1705 4.3283 12.8611 6.31898C12.8262 6.28712 12.7855 6.26776 12.7386 6.26302C12.4067 5.43392 11.601 6.03394 11.8743 6.76523C10.41 7.89091 10.7848 8.67601 11.2659 9.12558C11.5191 9.36192 11.7604 9.71735 11.9176 9.97261C11.7465 10.4714 12.5478 10.2717 12.943 9.42523C12.4404 11.1685 11.0381 12.5308 9.27078 12.9779Z" fill="#F5F5F5"/>
</g>
<defs>
<clipPath id="clip0_1090_7785">
<rect width="12" height="12" fill="white" transform="translate(2 2)"/>
</clipPath>
</defs>
</svg>
