<svg width="16" height="16" viewBox="0 0 16 16" fill="none" xmlns="http://www.w3.org/2000/svg">
<path d="M8 3.79961C8.00014 3.65656 8.07659 3.52445 8.20055 3.45305C8.3245 3.38165 8.47713 3.3818 8.60095 3.45345C8.72476 3.5251 8.80094 3.65736 8.8008 3.80041C8.8008 4.02154 8.62154 4.20081 8.4004 4.20081C8.17927 4.20081 8 4.02154 8 3.80041V3.79961ZM8 2.59961C8.548 2.59961 8.9936 3.05161 8.9936 3.60761C8.9936 4.02281 8.7344 4.40121 8.3488 4.54841L8.316 4.56121V5.48921L8.3624 5.49241C10.7456 5.68201 12.612 7.73241 12.612 10.1596V10.8204H13.1912C13.5896 10.8204 13.9144 10.4764 13.9144 10.0524V8.19561L13.876 8.18681C13.1016 7.99081 12.5608 7.27721 12.5608 6.45081C12.5608 5.86681 12.8344 5.32361 13.2944 4.98921L13.704 5.60681C13.4426 5.8084 13.2908 6.12075 13.2936 6.45081C13.2936 7.02681 13.7368 7.49481 14.2808 7.49481C14.8248 7.49481 15.2672 7.02601 15.2672 6.45081C15.2672 6.11481 15.1152 5.80281 14.8568 5.60681L15.2664 4.98921C15.7264 5.32361 16 5.86601 16 6.45081C16 7.27801 15.4592 7.99161 14.6848 8.18681L14.6472 8.19641V10.054C14.6472 10.8876 13.9936 11.566 13.1912 11.566H12.612V14.2644C12.612 14.8908 12.1096 15.4004 11.492 15.4004H4.508C3.8904 15.4004 3.388 14.8908 3.388 14.2644V11.5652H2.8096C2.0072 11.5652 1.3536 10.8876 1.3536 10.0532V8.19641L1.3152 8.18681C0.5408 7.99081 0 7.27721 0 6.45001C0 5.86601 0.2728 5.32281 0.7336 4.98841L1.1432 5.60601C0.881836 5.8076 0.729954 6.11995 0.7328 6.45001C0.7328 7.02601 1.1752 7.49401 1.7184 7.49401C2.2624 7.49401 2.7056 7.02521 2.7056 6.45001C2.7056 6.11401 2.5536 5.80201 2.296 5.60601L2.7056 4.98841C3.1656 5.32281 3.4392 5.86521 3.4392 6.45001C3.4392 7.27641 2.8984 7.99001 2.124 8.18601L2.0856 8.19481V10.0532C2.0856 10.4764 2.4104 10.8204 2.8088 10.8204H3.3872V10.1596C3.3872 7.73161 5.2544 5.68201 7.6376 5.49241L7.684 5.48921V4.56121L7.6512 4.54841C7.26333 4.39714 7.00754 4.02393 7.0064 3.60761C7.0064 3.05161 7.452 2.59961 8 2.59961ZM8.908 11.3996H7.092C6.7104 11.3996 6.4 11.758 6.4 12.1996C6.4 12.6404 6.7104 12.9996 7.092 12.9996H8.908C9.2896 12.9996 9.6 12.6404 9.6 12.1996C9.6 11.758 9.2896 11.3996 8.908 11.3996ZM6.4 8.99961C5.9592 8.99961 5.6 9.35881 5.6 9.79961C5.61914 10.2275 5.97165 10.5646 6.4 10.5646C6.82835 10.5646 7.18086 10.2275 7.2 9.79961C7.2 9.35881 6.8416 8.99961 6.4 8.99961ZM9.6 8.99961C9.1592 8.99961 8.8 9.35881 8.8 9.79961C8.81914 10.2275 9.17165 10.5646 9.6 10.5646C10.0284 10.5646 10.3809 10.2275 10.4 9.79961C10.4 9.35881 10.0416 8.99961 9.6 8.99961ZM8.4 3.39961C8.25695 3.39975 8.12484 3.4762 8.05344 3.60016C7.98204 3.72411 7.98219 3.87674 8.05384 4.00056C8.12549 4.12437 8.25775 4.20055 8.4008 4.20041C8.62193 4.20019 8.80102 4.02074 8.8008 3.79961C8.80058 3.57847 8.62114 3.39939 8.4 3.39961Z" fill="currentColor"/>
</svg>
