<svg width="12" height="13" viewBox="0 0 12 13" fill="currentColor" xmlns="http://www.w3.org/2000/svg">
<path d="M1.74503 10.233V9.02913H2.91008V4.81553C2.91008 4.48447 2.95134 4.15841 3.03387 3.83738C3.11639 3.51634 3.24018 3.21036 3.40523 2.91942L5.24018 4.81553H3.60911L0.230469 1.32427L1.046 0.481553L11.7644 11.5573L10.9489 12.4L8.8227 10.233H1.74503ZM9.90037 7.91553L4.19163 2.0165C4.38581 1.85599 4.59455 1.71553 4.81785 1.59515C5.04115 1.47476 5.27901 1.38447 5.53144 1.32427V0.902913C5.53144 0.652104 5.61639 0.438916 5.78629 0.26335C5.9562 0.0877832 6.16251 0 6.40523 0C6.64794 0 6.85426 0.0877832 7.02416 0.26335C7.19406 0.438916 7.27901 0.652104 7.27901 0.902913V1.32427C8.05571 1.52492 8.68678 1.94879 9.17222 2.59587C9.65765 3.24296 9.90037 3.98285 9.90037 4.81553V7.91553ZM6.40523 12.0388C6.08484 12.0388 5.81057 11.921 5.58241 11.6852C5.35426 11.4494 5.24018 11.166 5.24018 10.835H7.57027C7.57027 11.166 7.4562 11.4494 7.22804 11.6852C6.99989 11.921 6.72561 12.0388 6.40523 12.0388Z" fill="#666666"/>
</svg>
