<svg width="10" height="10" viewBox="0 0 10 10" fill="none" xmlns="http://www.w3.org/2000/svg">
<path d="M8.10455 8.41679H1.22891C1.18513 8.41679 1.14223 8.40509 1.10499 8.38301C1.06776 8.36093 1.03767 8.32933 1.01809 8.29177C0.99852 8.2542 0.990233 8.21214 0.994164 8.17031C0.998095 8.12847 1.01409 8.08852 1.04035 8.05492L1.22891 7.81381V3.89334C1.22891 3.29172 1.38163 2.72448 1.65268 2.22554L0 0.640069L0.667012 0L10 8.95644L9.33299 9.59606L8.10455 8.41679ZM8.77109 6.51061L2.90657 0.882978C3.47447 0.519269 4.13462 0.310334 4.81658 0.278466C5.49853 0.246598 6.17671 0.392993 6.77875 0.702031C7.38079 1.01107 7.88411 1.47115 8.23499 2.0332C8.58588 2.59524 8.77117 3.23815 8.77109 3.89334V6.51061ZM3.82153 8.86914H6.17847C6.17847 9.16906 6.05431 9.4567 5.8333 9.66878C5.6123 9.88086 5.31255 10 5 10C4.68745 10 4.3877 9.88086 4.1667 9.66878C3.94569 9.4567 3.82153 9.16906 3.82153 8.86914V8.86914Z" fill="currentColor"/>
</svg>
