<svg width="10" height="10" viewBox="0 0 10 10" fill="none" xmlns="http://www.w3.org/2000/svg">
<path d="M8.76471 7.75209L8.95294 8C8.97916 8.03455 8.99513 8.07564 8.99905 8.11865C9.00297 8.16166 8.9947 8.20491 8.97516 8.24354C8.95562 8.28217 8.92558 8.31466 8.88841 8.33736C8.85124 8.36007 8.8084 8.37209 8.76471 8.37209H1.23529C1.1916 8.37209 1.14876 8.36007 1.11159 8.33736C1.07442 8.31466 1.04438 8.28217 1.02484 8.24354C1.0053 8.20491 0.997027 8.16166 1.00095 8.11865C1.00488 8.07564 1.02084 8.03455 1.04706 8L1.23529 7.75209V3.72093C1.23529 2.73408 1.63193 1.78765 2.33795 1.08984C3.04397 0.392026 4.00154 0 5 0C5.99846 0 6.95603 0.392026 7.66205 1.08984C8.36807 1.78765 8.76471 2.73408 8.76471 3.72093V7.75209ZM3.82353 8.83721H6.17647C6.17647 9.1456 6.05252 9.44136 5.83189 9.65943C5.61126 9.87749 5.31202 10 5 10C4.68798 10 4.38874 9.87749 4.16811 9.65943C3.94748 9.44136 3.82353 9.1456 3.82353 8.83721V8.83721Z" fill="currentColor"/>
</svg>
