<svg width="12" height="10" viewBox="0 0 12 10" fill="none" xmlns="http://www.w3.org/2000/svg">
<path d="M5 9.80371H0V8.30371H5V9.80371ZM5 5.80371H0V4.30371H5V5.80371ZM5 1.80371H0V0.303711H5V1.80371Z" fill="currentColor"/>
<path d="M10.9022 6.74502L8.79694 9.35735C8.72284 9.44924 8.49994 9.70361 8.49994 9.70361C8.49994 9.70361 8.27705 9.44924 8.20295 9.35735L6.09766 6.74502L6.69184 6.18051L8.49994 8.42446L10.308 6.18071L10.9022 6.74502Z" fill="currentColor"/>
<path d="M10.308 3.82692L8.49994 1.58297L6.69184 3.82672L6.09766 3.26221L8.20295 0.649877C8.27704 0.557987 8.49994 0.303614 8.49994 0.303614C8.49994 0.303614 8.72284 0.557987 8.79694 0.649877L10.9022 3.26221L10.308 3.82692Z" fill="currentColor"/>
<path d="M10.9022 6.74502L8.79694 9.35735C8.72284 9.44924 8.49994 9.70361 8.49994 9.70361C8.49994 9.70361 8.27705 9.44924 8.20295 9.35735L6.09766 6.74502L6.69184 6.18051L8.49994 8.42446L10.308 6.18071L10.9022 6.74502Z" stroke="currentColor" stroke-width="0.4"/>
<path d="M10.308 3.82692L8.49994 1.58297L6.69184 3.82672L6.09766 3.26221L8.20295 0.649877C8.27704 0.557987 8.49994 0.303614 8.49994 0.303614C8.49994 0.303614 8.72284 0.557987 8.79694 0.649877L10.9022 3.26221L10.308 3.82692Z" stroke="currentColor" stroke-width="0.4"/>
</svg>
