<svg width="34" height="14" viewBox="0 0 34 14" fill="currentColor" xmlns="http://www.w3.org/2000/svg">
<path d="M29.1481 14C28.1124 14 27.2062 13.7657 26.4294 13.2972C25.6527 12.8287 25.0485 12.1937 24.617 11.3923C24.1855 10.5909 23.9697 9.70321 23.9697 8.72919C23.9697 7.71818 24.1855 6.8243 24.617 6.04755C25.0609 5.25846 25.6589 4.63583 26.4109 4.17964C27.1754 3.72345 28.0261 3.49536 28.9631 3.49536C29.7522 3.49536 30.4427 3.62482 31.0345 3.88374C31.6386 4.14265 32.1503 4.50021 32.5695 4.95639C32.9887 5.41258 33.3092 5.93658 33.5312 6.52839C33.7531 7.10787 33.8641 7.73667 33.8641 8.41479C33.8641 8.5874 33.8517 8.76617 33.8271 8.95111C33.8147 9.13605 33.7839 9.29634 33.7346 9.43196H25.9671V7.58255H32.366L31.2194 8.45178C31.3304 7.88462 31.2995 7.37912 31.1269 6.93526C30.9667 6.4914 30.6954 6.14001 30.3132 5.8811C29.9433 5.62218 29.4933 5.49272 28.9631 5.49272C28.4576 5.49272 28.0076 5.62218 27.6131 5.8811C27.2185 6.12769 26.9164 6.49757 26.7068 6.99074C26.5096 7.47159 26.4356 8.05723 26.4849 8.74768C26.4356 9.36415 26.5157 9.91281 26.7253 10.3937C26.9473 10.8622 27.2678 11.2259 27.687 11.4848C28.1186 11.7437 28.6117 11.8732 29.1666 11.8732C29.7214 11.8732 30.1899 11.7561 30.5721 11.5218C30.9667 11.2875 31.2749 10.9731 31.4968 10.5786L33.4572 11.5403C33.2599 12.0211 32.9517 12.4465 32.5325 12.8164C32.1133 13.1863 31.6139 13.476 31.0345 13.6856C30.4673 13.8952 29.8385 14 29.1481 14Z" fill="white"/>
<path d="M17.115 13.7781L13.1572 3.71729H15.8019L18.6685 11.6328H17.6883L20.5734 3.71729H23.218L19.2603 13.7781H17.115Z" fill="white"/>
<path d="M0.551025 13.7781L5.304 0H8.55896L13.3119 13.7781H10.5748L9.59463 10.819H4.26833L3.26965 13.7781H0.551025ZM4.9896 8.59975H8.87336L6.58009 1.73844H7.28287L4.9896 8.59975Z" fill="white"/>
</svg>
