<svg width="69" height="14" viewBox="0 0 69 14" fill="currentColor" xmlns="http://www.w3.org/2000/svg">
<path d="M62.8165 14C61.8302 14 60.9301 13.7719 60.1164 13.3157C59.315 12.8595 58.6739 12.2369 58.193 11.4478C57.7245 10.6587 57.4902 9.75869 57.4902 8.74768C57.4902 7.73667 57.7245 6.83663 58.193 6.04755C58.6739 5.25846 59.315 4.63583 60.1164 4.17964C60.9178 3.72345 61.8179 3.49536 62.8165 3.49536C63.8029 3.49536 64.6968 3.72345 65.4982 4.17964C66.2996 4.63583 66.9345 5.25846 67.4031 6.04755C67.8839 6.8243 68.1243 7.72434 68.1243 8.74768C68.1243 9.75869 67.8839 10.6587 67.4031 11.4478C66.9222 12.2369 66.2811 12.8595 65.4797 13.3157C64.6783 13.7719 63.7906 14 62.8165 14ZM62.8165 11.7807C63.359 11.7807 63.8337 11.6512 64.2406 11.3923C64.6598 11.1334 64.9865 10.7759 65.2208 10.3197C65.4673 9.85116 65.5906 9.32716 65.5906 8.74768C65.5906 8.15587 65.4673 7.63803 65.2208 7.19418C64.9865 6.73799 64.6598 6.38044 64.2406 6.12152C63.8337 5.85027 63.359 5.71465 62.8165 5.71465C62.2617 5.71465 61.7747 5.85027 61.3555 6.12152C60.9363 6.38044 60.6034 6.73799 60.3568 7.19418C60.1226 7.63803 60.0054 8.15587 60.0054 8.74768C60.0054 9.32716 60.1226 9.85116 60.3568 10.3197C60.6034 10.7759 60.9363 11.1334 61.3555 11.3923C61.7747 11.6512 62.2617 11.7807 62.8165 11.7807Z" fill="white"/>
<path d="M50.98 13.7781V3.71729H53.2547V5.95507L53.0698 5.62218C53.3041 4.87009 53.6678 4.34609 54.161 4.05018C54.6665 3.75428 55.2706 3.60632 55.9734 3.60632H56.5652V5.75164H55.696C55.0055 5.75164 54.4507 5.9674 54.0315 6.39893C53.6123 6.81813 53.4027 7.40994 53.4027 8.17436V13.7781H50.98Z" fill="white"/>
<path d="M39.1912 13.7781V0H44.3325C45.2695 0 46.0956 0.172612 46.8107 0.517835C47.5382 0.850728 48.1053 1.3439 48.5122 1.99736C48.919 2.63849 49.1225 3.4214 49.1225 4.34611C49.1225 5.25848 48.9129 6.0414 48.4937 6.69486C48.0868 7.33598 47.5258 7.82916 46.8107 8.17438C46.0956 8.51961 45.2695 8.69222 44.3325 8.69222H41.7064V13.7781H39.1912ZM41.7064 6.47293H44.3695C44.8257 6.47293 45.2202 6.38662 45.5531 6.21401C45.886 6.02907 46.1449 5.77632 46.3299 5.45575C46.5148 5.13519 46.6073 4.76531 46.6073 4.34611C46.6073 3.91458 46.5148 3.5447 46.3299 3.23646C46.1449 2.9159 45.886 2.66931 45.5531 2.4967C45.2202 2.31176 44.8257 2.21929 44.3695 2.21929H41.7064V6.47293Z" fill="white"/>
<path d="M29.1481 14C28.1124 14 27.2062 13.7657 26.4294 13.2972C25.6527 12.8287 25.0485 12.1937 24.617 11.3923C24.1855 10.5909 23.9697 9.70321 23.9697 8.72919C23.9697 7.71818 24.1855 6.8243 24.617 6.04755C25.0609 5.25846 25.6589 4.63583 26.4109 4.17964C27.1754 3.72345 28.0261 3.49536 28.9631 3.49536C29.7522 3.49536 30.4427 3.62482 31.0345 3.88374C31.6386 4.14265 32.1503 4.50021 32.5695 4.95639C32.9887 5.41258 33.3092 5.93658 33.5312 6.52839C33.7531 7.10787 33.8641 7.73667 33.8641 8.41479C33.8641 8.5874 33.8517 8.76617 33.8271 8.95111C33.8147 9.13605 33.7839 9.29634 33.7346 9.43196H25.9671V7.58255H32.366L31.2194 8.45178C31.3304 7.88462 31.2995 7.37912 31.1269 6.93526C30.9667 6.4914 30.6954 6.14001 30.3132 5.8811C29.9433 5.62218 29.4933 5.49272 28.9631 5.49272C28.4576 5.49272 28.0076 5.62218 27.6131 5.8811C27.2185 6.12769 26.9164 6.49757 26.7068 6.99074C26.5096 7.47159 26.4356 8.05723 26.4849 8.74768C26.4356 9.36415 26.5157 9.91281 26.7253 10.3937C26.9473 10.8622 27.2678 11.2259 27.687 11.4848C28.1186 11.7437 28.6117 11.8732 29.1666 11.8732C29.7214 11.8732 30.1899 11.7561 30.5721 11.5218C30.9667 11.2875 31.2749 10.9731 31.4968 10.5786L33.4572 11.5403C33.2599 12.0211 32.9517 12.4465 32.5325 12.8164C32.1133 13.1863 31.6139 13.476 31.0345 13.6856C30.4673 13.8952 29.8385 14 29.1481 14Z" fill="white"/>
<path d="M17.115 13.7781L13.1572 3.71729H15.8019L18.6685 11.6328H17.6883L20.5734 3.71729H23.218L19.2603 13.7781H17.115Z" fill="white"/>
<path d="M0.551025 13.7781L5.304 0H8.55896L13.3119 13.7781H10.5748L9.59463 10.819H4.26833L3.26965 13.7781H0.551025ZM4.9896 8.59975H8.87336L6.58009 1.73844H7.28287L4.9896 8.59975Z" fill="white"/>
</svg>
