<svg width="10" height="12" viewBox="0 0 10 12" xmlns="http://www.w3.org/2000/svg" fill="currentColor" >
<path d="M7.14004 9.58135C5.49774 10.7616 3.54695 10.3097 2.43011 9.87768C1.95713 10.9017 1.79776 11.6032 1.79456 11.6198C1.74656 11.8458 1.54688 12 1.32479 12C1.29215 12 1.25887 11.9968 1.22558 11.9898C0.966375 11.9354 0.800609 11.6813 0.855011 11.4221C0.888932 11.2595 1.68448 7.63568 5.30701 4.53797C3.8964 5.19079 1.96929 6.66797 0.995816 8.92853C0.157385 7.25167 0.144585 4.14756 2.85828 2.6819C4.00392 2.06748 5.16237 1.94588 6.56402 1.46586C7.57525 1.11385 8.17047 0.409822 8.41368 0.057809C8.47129 -0.0317943 8.59929 -0.0125936 8.63129 0.0834099C9.07931 1.29305 10.8778 6.89326 7.14004 9.58135Z" fill="#666666"/>
</svg>
