<svg width="12" height="12" viewBox="0 0 12 12" fill="none" xmlns="http://www.w3.org/2000/svg">
<path d="M6 12C2.6862 12 0 9.3138 0 6C0 2.6862 2.6862 0 6 0C9.3138 0 12 2.6862 12 6C12 9.3138 9.3138 12 6 12ZM5.1732 3.849C5.13709 3.82491 5.09512 3.81106 5.05176 3.80893C5.00841 3.8068 4.96528 3.81648 4.92699 3.83692C4.88869 3.85736 4.85666 3.8878 4.8343 3.92501C4.81193 3.96222 4.80008 4.00479 4.8 4.0482V7.9518C4.80008 7.99521 4.81193 8.03779 4.8343 8.07499C4.85666 8.1122 4.88869 8.14264 4.92699 8.16308C4.96528 8.18352 5.00841 8.1932 5.05176 8.19107C5.09512 8.18894 5.13709 8.17509 5.1732 8.151L8.1006 6.1998C8.13352 6.17789 8.16052 6.14819 8.17919 6.11333C8.19786 6.07848 8.20763 6.03954 8.20763 6C8.20763 5.96046 8.19786 5.92153 8.17919 5.88667C8.16052 5.85181 8.13352 5.82211 8.1006 5.8002L5.1726 3.849H5.1732Z" fill="currentColor"/>
</svg>
