<svg width="16" height="16" viewBox="0 0 16 16" fill="none" xmlns="http://www.w3.org/2000/svg">
<g clip-path="url(#clip0_13209_81815)">
<path fill-rule="evenodd" clip-rule="evenodd" d="M15.1519 2.38502C15.1519 1.53702 14.464 0.849521 13.616 0.849121H2.38375C1.53555 0.849121 0.847955 1.53672 0.847955 2.38492V13.6161C0.847955 14.4643 1.53555 15.1519 2.38375 15.1519H13.6161C14.4641 15.1516 15.1519 14.4641 15.1519 13.6161V2.38502ZM13.3261 8.89502C13.326 9.03078 13.2721 9.16097 13.1761 9.25696C13.0801 9.35295 12.9499 9.40689 12.8142 9.40692H3.18575C3.11852 9.40692 3.05194 9.39368 2.98982 9.36795C2.9277 9.34222 2.87126 9.3045 2.82372 9.25696C2.77617 9.20942 2.73846 9.15297 2.71273 9.09085C2.687 9.02874 2.67376 8.96216 2.67376 8.89492V3.24892C2.67376 3.18168 2.687 3.11511 2.71273 3.05299C2.73846 2.99087 2.77617 2.93443 2.82372 2.88688C2.87126 2.83934 2.9277 2.80163 2.98982 2.77589C3.05194 2.75016 3.11852 2.73692 3.18575 2.73692H12.8142C12.9499 2.73692 13.0802 2.79086 13.1762 2.88688C13.2722 2.9829 13.3262 3.11313 13.3262 3.24892L13.3261 8.89502Z" fill="#707275"/>
</g>
<defs>
<clipPath id="clip0_13209_81815">
<rect width="16" height="16" fill="white" transform="matrix(0 1 -1 0 16 0)"/>
</clipPath>
</defs>
</svg>
