<svg width="14" height="14" viewBox="0 0 14 14" fill="currentColor" xmlns="http://www.w3.org/2000/svg">
<path d="M14 11.7232V10.9519C14 10.7156 13.8064 10.524 13.5677 10.524H9.07816V12.1511H13.5677C13.8064 12.1503 14 11.9587 14 11.7232ZM0.875 6.6135V7.38491C0.875 7.62116 1.06866 7.81279 1.30734 7.81279H7.98386V6.18555H1.30734C1.06866 6.18727 0.875 6.37726 0.875 6.6135ZM0.875 10.951V11.7224C0.875 11.9587 1.06866 12.1503 1.30734 12.1503H5.24974V10.5239H1.30732C1.06866 10.5247 0.875 10.7156 0.875 10.951ZM0.875 2.27597V3.04732C0.875 3.28364 1.06866 3.47526 1.30734 3.47526H3.61076V1.8481H1.30732C1.06866 1.84967 0.875 2.03965 0.875 2.27597ZM4.1563 1.30735V4.01845C4.1563 4.31809 4.40076 4.56005 4.70342 4.56005H6.34403C6.64676 4.56005 6.89121 4.31809 6.89121 4.01845V1.30735C6.89121 1.00771 6.6459 0.765694 6.34403 0.765694H4.7034C4.40074 0.7641 4.1563 1.00849 4.1563 1.30735ZM14 3.04896V2.27761C14 2.04136 13.8064 1.84967 13.5677 1.84967H7.43753V3.47683H13.5677C13.8064 3.47526 14 3.28442 14 3.04896ZM8.53097 5.64403V8.35604C8.53097 8.65562 8.77542 8.89758 9.07814 8.89758H10.7188C11.0214 8.89758 11.2659 8.65562 11.2659 8.35604V5.64561C11.2659 5.34603 11.0214 5.10407 10.7188 5.10407H9.07816C8.77542 5.10163 8.53097 5.34439 8.53097 5.64403ZM14 7.38649V6.61514C14 6.37882 13.8064 6.18727 13.5677 6.18727H11.8122V7.81279H13.5677C13.8064 7.81279 14 7.62281 14 7.38649ZM5.79692 9.98156V12.6927C5.79692 12.9924 6.04137 13.2343 6.34403 13.2343H7.98465C8.28737 13.2343 8.53182 12.9924 8.53182 12.6927V9.98156C8.53182 9.68192 8.28651 9.44002 7.98465 9.44002H6.34403C6.04137 9.44002 5.79692 9.68192 5.79692 9.98156Z" fill="#666666"/>
</svg>
