<svg width="14" height="14" viewBox="0 0 14 14" fill="none" xmlns="http://www.w3.org/2000/svg">
<g clip-path="url(#clip0_7909_79286)">
<path d="M14 11.7232V10.9518C14 10.7155 13.8064 10.5239 13.5677 10.5239H9.07816V12.1511H13.5677C13.8064 12.1503 14 11.9586 14 11.7232ZM0.875 6.61344V7.38485C0.875 7.6211 1.06866 7.81273 1.30734 7.81273H7.98386V6.18549H1.30734C1.06866 6.18721 0.875 6.37719 0.875 6.61344ZM0.875 10.951V11.7223C0.875 11.9586 1.06866 12.1503 1.30734 12.1503H5.24974V10.5239H1.30732C1.06866 10.5247 0.875 10.7155 0.875 10.951ZM0.875 2.27591V3.04726C0.875 3.28358 1.06866 3.47519 1.30734 3.47519H3.61076V1.84804H1.30732C1.06866 1.84961 0.875 2.03959 0.875 2.27591ZM4.1563 1.30729V4.01839C4.1563 4.31803 4.40076 4.55999 4.70342 4.55999H6.34403C6.64676 4.55999 6.89121 4.31803 6.89121 4.01839V1.30729C6.89121 1.00765 6.6459 0.765633 6.34403 0.765633H4.7034C4.40074 0.764039 4.1563 1.00843 4.1563 1.30729ZM14 3.0489V2.27755C14 2.0413 13.8064 1.84961 13.5677 1.84961H7.43753V3.47677H13.5677C13.8064 3.47519 14 3.28436 14 3.0489ZM8.53097 5.64397V8.35598C8.53097 8.65556 8.77542 8.89752 9.07814 8.89752H10.7188C11.0214 8.89752 11.2659 8.65556 11.2659 8.35598V5.64555C11.2659 5.34597 11.0214 5.10401 10.7188 5.10401H9.07816C8.77542 5.10157 8.53097 5.34433 8.53097 5.64397ZM14 7.38643V6.61508C14 6.37876 13.8064 6.18721 13.5677 6.18721H11.8122V7.81273H13.5677C13.8064 7.81273 14 7.62275 14 7.38643ZM5.79692 9.9815V12.6927C5.79692 12.9923 6.04137 13.2343 6.34403 13.2343H7.98465C8.28737 13.2343 8.53182 12.9923 8.53182 12.6927V9.9815C8.53182 9.68186 8.28651 9.43996 7.98465 9.43996H6.34403C6.04137 9.43996 5.79692 9.68186 5.79692 9.9815Z" fill="#999999"/>
</g>
<defs>
<clipPath id="clip0_7909_79286">
<rect width="14" height="14" fill="white"/>
</clipPath>
</defs>
</svg>
