<svg width="16" height="16" viewBox="0 0 16 16" fill="none" xmlns="http://www.w3.org/2000/svg">
<g clip-path="url(#clip0_13209_81812)">
<path fill-rule="evenodd" clip-rule="evenodd" d="M2.38502 0.848145C1.53702 0.848145 0.849521 1.53604 0.849121 2.38404V13.6162C0.849121 14.4644 1.53672 15.152 2.38492 15.152H13.6161C14.4643 15.152 15.1519 14.4644 15.1519 13.6162V2.38394C15.1516 1.53594 14.4641 0.848145 13.6161 0.848145H2.38502ZM8.89502 2.67394C9.03078 2.67397 9.16097 2.72791 9.25696 2.82391C9.35295 2.9199 9.40689 3.05009 9.40692 3.18584V12.8142C9.40692 12.8815 9.39368 12.9481 9.36795 13.0102C9.34222 13.0723 9.3045 13.1287 9.25696 13.1763C9.20942 13.2238 9.15297 13.2615 9.09085 13.2873C9.02874 13.313 8.96216 13.3262 8.89492 13.3262H3.24892C3.18168 13.3262 3.11511 13.313 3.05299 13.2873C2.99087 13.2615 2.93443 13.2238 2.88688 13.1763C2.83934 13.1287 2.80163 13.0723 2.77589 13.0102C2.75016 12.9481 2.73692 12.8815 2.73692 12.8142V3.18584C2.73692 3.05005 2.79086 2.91982 2.88688 2.82381C2.9829 2.72779 3.11313 2.67384 3.24892 2.67384L8.89502 2.67394Z" fill="#707275"/>
</g>
<defs>
<clipPath id="clip0_13209_81812">
<rect width="16" height="16" fill="white"/>
</clipPath>
</defs>
</svg>
