<svg width="16" height="16" viewBox="0 0 16 16" fill="none" xmlns="http://www.w3.org/2000/svg">
<path d="M5.00001 3.2V2H11V3.2H12.8042C13.133 3.2 13.4 3.467 13.4 3.7958V13.4042C13.3998 13.5622 13.337 13.7136 13.2253 13.8253C13.1136 13.937 12.9622 13.9998 12.8042 14H3.19581C3.03784 13.9998 2.88639 13.937 2.77469 13.8253C2.66299 13.7136 2.60016 13.5622 2.60001 13.4042V3.7958C2.60001 3.467 2.86701 3.2 3.19581 3.2H5.00001ZM5.00001 4.4H3.80001V12.8H12.2V4.4H11V5.6H5.00001V4.4ZM6.20001 3.2V4.4H9.80001V3.2H6.20001Z" fill="currentColor"/>
</svg>
