<svg width="12" height="11" viewBox="0 0 12 11" fill="currentColor" xmlns="http://www.w3.org/2000/svg">
<path d="M6.58089 0V0.739895L9.48533 1.70558L11.5951 1.00505L11.9628 2.10274L10.2016 2.68805L12 7.61605C11.3657 8.27432 10.4728 8.68421 9.48533 8.68421C8.49724 8.68421 7.605 8.27432 6.97066 7.61605L8.76793 2.68805L6.58089 1.96089V9.8421H8.90444V11H3.09556V9.8421H5.41911V1.96089L3.23032 2.68805L5.02875 7.61605C4.395 8.27432 3.50218 8.68421 2.51467 8.68421C1.52658 8.68421 0.634331 8.27432 0 7.61605L1.79727 2.68805L0.0371769 2.10332L0.404879 1.00447L2.51467 1.705L5.41911 0.739895V0H6.58089ZM9.48533 4.11226L8.34795 7.23047C8.68893 7.42211 9.07813 7.52632 9.48533 7.52632C9.89195 7.52632 10.2811 7.42211 10.6227 7.23105L9.48533 4.11168V4.11226ZM2.51467 4.11226L1.37729 7.23047C1.71827 7.42211 2.10746 7.52632 2.51467 7.52632C2.92129 7.52632 3.31049 7.42211 3.65205 7.23105L2.51467 4.11168V4.11226Z" fill="#F5F5F5"/>
</svg>
