<svg width="16" height="16" viewBox="0 0 16 16" fill="none" xmlns="http://www.w3.org/2000/svg">
<path d="M8 14C4.6862 14 2 11.3138 2 8C2 4.6862 4.6862 2 8 2C11.3138 2 14 4.6862 14 8C14 11.3138 11.3138 14 8 14ZM8 12.8C9.27304 12.8 10.4939 12.2943 11.3941 11.3941C12.2943 10.4939 12.8 9.27304 12.8 8C12.8 6.72696 12.2943 5.50606 11.3941 4.60589C10.4939 3.70571 9.27304 3.2 8 3.2C6.72696 3.2 5.50606 3.70571 4.60589 4.60589C3.70571 5.50606 3.2 6.72696 3.2 8C3.2 9.27304 3.70571 10.4939 4.60589 11.3941C5.50606 12.2943 6.72696 12.8 8 12.8ZM7.1732 5.849L10.1006 7.8002C10.1335 7.82211 10.1605 7.85181 10.1792 7.88667C10.1979 7.92153 10.2076 7.96046 10.2076 8C10.2076 8.03954 10.1979 8.07847 10.1792 8.11333C10.1605 8.14819 10.1335 8.17789 10.1006 8.1998L7.1726 10.151C7.1365 10.1749 7.09459 10.1886 7.05132 10.1907C7.00806 10.1927 6.96504 10.183 6.92685 10.1626C6.88865 10.1422 6.85669 10.1118 6.83436 10.0747C6.81202 10.0376 6.80015 9.99511 6.8 9.9518V6.0482C6.80008 6.00479 6.81193 5.96222 6.8343 5.92501C6.85666 5.8878 6.88869 5.85736 6.92699 5.83692C6.96528 5.81648 7.00841 5.8068 7.05176 5.80893C7.09512 5.81106 7.13709 5.82491 7.1732 5.849Z" fill="#566275"/>
</svg>
