<svg width="17" height="8" viewBox="0 0 17 8" fill="none" xmlns="http://www.w3.org/2000/svg">
<path d="M13.6913 7.99997C13.1277 7.99997 12.6134 7.86963 12.1484 7.60895C11.6904 7.34827 11.3241 6.99248 11.0493 6.54158C10.7816 6.09067 10.6477 5.57636 10.6477 4.99864C10.6477 4.42092 10.7816 3.90661 11.0493 3.45571C11.3241 3.0048 11.6904 2.64901 12.1484 2.38833C12.6063 2.12765 13.1206 1.99731 13.6913 1.99731C14.2549 1.99731 14.7657 2.12765 15.2237 2.38833C15.6816 2.64901 16.0445 3.0048 16.3122 3.45571C16.587 3.89956 16.7244 4.41388 16.7244 4.99864C16.7244 5.57636 16.587 6.09067 16.3122 6.54158C16.0374 6.99248 15.6711 7.34827 15.2131 7.60895C14.7552 7.86963 14.2479 7.99997 13.6913 7.99997ZM13.6913 6.7318C14.0013 6.7318 14.2726 6.65783 14.5051 6.50987C14.7446 6.36192 14.9313 6.1576 15.0652 5.89693C15.2061 5.6292 15.2765 5.32977 15.2765 4.99864C15.2765 4.66046 15.2061 4.36456 15.0652 4.11093C14.9313 3.85025 14.7446 3.64593 14.5051 3.49798C14.2726 3.34298 14.0013 3.26548 13.6913 3.26548C13.3743 3.26548 13.096 3.34298 12.8564 3.49798C12.6169 3.64593 12.4267 3.85025 12.2858 4.11093C12.1519 4.36456 12.085 4.66046 12.085 4.99864C12.085 5.32977 12.1519 5.6292 12.2858 5.89693C12.4267 6.1576 12.6169 6.36192 12.8564 6.50987C13.096 6.65783 13.3743 6.7318 13.6913 6.7318Z" fill="#A9B0BC"/>
<path d="M6.92773 7.87322V2.1242H8.22761V3.40293L8.12193 3.21271C8.25579 2.78294 8.46363 2.48351 8.74545 2.31442C9.03431 2.14534 9.37953 2.06079 9.78112 2.06079H10.1193V3.28669H9.6226C9.22805 3.28669 8.91101 3.40998 8.67147 3.65657C8.43193 3.89611 8.31215 4.23429 8.31215 4.6711V7.87322H6.92773Z" fill="#A9B0BC"/>
<path d="M0.191162 7.8732V0H3.12909C3.66454 0 4.13658 0.0986353 4.54522 0.295906C4.96089 0.486131 5.28498 0.767945 5.51748 1.14135C5.74998 1.50771 5.86623 1.95509 5.86623 2.48349C5.86623 3.00485 5.74646 3.45223 5.50691 3.82564C5.27442 4.19199 4.95385 4.47381 4.54522 4.67108C4.13658 4.86835 3.66454 4.96699 3.12909 4.96699H1.62842V7.8732H0.191162ZM1.62842 3.69882H3.15023C3.41091 3.69882 3.63636 3.6495 3.82658 3.55087C4.01681 3.44519 4.16476 3.30076 4.27045 3.11758C4.37613 2.9344 4.42897 2.72304 4.42897 2.48349C4.42897 2.2369 4.37613 2.02554 4.27045 1.84941C4.16476 1.66623 4.01681 1.52532 3.82658 1.42669C3.63636 1.32101 3.41091 1.26817 3.15023 1.26817H1.62842V3.69882Z" fill="#A9B0BC"/>
</svg>
