<svg width="12" height="12" viewBox="0 0 12 12" fill="none" xmlns="http://www.w3.org/2000/svg">
<path d="M1 12C1 10.7876 1.47411 9.62482 2.31802 8.76751C3.16193 7.9102 4.30653 7.42857 5.5 7.42857C6.69347 7.42857 7.83807 7.9102 8.68198 8.76751C9.52589 9.62482 10 10.7876 10 12H8.875C8.875 11.0907 8.51942 10.2186 7.88649 9.57563C7.25355 8.93265 6.39511 8.57143 5.5 8.57143C4.60489 8.57143 3.74645 8.93265 3.11351 9.57563C2.48058 10.2186 2.125 11.0907 2.125 12H1ZM5.5 6.85714C3.63531 6.85714 2.125 5.32286 2.125 3.42857C2.125 1.53429 3.63531 0 5.5 0C7.36469 0 8.875 1.53429 8.875 3.42857C8.875 5.32286 7.36469 6.85714 5.5 6.85714ZM5.5 5.71429C6.74312 5.71429 7.75 4.69143 7.75 3.42857C7.75 2.16571 6.74312 1.14286 5.5 1.14286C4.25688 1.14286 3.25 2.16571 3.25 3.42857C3.25 4.69143 4.25688 5.71429 5.5 5.71429Z" fill="currentColor"/>
</svg>
