<svg width="12" height="12" viewBox="0 0 12 12" fill="none" xmlns="http://www.w3.org/2000/svg">
<path d="M10.2427 1.75739L9.3 2.70006C8.53661 1.93659 7.53211 1.46143 6.45766 1.35555C5.38321 1.24967 4.30529 1.51961 3.40756 2.11938C2.50983 2.71916 1.84783 3.61165 1.53436 4.64479C1.22089 5.67794 1.27535 6.78781 1.68845 7.7853C2.10156 8.7828 2.84775 9.60619 3.79989 10.1152C4.75202 10.6242 5.85119 10.7873 6.91012 10.5768C7.96904 10.3662 8.92219 9.795 9.60718 8.96046C10.2922 8.12593 10.6666 7.0797 10.6667 6.00005H12C12 7.38818 11.5187 8.73336 10.638 9.80639C9.7574 10.8794 8.53196 11.6139 7.1705 11.8847C5.80903 12.1555 4.3958 11.9459 3.17158 11.2915C1.94736 10.6371 0.987913 9.57852 0.456707 8.29606C-0.0744978 7.01359 -0.144591 5.58661 0.258372 4.25825C0.661334 2.9299 1.51242 1.78236 2.66661 1.01117C3.82081 0.239972 5.2067 -0.107165 6.58814 0.0289048C7.96959 0.164974 9.26112 0.775831 10.2427 1.75739Z" fill="currentColor"/>
</svg>
