<svg width="11" height="12" viewBox="0 0 11 12" fill="currentColor" xmlns="http://www.w3.org/2000/svg">
<path d="M9.61569 3.4504L2.71649 0.7544V0.4616C2.71649 0.2056 2.51969 0 2.27969 0C2.03889 0 1.84369 0.2064 1.84369 0.4616V11.0776H1.11569C0.875688 11.0776 0.679688 11.284 0.679688 11.5384C0.679688 11.7936 0.874888 12 1.11569 12H3.44369C3.68369 12 3.87969 11.7936 3.87969 11.5384C3.87969 11.284 3.68449 11.0768 3.44369 11.0768H2.71569V8.168L9.61569 5.472C10.0189 5.3144 10.2797 4.9176 10.2797 4.4616C10.2797 4.0056 10.0189 3.608 9.61569 3.4504Z" fill="#666666"/>
</svg>
