<svg width="12" height="12" viewBox="0 0 12 12" fill="currentColor" xmlns="http://www.w3.org/2000/svg">
<g clip-path="url(#clip0_303_35832)">
<path d="M2.01172 1.91842C2.2021 1.72858 2.50986 1.72851 2.7002 1.91842L6.0918 5.311L7.09863 4.30221C7.09349 4.26683 7.0879 4.23141 7.08789 4.19283C7.08789 3.74828 7.44865 3.38717 7.89355 3.38717C8.33825 3.38741 8.69824 3.74843 8.69824 4.19283C8.69818 4.63719 8.33822 4.99825 7.89355 4.9985C7.85554 4.9985 7.81863 4.99127 7.78223 4.98482L6.77539 5.99361L10.167 9.38522C10.357 9.57515 10.3567 9.88136 10.167 10.0747C9.07775 11.1635 7.62916 11.7631 6.08887 11.7631C5.03381 11.7631 4.02529 11.476 3.14258 10.9477C2.93902 11.6047 2.3347 12.0852 1.61133 12.0854C0.721828 12.0854 0 11.3632 0 10.4741C0.000182318 9.7495 0.480334 9.14706 1.13672 8.94088C0.609425 8.05827 0.321954 7.04985 0.322266 5.99654C0.32231 4.45676 0.922507 3.00722 2.01172 1.91842ZM1.61035 9.83053C1.25472 9.83079 0.967019 10.1169 0.966797 10.4741C0.966797 10.8284 1.25533 11.1186 1.61133 11.1186C1.96677 11.1184 2.25488 10.8283 2.25488 10.4741C2.25466 10.1167 1.9659 9.83053 1.61035 9.83053ZM2.37305 2.96822C1.67591 3.82185 1.29691 4.87877 1.29688 5.99654C1.29688 7.27529 1.79511 8.48003 2.7002 9.38522C3.60514 10.2904 4.80893 10.7866 6.08887 10.7866C7.20506 10.7866 8.26284 10.4103 9.11523 9.71139L2.37305 2.96822ZM7.2793 0.641075C7.83441 0.555856 8.40188 0.602834 8.93555 0.777793C9.46931 0.952809 9.95464 1.25142 10.3516 1.64889C10.7488 2.04586 11.0467 2.53127 11.2217 3.0649C11.3966 3.59853 11.4435 4.16607 11.3584 4.72115C11.3454 4.80677 11.299 4.88341 11.2295 4.93502C11.1598 4.9867 11.0722 5.00913 10.9863 4.99654C10.9441 4.99034 10.9038 4.97546 10.8672 4.95357C10.8305 4.9316 10.7979 4.90299 10.7725 4.86861C10.7471 4.83427 10.729 4.79483 10.7188 4.75338C10.7085 4.71176 10.7064 4.66782 10.7129 4.62545C10.8512 3.70892 10.5551 2.77824 9.88867 2.11178C9.22209 1.44523 8.29134 1.14913 7.37402 1.28756C7.33174 1.29398 7.28859 1.29196 7.24707 1.2817C7.20547 1.27141 7.16629 1.25248 7.13184 1.22701C7.09747 1.20157 7.06789 1.16993 7.0459 1.13326C7.0239 1.09655 7.00917 1.05548 7.00293 1.01315C6.9906 0.927533 7.01302 0.8405 7.06445 0.770958C7.11611 0.701286 7.19355 0.65412 7.2793 0.641075ZM7.4707 1.93307C7.82394 1.87906 8.18485 1.90964 8.52441 2.02096C8.86409 2.13231 9.17303 2.3219 9.42578 2.57467C9.67848 2.8272 9.86814 3.13562 9.97949 3.47506C10.0909 3.81474 10.1206 4.17641 10.0664 4.52975C10.0535 4.61547 10.0072 4.69295 9.9375 4.74459C9.86783 4.79613 9.78009 4.81771 9.69434 4.80514C9.65212 4.79893 9.61182 4.78407 9.5752 4.76217C9.53846 4.74018 9.50593 4.71162 9.48047 4.67721C9.45505 4.64282 9.43703 4.60348 9.42676 4.56197C9.4165 4.52035 9.41436 4.47641 9.4209 4.43404C9.45953 4.1817 9.43788 3.92371 9.3584 3.68111C9.27889 3.4385 9.1434 3.21812 8.96289 3.03756C8.78225 2.85693 8.56113 2.7206 8.31836 2.64107C8.07574 2.56169 7.81776 2.54084 7.56543 2.57955C7.52316 2.586 7.47999 2.58394 7.43848 2.57369C7.39688 2.5634 7.3577 2.54447 7.32324 2.519C7.28883 2.49355 7.25932 2.46196 7.2373 2.42525C7.21528 2.38852 7.20058 2.34751 7.19434 2.30514C7.18199 2.21949 7.20439 2.13251 7.25586 2.06295C7.30752 1.99328 7.38495 1.94611 7.4707 1.93307Z" fill="#999999"/>
</g>
<defs>
<clipPath id="clip0_303_35832">
<rect width="12" height="12" fill="white"/>
</clipPath>
</defs>
</svg>
