<svg width="9" height="12" viewBox="0 0 9 12" fill="none" xmlns="http://www.w3.org/2000/svg">
<path d="M8.4 10.8001H7.48125V8.83491C7.48141 8.46703 7.40189 8.10349 7.24814 7.76928C7.0944 7.43506 6.87008 7.13812 6.59062 6.89888L5.54222 6.0001L6.59062 5.10132C6.8701 4.86208 7.09442 4.56515 7.24817 4.23093C7.40192 3.89672 7.48143 3.53317 7.48125 3.16529V1.2001H8.4C8.47956 1.2001 8.55587 1.16849 8.61213 1.11223C8.66839 1.05597 8.7 0.979663 8.7 0.900098C8.7 0.820533 8.66839 0.744227 8.61213 0.687966C8.55587 0.631705 8.47956 0.600098 8.4 0.600098H0.58125C0.501685 0.600098 0.425379 0.631705 0.369118 0.687966C0.312857 0.744227 0.28125 0.820533 0.28125 0.900098C0.28125 0.979663 0.312857 1.05597 0.369118 1.11223C0.425379 1.16849 0.501685 1.2001 0.58125 1.2001H1.48125V3.16529C1.48107 3.53317 1.56058 3.89672 1.71433 4.23093C1.86808 4.56515 2.0924 4.86208 2.37187 5.10132L3.42028 6.0001L2.37187 6.89888C2.09242 7.13812 1.8681 7.43506 1.71436 7.76928C1.56061 8.10349 1.48108 8.46703 1.48125 8.83491V10.8001H0.58125C0.501685 10.8001 0.425379 10.8317 0.369118 10.888C0.312857 10.9442 0.28125 11.0205 0.28125 11.1001C0.28125 11.1797 0.312857 11.256 0.369118 11.3122C0.425379 11.3685 0.501685 11.4001 0.58125 11.4001H8.4C8.47956 11.4001 8.55587 11.3685 8.61213 11.3122C8.66839 11.256 8.7 11.1797 8.7 11.1001C8.7 11.0205 8.66839 10.9442 8.61213 10.888C8.55587 10.8317 8.47956 10.8001 8.4 10.8001ZM3.79341 4.11225C3.76555 4.14012 3.73247 4.16222 3.69607 4.1773C3.65967 4.19238 3.62065 4.20015 3.58125 4.20015C3.54185 4.20015 3.50283 4.19238 3.46643 4.1773C3.43003 4.16222 3.39695 4.14012 3.36909 4.11225L3.12056 3.86372C2.98088 3.72476 2.87014 3.55949 2.79473 3.37746C2.71932 3.19543 2.68075 3.00025 2.68125 2.80322V2.7001C2.68125 2.62053 2.71286 2.54423 2.76912 2.48797C2.82538 2.4317 2.90168 2.4001 2.98125 2.4001C3.06081 2.4001 3.13712 2.4317 3.19338 2.48797C3.24964 2.54423 3.28125 2.62053 3.28125 2.7001V2.80322C3.28094 2.92146 3.30408 3.03858 3.34933 3.14781C3.39458 3.25705 3.46104 3.35622 3.54487 3.4396L3.79341 3.68813C3.84962 3.74438 3.8812 3.82066 3.8812 3.90019C3.8812 3.97972 3.84962 4.056 3.79341 4.11225ZM6.28125 9.3001C6.28125 9.37966 6.24964 9.45597 6.19338 9.51223C6.13712 9.56849 6.06081 9.6001 5.98125 9.6001C5.90168 9.6001 5.82538 9.56849 5.76912 9.51223C5.71286 9.45597 5.68125 9.37966 5.68125 9.3001V9.19697C5.68156 9.07874 5.65842 8.96162 5.61317 8.85238C5.56792 8.74315 5.50146 8.64398 5.41762 8.5606L5.16909 8.31207C5.11283 8.2558 5.08121 8.17949 5.08121 8.09991C5.08121 8.02034 5.11283 7.94402 5.16909 7.88775C5.22536 7.83149 5.30167 7.79988 5.38125 7.79988C5.46082 7.79988 5.53714 7.83149 5.59341 7.88775L5.84194 8.13629C5.98164 8.27527 6.0924 8.44058 6.1678 8.62264C6.24321 8.8047 6.28177 8.99991 6.28125 9.19697V9.3001Z" fill="#666666"/>
</svg>
