<svg width="10" height="12" viewBox="0 0 10 12" fill="none" xmlns="http://www.w3.org/2000/svg">
<path d="M7.16348 9.58135C5.52118 10.7616 3.57039 10.3097 2.45354 9.87768C1.98057 10.9017 1.8212 11.6032 1.818 11.6198C1.77 11.8458 1.57031 12 1.34823 12C1.31558 12 1.2823 11.9968 1.24902 11.9898C0.989812 11.9354 0.824046 11.6813 0.878448 11.4221C0.912369 11.2595 1.70792 7.63568 5.33045 4.53797C3.91984 5.19079 1.99273 6.66797 1.01925 8.92853C0.180823 7.25167 0.168022 4.14756 2.88172 2.6819C4.02736 2.06748 5.1858 1.94588 6.58745 1.46586C7.59869 1.11385 8.19391 0.409822 8.43712 0.057809C8.49472 -0.0317943 8.62273 -0.0125936 8.65473 0.0834099C9.10275 1.29305 10.9012 6.89326 7.16348 9.58135Z" fill="#666666"/>
</svg>
