<svg width="13" height="11" viewBox="0 0 13 11" fill="none" xmlns="http://www.w3.org/2000/svg">
<path d="M0.530143 0C0.991243 0.105373 1.45842 0.255114 1.92174 0.451172C3.65123 1.18312 4.94913 2.39889 5.56042 3.69043C6.70288 2.33358 8.72678 1.50271 10.9735 1.65039C11.497 1.68493 12.0021 1.77052 12.4803 1.90039C11.896 4.04668 9.71544 5.55751 7.22448 5.39355C6.83167 5.36771 6.45271 5.29907 6.09069 5.19727V5.19922C5.48484 6.91207 5.63835 8.36555 5.99889 9.63574L4.90221 10.1689C4.45862 8.83072 4.16185 7.18439 4.79088 5.1875C4.4276 5.11022 4.06243 4.99726 3.70202 4.84473C1.49749 3.9117 0.20533 1.85596 0.530143 0ZM10.9569 2.80762C10.9273 2.80142 9.75459 2.5629 8.0028 3.32227C6.24941 4.08239 6.14274 4.75297 6.14049 4.76855C6.14829 4.76295 6.8412 4.26659 8.16686 3.67188C9.4855 3.08035 10.9249 2.8135 10.9569 2.80762ZM2.49792 2.28223C2.51355 2.28983 3.25688 2.65291 3.78503 3.18359C4.31874 3.72 4.61901 4.33789 4.61901 4.33789C4.61905 4.3358 4.63084 3.71152 3.91784 3.01562C3.21119 2.32617 2.51335 2.2831 2.49792 2.28223Z" fill="#666666"/>
</svg>
