<svg width="24" height="24" viewBox="0 0 24 24" fill="none" xmlns="http://www.w3.org/2000/svg">
<g clip-path="url(#clip0_5205_23174)">
<path d="M12 0C5.37281 0 0 5.37281 0 12C0 15.3141 1.34344 18.3141 3.51469 20.4853L1.22906 22.7709C0.775312 23.2247 1.09688 24 1.73813 24H12C18.6272 24 24 18.6272 24 12C24 5.37281 18.6272 0 12 0Z" fill="#FF4500"/>
<path d="M14.4414 5.65531C14.6495 6.5375 15.4417 7.19469 16.3877 7.19469C17.492 7.19469 18.3873 6.29938 18.3873 5.195C18.3873 4.09063 17.492 3.19531 16.3877 3.19531C15.422 3.19531 14.6167 3.87969 14.4292 4.79C12.812 4.96344 11.5492 6.335 11.5492 7.99719C11.5492 8.00094 11.5492 8.00375 11.5492 8.0075C9.79047 8.08156 8.18453 8.58219 6.90953 9.3725C6.43609 9.00594 5.84172 8.7875 5.19672 8.7875C3.64891 8.7875 2.39453 10.0419 2.39453 11.5897C2.39453 12.7128 3.05453 13.6803 4.00797 14.1275C4.10078 17.3806 7.64547 19.9972 12.0058 19.9972C16.3661 19.9972 19.9155 17.3778 20.0036 14.1219C20.9495 13.6719 21.6039 12.7072 21.6039 11.5906C21.6039 10.0428 20.3495 8.78844 18.8017 8.78844C18.1595 8.78844 17.568 9.005 17.0955 9.36875C15.8092 8.57281 14.1855 8.07219 12.4089 8.00563C12.4089 8.00281 12.4089 8.00094 12.4089 7.99813C12.4089 6.8075 13.2939 5.81938 14.4414 5.65719V5.65531ZM6.79703 13.3681C6.84391 12.3519 7.51891 11.5719 8.30359 11.5719C9.08828 11.5719 9.68828 12.3959 9.64141 13.4122C9.59453 14.4284 9.00859 14.7978 8.22297 14.7978C7.43734 14.7978 6.75016 14.3844 6.79703 13.3681ZM15.7089 11.5719C16.4945 11.5719 17.1695 12.3519 17.2155 13.3681C17.2623 14.3844 16.5742 14.7978 15.7895 14.7978C15.0048 14.7978 14.418 14.4294 14.3711 13.4122C14.3242 12.3959 14.9233 11.5719 15.7089 11.5719ZM14.7752 15.7194C14.9223 15.7344 15.0161 15.8872 14.9589 16.0241C14.4761 17.1781 13.3361 17.9891 12.0058 17.9891C10.6755 17.9891 9.53641 17.1781 9.05266 16.0241C8.99547 15.8872 9.08922 15.7344 9.23641 15.7194C10.0989 15.6322 11.0317 15.5844 12.0058 15.5844C12.9798 15.5844 13.9117 15.6322 14.7752 15.7194Z" fill="white"/>
</g>
<defs>
<clipPath id="clip0_5205_23174">
<rect width="24" height="24" fill="white"/>
</clipPath>
</defs>
</svg>
