<svg width="16" height="16" viewBox="0 0 16 16" fill="none" xmlns="http://www.w3.org/2000/svg">
<path d="M5.17461 13.2944L2.00001 14L2.70561 10.8254C2.24093 9.95623 1.99852 8.98559 2.00001 8C2.00001 4.6862 4.68621 2 8.00001 2C11.3138 2 14 4.6862 14 8C14 11.3138 11.3138 14 8.00001 14C7.01442 14.0015 6.04378 13.7591 5.17461 13.2944ZM5.34861 12.0266L5.74041 12.2366C6.43554 12.6081 7.21184 12.8016 8.00001 12.8C8.94936 12.8 9.87739 12.5185 10.6667 11.9911C11.4561 11.4636 12.0713 10.714 12.4346 9.83688C12.7979 8.95979 12.893 7.99468 12.7078 7.06357C12.5226 6.13246 12.0654 5.27718 11.3941 4.60589C10.7228 3.9346 9.86755 3.47744 8.93644 3.29223C8.00533 3.10702 7.04021 3.20208 6.16313 3.56538C5.28604 3.92868 4.53638 4.54391 4.00895 5.33326C3.48152 6.12262 3.20001 7.05065 3.20001 8C3.20001 8.8004 3.39501 9.5708 3.76401 10.2596L3.97341 10.6514L3.58041 12.4196L5.34861 12.0266Z" fill="currentColor"/>
</svg>
