<svg width="12" height="15" viewBox="0 0 12 15" fill="none" xmlns="http://www.w3.org/2000/svg">
<path d="M5.35575 1.5C4.16925 1.5 3.5655 1.62675 3.00975 1.92375C2.54627 2.16761 2.16761 2.54627 1.92375 3.00975C1.62675 3.56475 1.5 4.16925 1.5 5.355V9.6435C1.5 10.83 1.62675 11.4338 1.92375 11.9895C2.1765 12.462 2.53725 12.8228 3.00975 13.0755C3.56475 13.3725 4.16925 13.4993 5.35575 13.4993H6.64425C7.83075 13.4993 8.4345 13.3725 8.99025 13.0755C9.45373 12.8316 9.83239 12.453 10.0763 11.9895C10.3733 11.4345 10.5 10.83 10.5 9.6435V5.355C10.5 4.1685 10.3733 3.56475 10.0763 3.009C9.83239 2.54552 9.45373 2.16686 8.99025 1.923C8.43525 1.62675 7.83075 1.5 6.645 1.5H5.355H5.35575ZM5.35575 0H6.64425C8.15475 0 8.96475 0.2085 9.69825 0.60075C10.423 0.984367 11.0156 1.57702 11.3993 2.30175C11.7915 3.03525 12 3.84525 12 5.35575V9.64425C12 11.1547 11.7915 11.9648 11.3993 12.6982C11.0156 13.423 10.423 14.0156 9.69825 14.3993C8.96475 14.7915 8.15475 15 6.64425 15H5.355C3.8445 15 3.0345 14.7915 2.301 14.3993C1.57627 14.0156 0.983617 13.423 0.6 12.6982C0.2085 11.9648 0 11.1547 0 9.64425V5.355C0 3.8445 0.2085 3.0345 0.60075 2.301C0.984686 1.57644 1.5776 0.984047 2.3025 0.60075C3.03525 0.2085 3.84525 0 5.35575 0ZM5.25 3H6.75V6.75H5.25V3Z" fill="currentColor"/>
</svg>
