<svg width="16" height="16" viewBox="0 0 16 16" fill="none" xmlns="http://www.w3.org/2000/svg">
<path d="M5.89875 12.8H10.1012C9.70421 13.7494 8.94934 14.5043 7.99995 14.9012C7.05056 14.5043 6.29569 13.7494 5.89875 12.8ZM11.6 9.683L12.8 11.0438V12.2H3.19995V11.0438L4.39995 9.683V6.2C4.39995 4.1102 5.90235 2.3318 7.99995 1.673C10.0976 2.3318 11.6 4.1102 11.6 6.2V9.683ZM7.99995 7.4C8.31821 7.4 8.62344 7.27358 8.84848 7.04853C9.07352 6.82349 9.19995 6.51826 9.19995 6.2C9.19995 5.88174 9.07352 5.57652 8.84848 5.35148C8.62344 5.12643 8.31821 5 7.99995 5C7.68169 5 7.37647 5.12643 7.15142 5.35148C6.92638 5.57652 6.79995 5.88174 6.79995 6.2C6.79995 6.51826 6.92638 6.82349 7.15142 7.04853C7.37647 7.27358 7.68169 7.4 7.99995 7.4Z" fill="#F5F5F5"/>
</svg>
