<svg width="9" height="9" viewBox="0 0 9 9" fill="none" xmlns="http://www.w3.org/2000/svg">
<path d="M5.00409 6.7611L3.11454 5.7306C2.86785 5.99433 2.54754 6.17776 2.19523 6.25705C1.84292 6.33634 1.4749 6.30783 1.13901 6.17522C0.803114 6.04261 0.514875 5.81203 0.311748 5.51345C0.108622 5.21487 0 4.8621 0 4.50098C0 4.13985 0.108622 3.78708 0.311748 3.4885C0.514875 3.18992 0.803114 2.95934 1.13901 2.82673C1.4749 2.69412 1.84292 2.66561 2.19523 2.7449C2.54754 2.82419 2.86785 3.00762 3.11454 3.27135L5.00454 2.24085C4.89724 1.81608 4.94854 1.36677 5.14883 0.977117C5.34911 0.587468 5.68463 0.284242 6.09249 0.124276C6.50035 -0.0356894 6.95256 -0.041412 7.36434 0.108181C7.77611 0.257774 8.1192 0.552413 8.32928 0.936868C8.53936 1.32132 8.60202 1.7692 8.5055 2.19655C8.40898 2.62389 8.15992 3.00137 7.805 3.25821C7.45008 3.51506 7.01367 3.63365 6.57756 3.59175C6.14146 3.54985 5.73561 3.35033 5.43609 3.0306L3.54609 4.0611C3.61863 4.34971 3.61863 4.65179 3.54609 4.9404L5.43564 5.9709C5.73516 5.65117 6.14101 5.45166 6.57711 5.40975C7.01322 5.36785 7.44963 5.48644 7.80455 5.74329C8.15947 6.00013 8.40853 6.37761 8.50505 6.80496C8.60157 7.2323 8.53891 7.68018 8.32883 8.06463C8.11875 8.44909 7.77566 8.74373 7.36389 8.89332C6.95211 9.04291 6.49991 9.03719 6.09204 8.87722C5.68418 8.71726 5.34866 8.41403 5.14838 8.02438C4.94809 7.63474 4.89679 7.18542 5.00409 6.76065V6.7611ZM1.80009 5.40075C2.03879 5.40075 2.26771 5.30593 2.43649 5.13715C2.60527 4.96836 2.70009 4.73945 2.70009 4.50075C2.70009 4.26206 2.60527 4.03314 2.43649 3.86435C2.26771 3.69557 2.03879 3.60075 1.80009 3.60075C1.5614 3.60075 1.33248 3.69557 1.1637 3.86435C0.994914 4.03314 0.900093 4.26206 0.900093 4.50075C0.900093 4.73945 0.994914 4.96836 1.1637 5.13715C1.33248 5.30593 1.5614 5.40075 1.80009 5.40075ZM6.75009 2.70075C6.98879 2.70075 7.21771 2.60593 7.38649 2.43715C7.55527 2.26836 7.65009 2.03945 7.65009 1.80075C7.65009 1.56206 7.55527 1.33314 7.38649 1.16435C7.21771 0.995572 6.98879 0.900751 6.75009 0.900751C6.5114 0.900751 6.28248 0.995572 6.1137 1.16435C5.94491 1.33314 5.85009 1.56206 5.85009 1.80075C5.85009 2.03945 5.94491 2.26836 6.1137 2.43715C6.28248 2.60593 6.5114 2.70075 6.75009 2.70075ZM6.75009 8.10075C6.98879 8.10075 7.21771 8.00593 7.38649 7.83715C7.55527 7.66836 7.65009 7.43945 7.65009 7.20075C7.65009 6.96206 7.55527 6.73314 7.38649 6.56435C7.21771 6.39557 6.98879 6.30075 6.75009 6.30075C6.5114 6.30075 6.28248 6.39557 6.1137 6.56435C5.94491 6.73314 5.85009 6.96206 5.85009 7.20075C5.85009 7.43945 5.94491 7.66836 6.1137 7.83715C6.28248 8.00593 6.5114 8.10075 6.75009 8.10075Z" fill="#5A5E64"/>
</svg>
