<svg width="72" height="72" viewBox="0 0 72 72" fill="currentColor" xmlns="http://www.w3.org/2000/svg">
<path d="M13.8143 11.23L36.0002 6.2998L58.1861 11.23C58.7857 11.3633 59.3219 11.697 59.7062 12.1761C60.0906 12.6552 60.3001 13.251 60.3002 13.8652V40.8301C60.3 43.497 59.6414 46.1226 58.3829 48.4738C57.1244 50.8251 55.3048 52.8293 53.0858 54.3085L36.0002 65.6998L18.9146 54.3085C16.6959 52.8295 14.8766 50.8258 13.6181 48.475C12.3596 46.1243 11.7008 43.4992 11.7002 40.8328V13.8652C11.7003 13.251 11.9098 12.6552 12.2942 12.1761C12.6785 11.697 13.2147 11.3633 13.8143 11.23ZM17.1002 16.0306V40.8301C17.1002 42.6079 17.5391 44.3583 18.378 45.9258C19.2169 47.4933 20.4297 48.8294 21.9089 49.8157L36.0002 59.2117L50.0915 49.8157C51.5703 48.8297 52.7829 47.494 53.6218 45.927C54.4606 44.36 54.8997 42.6102 54.9002 40.8328V16.0306L36.0002 11.8348L17.1002 16.0306ZM36.0002 33.2998C34.21 33.2998 32.4931 32.5886 31.2272 31.3228C29.9614 30.0569 29.2502 28.34 29.2502 26.5498C29.2502 24.7596 29.9614 23.0427 31.2272 21.7768C32.4931 20.511 34.21 19.7998 36.0002 19.7998C37.7904 19.7998 39.5073 20.511 40.7732 21.7768C42.039 23.0427 42.7502 24.7596 42.7502 26.5498C42.7502 28.34 42.039 30.0569 40.7732 31.3228C39.5073 32.5886 37.7904 33.2998 36.0002 33.2998ZM23.9231 46.7998C24.2504 43.8255 25.6637 41.0765 27.8923 39.0798C30.1209 37.083 33.0079 35.9788 36.0002 35.9788C38.9925 35.9788 41.8795 37.083 44.1081 39.0798C46.3367 41.0765 47.75 43.8255 48.0773 46.7998H23.9231Z" fill="#FCFDFF"/>
</svg>
