<svg width="72" height="72" viewBox="0 0 72 72" fill="currentColor" xmlns="http://www.w3.org/2000/svg">
<path d="M14.1141 10.9302L36.3 6L58.4859 10.9302C59.0855 11.0635 59.6217 11.3972 60.006 11.8763C60.3904 12.3554 60.5999 12.9512 60.6 13.5654V40.5303C60.5998 43.1972 59.9412 45.8228 58.6827 48.174C57.4242 50.5253 55.6046 52.5295 53.3856 54.0087L36.3 65.4L19.2144 54.0087C16.9957 52.5297 15.1764 50.526 13.9179 48.1752C12.6594 45.8245 12.0006 43.1994 12 40.533V13.5654C12.0001 12.9512 12.2096 12.3554 12.594 11.8763C12.9783 11.3972 13.5145 11.0635 14.1141 10.9302ZM17.4 15.7308V40.5303C17.4 42.3081 17.839 44.0585 18.6778 45.626C19.5167 47.1935 20.7295 48.5296 22.2087 49.5159L36.3 58.9119L50.3913 49.5159C51.8701 48.5299 53.0827 47.1942 53.9216 45.6272C54.7604 44.0602 55.1995 42.3104 55.2 40.533V15.7308L36.3 11.535L17.4 15.7308Z" fill="#FCFDFF"/>
<path d="M43.5 28H45.8333C46.1428 28 46.4395 28.1204 46.6583 28.3347C46.8771 28.5491 47 28.8398 47 29.1429V42.8571C47 43.1602 46.8771 43.4509 46.6583 43.6653C46.4395 43.8796 46.1428 44 45.8333 44H27.1667C26.8572 44 26.5605 43.8796 26.3417 43.6653C26.1229 43.4509 26 43.1602 26 42.8571V29.1429C26 28.8398 26.1229 28.5491 26.3417 28.3347C26.5605 28.1204 26.8572 28 27.1667 28H29.5V26.8571C29.5 25.0385 30.2375 23.2944 31.5503 22.0084C32.863 20.7224 34.6435 20 36.5 20C38.3565 20 40.137 20.7224 41.4497 22.0084C42.7625 23.2944 43.5 25.0385 43.5 26.8571V28ZM35.3333 36.8366V39.4286H37.6667V36.8366C38.1115 36.585 38.4592 36.1967 38.6557 35.7318C38.8523 35.2669 38.8868 34.7515 38.7538 34.2655C38.6209 33.7795 38.3279 33.35 37.9204 33.0437C37.5129 32.7374 37.0136 32.5714 36.5 32.5714C35.9864 32.5714 35.4871 32.7374 35.0796 33.0437C34.6721 33.35 34.3791 33.7795 34.2462 34.2655C34.1132 34.7515 34.1477 35.2669 34.3443 35.7318C34.5408 36.1967 34.8885 36.585 35.3333 36.8366ZM41.1667 28V26.8571C41.1667 25.6447 40.675 24.482 39.7998 23.6247C38.9247 22.7673 37.7377 22.2857 36.5 22.2857C35.2623 22.2857 34.0753 22.7673 33.2002 23.6247C32.325 24.482 31.8333 25.6447 31.8333 26.8571V28H41.1667Z" fill="white"/>
</svg>
