<svg width="16" height="16" viewBox="0 0 16 16" fill="none" xmlns="http://www.w3.org/2000/svg">
<path d="M6.98345 14.6665C6.67234 14.6665 6.38067 14.5998 6.10845 14.4665C5.83623 14.3332 5.60567 14.1443 5.41678 13.8998L1.78345 9.28317L2.10011 8.94984C2.32234 8.7165 2.589 8.57762 2.90011 8.53317C3.21123 8.48873 3.50011 8.54984 3.76678 8.7165L5.00011 9.4665V3.99984C5.00011 3.81095 5.064 3.65262 5.19178 3.52484C5.31956 3.39706 5.47789 3.33317 5.66678 3.33317C5.85567 3.33317 6.01678 3.39706 6.15011 3.52484C6.28345 3.65262 6.35011 3.81095 6.35011 3.99984V7.33317H11.3334C11.889 7.33317 12.3612 7.52762 12.7501 7.9165C13.139 8.30539 13.3334 8.77762 13.3334 9.33317V11.9998C13.3334 12.7332 13.0723 13.3609 12.5501 13.8832C12.0279 14.4054 11.4001 14.6665 10.6668 14.6665H6.98345ZM2.78345 5.6665C2.639 5.42206 2.52789 5.15817 2.45011 4.87484C2.37234 4.5915 2.33345 4.29984 2.33345 3.99984C2.33345 3.07762 2.65845 2.2915 3.30845 1.6415C3.95845 0.991504 4.74456 0.666504 5.66678 0.666504C6.589 0.666504 7.37511 0.991504 8.02511 1.6415C8.67511 2.2915 9.00011 3.07762 9.00011 3.99984C9.00011 4.29984 8.96123 4.5915 8.88345 4.87484C8.80567 5.15817 8.69456 5.42206 8.55011 5.6665L7.40011 4.99984C7.489 4.84428 7.55567 4.68595 7.60011 4.52484C7.64456 4.36373 7.66678 4.18873 7.66678 3.99984C7.66678 3.44428 7.47234 2.97206 7.08345 2.58317C6.69456 2.19428 6.22234 1.99984 5.66678 1.99984C5.11123 1.99984 4.639 2.19428 4.25011 2.58317C3.86123 2.97206 3.66678 3.44428 3.66678 3.99984C3.66678 4.18873 3.689 4.36373 3.73345 4.52484C3.77789 4.68595 3.84456 4.84428 3.93345 4.99984L2.78345 5.6665Z" fill="currentColor"/>
</svg>
