<svg width="16" height="16" viewBox="0 0 16 16" fill="currentColor" xmlns="http://www.w3.org/2000/svg">
<path d="M13.4 2.6L13.4 13.4C13.4 13.5591 13.3368 13.7117 13.2243 13.8243C13.1118 13.9368 12.9592 14 12.8 14L3.20002 14C3.04089 14 2.88828 13.9368 2.77576 13.8243C2.66324 13.7117 2.60002 13.5591 2.60002 13.4L2.60002 2.6C2.60002 2.44087 2.66324 2.28826 2.77576 2.17574C2.88828 2.06321 3.04089 2 3.20002 2L12.8 2C12.9592 2 13.1118 2.06321 13.2243 2.17574C13.3368 2.28826 13.4 2.44087 13.4 2.6V2.6ZM12.2 6.2L3.80002 6.2L3.80002 12.8L12.2 12.8L12.2 6.2Z" fill="#F5F5F5"/>
</svg>
