<svg width="24" height="24" viewBox="0 0 24 24" fill="none" xmlns="http://www.w3.org/2000/svg">
<path d="M13.0996 13.0996L14.2002 23H9.7998L10.8994 13.0996H13.0996ZM12 1.75C17.6609 1.75 22.25 6.33908 22.25 12C22.25 15.4181 20.5748 18.4424 18.0029 20.3047L16.7275 18.1377C18.5647 16.7205 19.75 14.4997 19.75 12C19.75 7.71979 16.2802 4.25 12 4.25C7.71979 4.25 4.25 7.71979 4.25 12C4.25 14.5129 5.447 16.7451 7.30078 18.1611L6.04102 20.3369C3.44411 18.4774 1.75 15.4376 1.75 12C1.75 6.33908 6.33908 1.75 12 1.75ZM12 5.75C15.4518 5.75 18.25 8.54822 18.25 12C18.25 13.9482 17.3582 15.6878 15.9609 16.834L14.667 14.6338C15.3359 13.9565 15.75 13.0271 15.75 12C15.75 9.92893 14.0711 8.25 12 8.25C9.92893 8.25 8.25 9.92893 8.25 12C8.25 13.0303 8.66627 13.9628 9.33887 14.6406L8.05957 16.8506C6.65061 15.7046 5.75 13.9577 5.75 12C5.75 8.54822 8.54822 5.75 12 5.75Z" fill="currentColor"/>
</svg>
