<svg width="21" height="22" viewBox="0 0 21 22" fill="none" xmlns="http://www.w3.org/2000/svg">
<path d="M11.3496 11.3496L12.4502 21.25H8.0498L9.14941 11.3496H11.3496ZM10.25 0C15.9109 0 20.5 4.58908 20.5 10.25C20.5 13.6681 18.8248 16.6924 16.2529 18.5547L14.9775 16.3877C16.8147 14.9705 18 12.7497 18 10.25C18 5.96979 14.5302 2.5 10.25 2.5C5.96979 2.5 2.5 5.96979 2.5 10.25C2.5 12.7629 3.697 14.9951 5.55078 16.4111L4.29102 18.5869C1.69411 16.7274 0 13.6876 0 10.25C0 4.58908 4.58908 0 10.25 0ZM10.25 4C13.7018 4 16.5 6.79822 16.5 10.25C16.5 12.1982 15.6082 13.9378 14.2109 15.084L12.917 12.8838C13.5859 12.2065 14 11.2771 14 10.25C14 8.17893 12.3211 6.5 10.25 6.5C8.17893 6.5 6.5 8.17893 6.5 10.25C6.5 11.2803 6.91627 12.2128 7.58887 12.8906L6.30957 15.1006C4.90061 13.9546 4 12.2077 4 10.25C4 6.79822 6.79822 4 10.25 4Z" fill="currentColor"/>
</svg>
