<svg width="11" height="12" viewBox="0 0 11 12" fill="none" xmlns="http://www.w3.org/2000/svg">
<path d="M8.21607 2.56926L8.7912 1.63078C8.99737 1.29355 9.00239 0.887977 8.80439 0.545823C8.60639 0.203669 8.24873 0 7.84771 0H3.1523C2.75064 0 2.39298 0.204285 2.19561 0.545823C1.99824 0.887977 2.00264 1.29355 2.20944 1.63078L2.78393 2.56926C0.936562 4.23818 0 6.01169 0 7.84615C0 8.82031 0.396628 12 5.5 12C10.6034 12 11 8.82031 11 7.84615C11 6.01169 10.0641 4.23818 8.21607 2.56926ZM3.01589 1.0006C3.03286 0.971678 3.0731 0.923077 3.1523 0.923077H7.84771C7.92691 0.923077 7.96714 0.972293 7.98411 1.0006C8.00108 1.02952 8.02309 1.08926 7.98223 1.15572L7.34486 2.19629H3.65514L3.01777 1.15572C2.97691 1.08926 2.99892 1.03014 3.01589 1.0006ZM5.5 11.0769C1.38726 11.0769 0.942857 8.81785 0.942857 7.84615C0.942857 6.23508 1.83228 4.64612 3.57343 3.11997H7.42657C9.16834 4.64612 10.0571 6.23508 10.0571 7.84615C10.0571 8.81785 9.61274 11.0769 5.5 11.0769ZM6.01417 6.88184L5.21903 6.68555C5.11846 6.6597 5.03298 6.60434 4.96761 6.52126C4.90538 6.44311 4.87143 6.34213 4.87143 6.23813C4.87143 5.98398 5.07572 5.77787 5.32715 5.77787H5.67349C5.90543 5.77787 6.09966 5.95388 6.12606 6.18773C6.15434 6.44126 6.38377 6.62216 6.64652 6.5957C6.90549 6.56801 7.09154 6.33909 7.06326 6.08616C6.99537 5.48493 6.54657 5.01351 5.97143 4.8892V4.76923C5.97143 4.51446 5.76023 4.30769 5.5 4.30769C5.23977 4.30769 5.02857 4.51446 5.02857 4.76923V4.888C4.40063 5.024 3.92857 5.57659 3.92857 6.23813C3.92857 6.54644 4.03354 6.84798 4.22022 7.08429C4.40942 7.32736 4.68035 7.50278 4.98583 7.5797L5.78097 7.77599C5.98588 7.82768 6.12857 8.01172 6.12857 8.22341C6.12857 8.34649 6.08018 8.46278 5.99155 8.55078C5.90544 8.63694 5.79228 8.68367 5.67285 8.68367H5.32651C5.09457 8.68367 4.90034 8.50766 4.87394 8.27381C4.84503 8.02028 4.6156 7.83814 4.35348 7.86584C4.09451 7.89353 3.90846 8.12245 3.93674 8.37538C4.00463 8.97661 4.45343 9.44803 5.02857 9.57234V9.69231C5.02857 9.94708 5.23977 10.1538 5.5 10.1538C5.76023 10.1538 5.97143 9.94708 5.97143 9.69231V9.57354C6.23166 9.51754 6.47115 9.39015 6.66349 9.19877C6.92624 8.93785 7.07143 8.59139 7.07143 8.22401C7.07143 7.59016 6.63771 7.03876 6.01417 6.88184Z" fill="currentColor"/>
</svg>
