<svg width="16" height="16" viewBox="0 0 16 16" fill="none" xmlns="http://www.w3.org/2000/svg">
<rect width="16" height="16" rx="8" fill="#5A5E64"/>
<g clip-path="url(#clip0_7_56686)">
<path d="M4.62436 10.1058C4.68471 10.0442 4.76768 10.0083 4.85569 10.0083H12.8366C12.9824 10.0083 13.0553 10.188 12.9522 10.2932L11.3757 11.9024C11.3153 11.964 11.2324 12 11.1443 12H3.16346C3.01762 12 2.9447 11.8203 3.04779 11.7151L4.62436 10.1058Z" fill="#9CA1A8"/>
<path d="M4.62387 4.09753C4.68673 4.03593 4.76971 4 4.8552 4H12.8361C12.9819 4 13.0548 4.17966 12.9518 4.28489L11.3752 5.89413C11.3148 5.95573 11.2319 5.99166 11.1439 5.99166H3.16297C3.01713 5.99166 2.94421 5.812 3.04731 5.70677L4.62387 4.09753Z" fill="#9CA1A8"/>
<path d="M11.3757 7.08239C11.3153 7.0208 11.2324 6.98486 11.1443 6.98486H3.16346C3.01762 6.98486 2.9447 7.16452 3.04779 7.26975L4.62436 8.87899C4.68471 8.94059 4.76768 8.97652 4.85569 8.97652H12.8366C12.9824 8.97652 13.0553 8.79686 12.9522 8.69163L11.3757 7.08239Z" fill="#9CA1A8"/>
</g>
<defs>
<clipPath id="clip0_7_56686">
<rect width="10" height="8" fill="white" transform="translate(3 4)"/>
</clipPath>
</defs>
</svg>
