<svg width="16" height="16" viewBox="0 0 16 16" fill="currentColor" xmlns="http://www.w3.org/2000/svg">
<path fill-rule="evenodd" clip-rule="evenodd" d="M11.983 16C11.745 16 11.5071 15.9412 11.2872 15.8192L8.09683 14.0591C8.03611 14.0254 7.9639 14.0254 7.90317 14.0591L4.71531 15.8184C4.20738 16.0986 3.60345 16.0519 3.13902 15.6956C2.67704 15.3401 2.44893 14.7502 2.54657 14.1569L3.15461 10.4369C3.16527 10.3668 3.14394 10.2959 3.09553 10.2466L0.4361 7.52646C0.0414119 7.12255 -0.0989034 6.52749 0.070952 5.97567C0.240807 5.42213 0.68555 5.02687 1.23204 4.94383L4.90978 4.38337C4.97707 4.37299 5.03533 4.32888 5.06487 4.26574L6.65921 0.876155C6.91358 0.336451 7.42725 0 8 0C8.57275 0 9.08642 0.336451 9.34079 0.876155L10.9343 4.26401C10.9647 4.32888 11.0229 4.37299 11.0902 4.38337L14.768 4.94383C15.3145 5.02687 15.7592 5.42213 15.929 5.97567C16.0989 6.52749 15.9586 7.12255 15.5639 7.52646L12.9053 10.2457C12.8561 10.2959 12.8347 10.3668 12.8454 10.4378L13.4534 14.1595C13.5511 14.7528 13.3238 15.3418 12.8618 15.6964C12.5992 15.8979 12.2915 16 11.983 16Z" fill="#666666"/>
</svg>
