<svg t="1757493844785" class="icon" viewBox="0 0 1024 1024" version="1.1" xmlns="http://www.w3.org/2000/svg" p-id="13739" width="200" height="200"><path d="M131.657143 672.914286c-34.450286 0-43.885714 9.435429-43.885714 43.885714v175.542857c0 34.450286 9.435429 43.885714 43.885714 43.885714h175.542857c34.450286 0 43.885714-9.435429 43.885714-43.885714V716.8c0-34.450286-9.435429-43.885714-43.885714-43.885714H131.657143zM307.2 1024H131.657143C49.225143 1024 0 974.774857 0 892.342857V716.8C0 634.368 49.225143 585.142857 131.657143 585.142857h175.542857C389.632 585.142857 438.857143 634.368 438.857143 716.8v175.542857c0 82.432-49.225143 131.657143-131.657143 131.657143zM131.657143 87.771429c-34.450286 0-43.885714 9.435429-43.885714 43.885714v175.542857c0 34.450286 9.435429 43.885714 43.885714 43.885714h175.542857c34.450286 0 43.885714-9.435429 43.885714-43.885714V131.657143c0-34.450286-9.435429-43.885714-43.885714-43.885714H131.657143zM307.2 438.857143H131.657143C49.225143 438.857143 0 389.632 0 307.2V131.657143C0 49.225143 49.225143 0 131.657143 0h175.542857C389.632 0 438.857143 49.225143 438.857143 131.657143v175.542857C438.857143 389.632 389.632 438.857143 307.2 438.857143z m409.6-351.085714c-34.450286 0-43.885714 9.435429-43.885714 43.885714v175.542857c0 34.450286 9.435429 43.885714 43.885714 43.885714h175.542857c34.450286 0 43.885714-9.435429 43.885714-43.885714V131.657143c0-34.450286-9.435429-43.885714-43.885714-43.885714H716.8zM892.342857 438.857143H716.8C634.368 438.857143 585.142857 389.632 585.142857 307.2V131.657143C585.142857 49.225143 634.368 0 716.8 0h175.542857c82.432 0 131.657143 49.225143 131.657143 131.657143v175.542857c0 82.432-49.225143 131.657143-131.657143 131.657143zM804.571429 672.914286c-72.557714 0-131.657143 59.026286-131.657143 131.657143s59.099429 131.657143 131.657143 131.657142 131.657143-59.026286 131.657142-131.657142-59.099429-131.657143-131.657142-131.657143z m0 351.085714c-120.978286 0-219.428571-98.450286-219.428572-219.428571s98.450286-219.428571 219.428572-219.428572 219.428571 98.450286 219.428571 219.428572-98.450286 219.428571-219.428571 219.428571z" fill="currentColor" p-id="13740"></path></svg>