<svg width="12" height="10" viewBox="0 0 12 10" fill="none" xmlns="http://www.w3.org/2000/svg">
<path d="M1.25302 3.29067L1.97053 8.96261H10.0294L10.7469 3.29067L8.50957 4.67715L5.99996 1.41092L3.49035 4.67715L1.25302 3.29067ZM0.86748 1.80461L3.21027 3.25696L5.5458 0.217404C5.59741 0.150165 5.66555 0.0953572 5.74455 0.0575427C5.82354 0.0197282 5.91111 0 5.99996 0C6.08882 0 6.17638 0.0197282 6.25538 0.0575427C6.33438 0.0953572 6.40252 0.150165 6.45413 0.217404L8.78966 3.25696L11.133 1.80461C11.2217 1.74976 11.3254 1.71965 11.4319 1.71785C11.5384 1.71605 11.6433 1.74263 11.734 1.79446C11.8248 1.84628 11.8977 1.92117 11.9442 2.01029C11.9906 2.09941 12.0086 2.19903 11.9961 2.29737L11.0794 9.54199C11.0635 9.66817 10.9982 9.78449 10.8961 9.86892C10.794 9.95334 10.6621 9.99998 10.5254 10H1.47452C1.33786 9.99998 1.20596 9.95334 1.10384 9.86892C1.00172 9.78449 0.936473 9.66817 0.920484 9.54199L0.00378934 2.29685C-0.00859693 2.19855 0.00952783 2.09901 0.056024 2.00997C0.10252 1.92094 0.175446 1.84613 0.266194 1.79437C0.356942 1.74262 0.461723 1.71608 0.568167 1.7179C0.674611 1.71971 0.778275 1.7498 0.866922 1.80461H0.86748ZM5.99996 6.88783C5.70401 6.88783 5.42019 6.77853 5.21092 6.58398C5.00165 6.38943 4.88409 6.12557 4.88409 5.85044C4.88409 5.5753 5.00165 5.31144 5.21092 5.11689C5.42019 4.92234 5.70401 4.81305 5.99996 4.81305C6.29591 4.81305 6.57974 4.92234 6.78901 5.11689C6.99828 5.31144 7.11584 5.5753 7.11584 5.85044C7.11584 6.12557 6.99828 6.38943 6.78901 6.58398C6.57974 6.77853 6.29591 6.88783 5.99996 6.88783Z" fill="currentColor"/>
</svg>
