<svg width="9" height="10" viewBox="0 0 9 10" fill="none" xmlns="http://www.w3.org/2000/svg">
<path d="M3.83898 5.89703V6.80426C3.07536 6.80426 2.34301 7.09101 1.80305 7.60143C1.26309 8.11185 0.959744 8.80413 0.959744 9.52597H0C0 8.56351 0.404462 7.64048 1.12441 6.95992C1.84436 6.27936 2.82082 5.89703 3.83898 5.89703ZM3.83898 5.44341C2.2482 5.44341 0.959744 4.22545 0.959744 2.72171C0.959744 1.21796 2.2482 0 3.83898 0C5.42975 0 6.71821 1.21796 6.71821 2.72171C6.71821 4.22545 5.42975 5.44341 3.83898 5.44341ZM3.83898 4.53618C4.89949 4.53618 5.75846 3.7242 5.75846 2.72171C5.75846 1.71921 4.89949 0.907235 3.83898 0.907235C2.77846 0.907235 1.91949 1.71921 1.91949 2.72171C1.91949 3.7242 2.77846 4.53618 3.83898 4.53618ZM6.71821 9.29916L5.30786 10L5.57707 8.51576L4.43642 7.46428L6.01328 7.24745L6.71821 5.89703L7.42362 7.24745L9 7.46428L7.85934 8.51576L8.12807 10L6.71821 9.29916Z" fill="currentColor"/>
</svg>
