<svg width="24" height="24" viewBox="0 0 24 24" fill="none" xmlns="http://www.w3.org/2000/svg">
<rect width="24" height="24" rx="4" fill="#13C2C2" fill-opacity="0.1"/>
<path d="M8.88933 13.4659C8.71847 13.9152 8.574 14.3299 8.44493 14.7497C9.14893 14.2478 9.98567 13.9296 10.9515 13.8108C12.7943 13.5847 14.4319 12.3902 15.2605 10.889L14.1928 9.84144L15.229 8.82264L15.9623 8.10192C16.2777 7.79232 16.6333 7.22064 17.0095 6.39696C12.908 7.0212 10.3963 9.4872 8.8886 13.4659H8.88933ZM16.2667 9.84072L17 10.56C16.2667 12.72 14.0667 14.88 11.1333 15.24C9.17607 15.4805 7.9536 16.8002 7.4652 19.2H6C6.73333 14.88 8.2 4.8 19.2 4.8C18.4667 6.95784 17.7348 8.39712 17.0022 9.11784L16.2667 9.84072Z" fill="#13C2C2"/>
</svg>
