<svg width="12" height="13" viewBox="0 0 12 13" fill="none" xmlns="http://www.w3.org/2000/svg">
<path d="M3.6 11.4843V12.688C3.60009 12.7472 3.58391 12.8053 3.55336 12.8553C3.52281 12.9053 3.47915 12.9453 3.4275 12.9705C3.37585 12.9956 3.31836 13.005 3.26177 12.9975C3.20518 12.9899 3.15184 12.9658 3.108 12.9278L0.636 10.789C0.588587 10.7479 0.554526 10.6927 0.538464 10.6308C0.522402 10.5689 0.525121 10.5033 0.546251 10.4431C0.56738 10.3829 0.60589 10.3309 0.656528 10.2942C0.707166 10.2575 0.767465 10.238 0.8292 10.2382H9.6C9.91826 10.2382 10.2235 10.1069 10.4485 9.87324C10.6736 9.63956 10.8 9.32261 10.8 8.99214V4.00786H12V8.99214C12 9.65309 11.7471 10.287 11.2971 10.7543C10.847 11.2217 10.2365 11.4843 9.6 11.4843H3.6ZM8.4 1.51573V0.312024C8.39991 0.252778 8.41609 0.194734 8.44664 0.144699C8.47719 0.0946637 8.52085 0.0547134 8.5725 0.029534C8.62415 0.00435458 8.68164 -0.00500972 8.73823 0.00253949C8.79482 0.0100887 8.84816 0.0342384 8.892 0.0721557L11.364 2.21103C11.4114 2.25205 11.4454 2.30724 11.4615 2.36908C11.4776 2.43092 11.4749 2.4964 11.4539 2.5566C11.4328 2.61681 11.3944 2.66881 11.3438 2.70553C11.2933 2.74225 11.2331 2.76189 11.1714 2.76179H2.4C2.08174 2.76179 1.77652 2.89308 1.55147 3.12676C1.32643 3.36044 1.2 3.67739 1.2 4.00786V8.99214H0V4.00786C0 3.34691 0.252856 2.71302 0.702944 2.24566C1.15303 1.77829 1.76348 1.51573 2.4 1.51573H8.4Z" fill="#FFA622"/>
</svg>
