<svg width="48" height="24" viewBox="0 0 48 24" fill="none" xmlns="http://www.w3.org/2000/svg">
<rect width="48" height="24" rx="4" fill="#FFA622" fill-opacity="0.1"/>
<path d="M22.904 9.496H23.732V11.32H25.064V12.1H23.732V13.744C24.32 13.624 24.872 13.492 25.4 13.36V14.176C24.86 14.32 24.308 14.464 23.732 14.584V17.188H22.904V14.752C22.16 14.884 21.392 15.004 20.576 15.112L20.468 14.26C21.332 14.152 22.136 14.032 22.904 13.9V12.1H20.888L20.708 11.332C21.056 10.612 21.38 9.712 21.68 8.608H20.48V7.768H21.896C22.016 7.264 22.124 6.724 22.244 6.172L23.06 6.292C22.952 6.808 22.844 7.3 22.736 7.768H25.016V8.608H22.52C22.232 9.64 21.92 10.54 21.584 11.32H22.904V9.496ZM25.568 7.768H27.452C27.548 7.24 27.644 6.7 27.74 6.148L28.592 6.232C28.496 6.76 28.412 7.276 28.316 7.768H31.232V8.608H28.148L27.836 9.988H31.532V10.816H27.632C27.488 11.368 27.332 11.872 27.176 12.34H31.004V13.06C30.596 13.876 29.972 14.692 29.12 15.508C29.612 15.808 30.08 16.12 30.524 16.456L30.044 17.188C28.796 16.228 27.512 15.46 26.192 14.908L26.648 14.224C27.272 14.488 27.86 14.788 28.412 15.1C29.132 14.464 29.696 13.804 30.116 13.108H26.096C26.336 12.364 26.564 11.608 26.768 10.816H25.22V9.988H26.972C27.08 9.52 27.188 9.064 27.284 8.608H25.568V7.768ZM33.392 9.88L34.34 6.544L35.192 6.688L34.508 9.052H36.608C36.848 8.116 37.04 7.144 37.184 6.112L38.06 6.22C37.904 7.228 37.712 8.164 37.496 9.052H43.112V9.88H37.268C37.124 10.36 36.98 10.816 36.812 11.248H41.72V11.992C41.396 13.024 40.748 13.96 39.764 14.8C40.736 15.376 41.924 15.904 43.316 16.384L42.872 17.188C41.336 16.624 40.064 16.012 39.056 15.352C38.072 16.048 36.848 16.672 35.396 17.236L34.94 16.432C36.284 15.94 37.4 15.4 38.3 14.812C37.364 14.092 36.704 13.312 36.308 12.472C35.432 14.368 34.304 15.868 32.936 16.984L32.492 16.192C34.244 14.656 35.528 12.556 36.368 9.88H33.392ZM36.956 12.04C37.364 12.856 38.048 13.612 39.008 14.308C39.896 13.612 40.508 12.856 40.844 12.04H36.956ZM40.076 6.208C40.94 6.868 41.648 7.528 42.224 8.188L41.612 8.8C41.108 8.164 40.4 7.492 39.5 6.772L40.076 6.208Z" fill="#FFA622"/>
<path d="M7.6 17.4843V18.688C7.60009 18.7472 7.58391 18.8053 7.55336 18.8553C7.52281 18.9053 7.47915 18.9453 7.4275 18.9705C7.37585 18.9956 7.31836 19.005 7.26177 18.9975C7.20518 18.9899 7.15184 18.9658 7.108 18.9278L4.636 16.789C4.58859 16.7479 4.55453 16.6927 4.53846 16.6308C4.5224 16.5689 4.52512 16.5033 4.54625 16.4431C4.56738 16.3829 4.60589 16.3309 4.65653 16.2942C4.70717 16.2575 4.76747 16.238 4.8292 16.2382H13.6C13.9183 16.2382 14.2235 16.1069 14.4485 15.8732C14.6736 15.6396 14.8 15.3226 14.8 14.9921V10.0079H16V14.9921C16 15.6531 15.7471 16.287 15.2971 16.7543C14.847 17.2217 14.2365 17.4843 13.6 17.4843H7.6ZM12.4 7.51573V6.31202C12.3999 6.25278 12.4161 6.19473 12.4466 6.1447C12.4772 6.09466 12.5209 6.05471 12.5725 6.02953C12.6241 6.00435 12.6816 5.99499 12.7382 6.00254C12.7948 6.01009 12.8482 6.03424 12.892 6.07216L15.364 8.21103C15.4114 8.25205 15.4454 8.30724 15.4615 8.36908C15.4776 8.43092 15.4749 8.4964 15.4539 8.5566C15.4328 8.61681 15.3944 8.66881 15.3438 8.70553C15.2933 8.74225 15.2331 8.76189 15.1714 8.76179H6.4C6.08174 8.76179 5.77652 8.89308 5.55147 9.12676C5.32643 9.36044 5.2 9.67739 5.2 10.0079V14.9921H4V10.0079C4 9.34691 4.25286 8.71302 4.70294 8.24566C5.15303 7.77829 5.76348 7.51573 6.4 7.51573H12.4Z" fill="#FFA622"/>
</svg>
