<svg width="11" height="12" viewBox="0 0 11 12" fill="none" xmlns="http://www.w3.org/2000/svg">
<path d="M3.3 10.6009V11.712C3.30009 11.7667 3.28525 11.8202 3.25725 11.8664C3.22924 11.9126 3.18922 11.9495 3.14188 11.9727C3.09453 11.996 3.04183 12.0046 2.98996 11.9977C2.93809 11.9907 2.88919 11.9684 2.849 11.9334L0.583 9.95905C0.539538 9.92115 0.508316 9.87015 0.493592 9.81302C0.478869 9.75588 0.481361 9.69539 0.50073 9.63979C0.520098 9.58419 0.555399 9.53619 0.601817 9.50234C0.648235 9.46849 0.70351 9.45044 0.7601 9.45065H8.8C9.09174 9.45065 9.37153 9.32947 9.57782 9.11376C9.78411 8.89805 9.9 8.60549 9.9 8.30043V3.69957H11V8.30043C11 8.91055 10.7682 9.49567 10.3556 9.92709C9.94306 10.3585 9.38348 10.6009 8.8 10.6009H3.3ZM7.7 1.39913V0.288022C7.69991 0.233334 7.71475 0.179754 7.74275 0.133568C7.77076 0.0873819 7.81078 0.0505047 7.85813 0.0272621C7.90547 0.00401961 7.95817 -0.00462436 8.01004 0.00234415C8.06192 0.00931265 8.11081 0.0316046 8.151 0.0666053L10.417 2.04095C10.4604 2.07882 10.4916 2.12976 10.5064 2.18684C10.5211 2.24392 10.5187 2.30437 10.4994 2.35994C10.4801 2.41552 10.4448 2.46352 10.3985 2.49741C10.3522 2.53131 10.297 2.54944 10.2404 2.54935H2.2C1.90826 2.54935 1.62847 2.67053 1.42218 2.88624C1.21589 3.10195 1.1 3.39451 1.1 3.69957V8.30043H0V3.69957C0 3.08945 0.231785 2.50433 0.644365 2.07291C1.05695 1.6415 1.61652 1.39913 2.2 1.39913H7.7Z" fill="#FFA622"/>
</svg>
