<svg width="48" height="24" viewBox="0 0 48 24" fill="none" xmlns="http://www.w3.org/2000/svg">
<rect width="48" height="24" rx="4" fill="#13C2C2" fill-opacity="0.1"/>
<path d="M26.144 11.56V13.18H28.28V11.56H26.144ZM26.144 13.984V15.772H28.28V13.984H26.144ZM26.144 16.6V17.152H25.292V10.12C25.004 10.576 24.68 11.008 24.344 11.416L24.056 10.504C25.04 9.208 25.724 7.78 26.132 6.22L26.972 6.388C26.792 7.036 26.564 7.66 26.3 8.272H28.472C28.28 7.636 28.04 7.012 27.764 6.412L28.592 6.184C28.88 6.904 29.096 7.552 29.252 8.152L28.928 8.272H31.22V9.112H29.132V10.744H30.98V11.56H29.132V13.18H30.98V13.984H29.132V15.772H31.352V16.6H26.144ZM28.28 9.112H26.144V10.744H28.28V9.112ZM24.188 11.14V12.016C23.828 12.196 23.456 12.364 23.072 12.52V15.988C23.072 16.66 22.712 17.008 22.004 17.008H20.9L20.72 16.168C21.056 16.204 21.392 16.228 21.704 16.228C22.028 16.228 22.196 16.072 22.196 15.76V12.868C21.704 13.036 21.2 13.204 20.696 13.348L20.48 12.484C21.068 12.352 21.644 12.184 22.196 11.992V9.232H20.66V8.392H22.196V6.172H23.072V8.392H24.284V9.232H23.072V11.656C23.456 11.488 23.828 11.32 24.188 11.14ZM32.768 8.224H37.736C37.412 7.588 37.016 6.988 36.536 6.424L37.4 6.112C37.856 6.688 38.264 7.396 38.648 8.224H43.232V9.088H41.36C40.772 10.984 39.884 12.58 38.708 13.852C39.98 14.932 41.576 15.82 43.496 16.528L43.028 17.248C41.036 16.504 39.404 15.58 38.108 14.464C36.74 15.724 35.036 16.648 32.996 17.236L32.54 16.48C34.556 15.94 36.212 15.088 37.508 13.912C36.116 12.544 35.156 10.936 34.616 9.088H32.768V8.224ZM35.468 9.088C35.984 10.708 36.86 12.112 38.108 13.312C39.176 12.148 39.956 10.744 40.46 9.088H35.468Z" fill="#13C2C2"/>
<path d="M8.62667 13.8234C8.47133 14.229 8.34 14.6034 8.22267 14.9823C8.86267 14.5293 9.62333 14.242 10.5013 14.1348C12.1767 13.9306 13.6653 12.8523 14.4187 11.497L13.448 10.5513L14.39 9.63155L15.0567 8.9809C15.3433 8.7014 15.6667 8.1853 16.0087 7.4417C12.28 8.00525 9.99667 10.2315 8.626 13.8234H8.62667ZM15.3333 10.5507L16 11.2C15.3333 13.15 13.3333 15.1 10.6667 15.425C8.88733 15.6421 7.776 16.8335 7.332 19H6C6.66667 15.1 8 6 18 6C17.3333 7.94805 16.668 9.2474 16.002 9.89805L15.3333 10.5507Z" fill="#13C2C2"/>
</svg>
