<svg width="11" height="12" viewBox="0 0 11 12" fill="none" xmlns="http://www.w3.org/2000/svg">
<path d="M2.40778 7.2216C2.26539 7.596 2.145 7.9416 2.03744 8.2914C2.62411 7.8732 3.32139 7.608 4.12622 7.509C5.66194 7.3206 7.02656 6.3252 7.71711 5.0742L6.82733 4.2012L7.69083 3.3522L8.30194 2.7516C8.56472 2.4936 8.86111 2.0172 9.17461 1.3308C5.75667 1.851 3.66361 3.906 2.40717 7.2216H2.40778ZM8.55556 4.2006L9.16667 4.8C8.55556 6.6 6.72222 8.4 4.27778 8.7C2.64672 8.9004 1.628 10.0002 1.221 12H0C0.611111 8.4 1.83333 0 11 0C10.3889 1.7982 9.779 2.9976 9.1685 3.5982L8.55556 4.2006Z" fill="#13C2C2"/>
</svg>
