<svg width="48" height="24" viewBox="0 0 48 24" fill="none" xmlns="http://www.w3.org/2000/svg">
<rect width="48" height="24" rx="4" fill="#00C580" fill-opacity="0.1"/>
<path d="M23.696 9.544H28.328V13.816H23.696V9.544ZM27.512 13.084V10.288H24.5V13.084H27.512ZM30.812 6.916V17.008H29.972V16.492H22.028V17.008H21.188V6.916H30.812ZM22.028 15.724H29.972V7.684H22.028V15.724ZM35.336 7.84C35.156 8.128 34.964 8.404 34.76 8.668H41.816V12.46H37.064C36.884 12.748 36.68 13.012 36.464 13.276H41.84V13.9C41.24 14.668 40.448 15.292 39.464 15.796C40.616 16.132 41.912 16.324 43.328 16.372L43.124 17.164C41.372 17.08 39.8 16.78 38.432 16.252C37.016 16.78 35.312 17.092 33.296 17.212L32.948 16.456C34.688 16.384 36.176 16.168 37.412 15.808C36.596 15.412 35.864 14.932 35.216 14.368C34.724 14.704 34.16 15.028 33.536 15.316L33.092 14.584C34.472 14.032 35.48 13.324 36.128 12.46H34.592V8.872C34.184 9.34 33.728 9.772 33.2 10.168L32.684 9.496C33.92 8.56 34.76 7.432 35.204 6.088L36.056 6.232C35.96 6.52 35.852 6.808 35.732 7.084H42.752V7.84H35.336ZM38.444 15.46C39.404 15.064 40.184 14.572 40.772 13.984H35.84C36.608 14.584 37.472 15.076 38.444 15.46ZM40.976 11.764V10.876H35.444V11.764H40.976ZM35.444 10.228H40.976V9.352H35.444V10.228Z" fill="#00C580"/>
<path d="M10.3415 13.4412H9.07317C8.03292 13.4408 7.01234 13.7305 6.12177 14.2791C5.23121 14.8276 4.50453 15.6141 4.02029 16.5535C4.00668 16.3792 3.99991 16.2043 4 16.0294C4 12.4557 6.83907 9.55882 10.3415 9.55882V6L17 11.5L10.3415 17V13.4412ZM9.07317 12.1471H11.6098V14.2875L14.984 11.5L11.6098 8.71247V10.8529H10.3415C9.61235 10.8521 8.89167 11.012 8.22873 11.3217C7.5658 11.6314 6.97625 12.0835 6.50044 12.6472C7.31932 12.3161 8.19232 12.1464 9.07317 12.1471Z" fill="#00C580"/>
</svg>
