<svg width="48" height="24" viewBox="0 0 48 24" fill="none" xmlns="http://www.w3.org/2000/svg">
<rect width="48" height="24" rx="4" fill="#8140F1" fill-opacity="0.1"/>
<path d="M29.276 6.196H30.14V17.212H29.276V6.196ZM22.22 10.144L21.8 12.136H26.468C26.468 14.116 26.384 15.424 26.216 16.048C26.048 16.72 25.304 17.08 23.996 17.128C23.624 17.128 23.252 17.104 22.868 17.08L22.652 16.276C23.036 16.3 23.42 16.324 23.804 16.324C24.716 16.324 25.256 16.108 25.4 15.688C25.532 15.244 25.604 14.32 25.604 12.916H20.876L21.5 9.34H25.496V7.468H21.128V6.676H26.348V10.144H22.22ZM34.556 10.384V12.484H37.604V10.384H34.556ZM34.508 13.276C34.376 14.812 33.932 16.084 33.164 17.092L32.504 16.504C33.272 15.436 33.668 14.08 33.692 12.436V6.676H42.632V15.664C42.632 16.504 42.212 16.924 41.372 16.924H39.992L39.764 16.072C40.244 16.096 40.688 16.12 41.096 16.12C41.528 16.12 41.756 15.868 41.756 15.364V13.276H38.492V16.792H37.604V13.276H34.508ZM41.756 12.484V10.384H38.492V12.484H41.756ZM41.756 9.58V7.516H38.492V9.58H41.756ZM37.604 7.516H34.556V9.58H37.604V7.516Z" fill="#8140F1"/>
<path d="M14.9346 8.77583C15.6278 9.49572 16 10.3031 16 11.612C16 13.9151 14.3464 15.9794 11.9417 17L11.3407 16.0932C13.5852 14.9061 14.024 13.3657 14.199 12.3944C13.8376 12.5773 13.3644 12.6411 12.9007 12.599C11.6866 12.4891 10.7296 11.5146 10.7296 10.3031C10.7296 9.69231 10.9777 9.1065 11.4195 8.67457C11.8612 8.24265 12.4604 8 13.0851 8C13.8073 8 14.4978 8.32244 14.9346 8.77583ZM8.20437 8.77583C8.89759 9.49572 9.26977 10.3031 9.26977 11.612C9.26977 13.9151 7.61615 15.9794 5.21144 17L4.61043 16.0932C6.85496 14.9061 7.29377 13.3657 7.46876 12.3944C7.10735 12.5773 6.63421 12.6411 6.1705 12.599C4.95637 12.4891 4 11.5146 4 10.3031C4 9.69231 4.24818 9.1065 4.68993 8.67457C5.13169 8.24265 5.73084 8 6.35558 8C7.07773 8 7.76826 8.32244 8.20505 8.77583H8.20437Z" fill="#8140F1"/>
</svg>
