<svg width="24" height="24" viewBox="0 0 24 24" fill="none" xmlns="http://www.w3.org/2000/svg">
<rect width="24" height="24" rx="4" fill="#00C580" fill-opacity="0.1"/>
<path d="M11.8244 14.1176H10.4196C9.26728 14.1172 8.1368 14.4333 7.15032 15.0317C6.16385 15.6301 5.35891 16.4881 4.82253 17.5129C4.80745 17.3227 4.79995 17.132 4.80005 16.9412C4.80005 13.0426 7.94487 9.88235 11.8244 9.88235V6L19.2 12L11.8244 18V14.1176ZM10.4196 12.7059H13.2293V15.0409L16.967 12L13.2293 8.95906V11.2941H11.8244C11.0168 11.2932 10.2185 11.4676 9.48419 11.8055C8.74986 12.1433 8.09682 12.6366 7.56977 13.2515C8.47684 12.8903 9.44385 12.7051 10.4196 12.7059Z" fill="#00C580"/>
</svg>
