<svg width="24" height="24" viewBox="0 0 24 24" fill="none" xmlns="http://www.w3.org/2000/svg">
<rect width="24" height="24" rx="4" fill="#8140F1" fill-opacity="0.1"/>
<path d="M18.1215 7.531C18.9534 8.39487 19.4 9.36377 19.4 10.9344C19.4 13.6981 17.4157 16.1753 14.53 17.4L13.8088 16.3119C16.5022 14.8874 17.0288 13.0388 17.2388 11.8733C16.8051 12.0928 16.2373 12.1694 15.6809 12.1188C14.2239 11.987 13.0755 10.8175 13.0755 9.36377C13.0755 8.63077 13.3733 7.9278 13.9034 7.40949C14.4335 6.89119 15.1525 6.60001 15.9022 6.60001C16.7687 6.60001 17.5974 6.98693 18.1215 7.531ZM10.0452 7.531C10.8771 8.39487 11.3237 9.36377 11.3237 10.9344C11.3237 13.6981 9.33938 16.1753 6.45373 17.4L5.73252 16.3119C8.42596 14.8874 8.95253 13.0388 9.16251 11.8733C8.72882 12.0928 8.16105 12.1694 7.6046 12.1188C6.14764 11.987 5 10.8175 5 9.36377C5 8.63077 5.29781 7.9278 5.82792 7.40949C6.35803 6.89119 7.07701 6.60001 7.8267 6.60001C8.69328 6.60001 9.52191 6.98693 10.0461 7.531H10.0452Z" fill="#8140F1"/>
</svg>
