<svg width="24" height="24" viewBox="0 0 24 24" fill="none" xmlns="http://www.w3.org/2000/svg">
<rect width="24" height="24" rx="4" fill="#FFA622" fill-opacity="0.1"/>
<path d="M9.96 17.521V18.8544C9.9601 18.92 9.9423 18.9843 9.9087 19.0397C9.87509 19.0951 9.82706 19.1394 9.77025 19.1673C9.71344 19.1952 9.6502 19.2056 9.58795 19.1972C9.5257 19.1888 9.46702 19.1621 9.4188 19.1201L6.6996 16.7509C6.64745 16.7054 6.60998 16.6442 6.59231 16.5756C6.57464 16.5071 6.57763 16.4345 6.60088 16.3677C6.62412 16.301 6.66648 16.2434 6.72218 16.2028C6.77788 16.1622 6.84421 16.1405 6.91212 16.1408H16.56C16.9101 16.1408 17.2458 15.9954 17.4934 15.7365C17.7409 15.4777 17.88 15.1266 17.88 14.7605V9.23948H19.2V14.7605C19.2 15.4927 18.9219 16.1948 18.4268 16.7125C17.9317 17.2302 17.2602 17.521 16.56 17.521H9.96ZM15.24 6.47896V5.14563C15.2399 5.08 15.2577 5.01571 15.2913 4.96028C15.3249 4.90486 15.3729 4.86061 15.4297 4.83272C15.4866 4.80483 15.5498 4.79445 15.612 4.80282C15.6743 4.81118 15.733 4.83793 15.7812 4.87993L18.5004 7.24915C18.5525 7.29459 18.59 7.35572 18.6076 7.42421C18.6253 7.49271 18.6224 7.56524 18.5992 7.63193C18.5761 7.69862 18.5338 7.75623 18.4782 7.7969C18.4226 7.83757 18.3564 7.85933 18.2885 7.85922H8.64C8.28991 7.85922 7.95417 8.00464 7.70662 8.26349C7.45907 8.52234 7.32 8.87341 7.32 9.23948V14.7605H6V9.23948C6 8.50735 6.27814 7.8052 6.77324 7.2875C7.26833 6.7698 7.93983 6.47896 8.64 6.47896H15.24Z" fill="#FFA622"/>
</svg>
