<svg width="13" height="11" viewBox="0 0 13 11" fill="none" xmlns="http://www.w3.org/2000/svg">
<path d="M6.34146 7.44118H5.07317C4.03292 7.44077 3.01234 7.7305 2.12177 8.27906C1.23121 8.82761 0.504528 9.61411 0.0202936 10.5535C0.00668262 10.3792 -8.70573e-05 10.2043 8.45071e-07 10.0294C8.45071e-07 6.45571 2.83907 3.55882 6.34146 3.55882V0L13 5.5L6.34146 11V7.44118ZM5.07317 6.14706H7.60976V8.28753L10.984 5.5L7.60976 2.71247V4.85294H6.34146C5.61235 4.85211 4.89167 5.012 4.22873 5.32168C3.5658 5.63137 2.97625 6.08353 2.50044 6.64724C3.31932 6.31608 4.19232 6.14636 5.07317 6.14706Z" fill="#00C580"/>
</svg>
