<svg width="12" height="9" viewBox="0 0 12 9" fill="none" xmlns="http://www.w3.org/2000/svg">
<path d="M10.9346 0.775828C11.6278 1.49572 12 2.30314 12 3.61198C12 5.91511 10.3464 7.97938 7.94167 9L7.34066 8.09322C9.58519 6.90612 10.024 5.36565 10.199 4.39438C9.83758 4.57732 9.36444 4.64115 8.90073 4.59903C7.6866 4.48914 6.72956 3.51459 6.72956 2.30314C6.72956 1.69231 6.97773 1.1065 7.41949 0.674573C7.86125 0.242651 8.4604 0 9.08514 0C9.80729 0 10.4978 0.322439 10.9346 0.775828ZM4.20437 0.775828C4.89759 1.49572 5.26977 2.30314 5.26977 3.61198C5.26977 5.91511 3.61615 7.97938 1.21144 9L0.610432 8.09322C2.85496 6.90612 3.29377 5.36565 3.46876 4.39438C3.10735 4.57732 2.63421 4.64115 2.1705 4.59903C0.956366 4.48914 0 3.51459 0 2.30314C0 1.69231 0.248176 1.1065 0.689933 0.674573C1.13169 0.242651 1.73084 0 2.35558 0C3.07773 0 3.76826 0.322439 4.20505 0.775828H4.20437Z" fill="#8140F1"/>
</svg>
