<svg width="12" height="13" viewBox="0 0 12 13" fill="none" xmlns="http://www.w3.org/2000/svg">
<path d="M2.62667 7.8234C2.47133 8.229 2.34 8.6034 2.22267 8.98235C2.86267 8.5293 3.62333 8.242 4.50133 8.13475C6.17667 7.93065 7.66533 6.8523 8.41867 5.49705L7.448 4.5513L8.39 3.63155L9.05667 2.9809C9.34333 2.7014 9.66667 2.1853 10.0087 1.4417C6.28 2.00525 3.99667 4.2315 2.626 7.8234H2.62667ZM9.33333 4.55065L10 5.2C9.33333 7.15 7.33333 9.1 4.66667 9.425C2.88733 9.6421 1.776 10.8335 1.332 13H0C0.666667 9.1 2 0 12 0C11.3333 1.94805 10.668 3.2474 10.002 3.89805L9.33333 4.55065Z" fill="#13C2C2"/>
</svg>
