<svg width="12" height="11" viewBox="0 0 12 11" fill="none" xmlns="http://www.w3.org/2000/svg">
<path d="M10.1999 6.36842V8.10526H11.9998V9.26316H10.1993L10.1999 11H8.99999L8.99939 9.26316H7.20011V8.10526H8.99999V6.36842H10.1999ZM10.9457 1.0172C12.3028 2.33025 12.3496 4.42141 11.0872 5.78484L10.2353 4.96389C11.0338 4.08157 10.9918 2.69789 10.0961 1.83525C9.19437 0.967411 7.74427 0.930358 6.80234 1.74667L6.00139 2.44025L5.19985 1.74725C4.25491 0.929779 2.80541 0.965674 1.90367 1.83641C1.00973 2.69904 0.964737 4.07983 1.78848 4.99226L6.84733 9.88205L6.00019 10.7018L0.912541 5.78542C-0.349772 4.42141 -0.302375 2.32678 1.05413 1.0172C2.41304 -0.293538 4.58669 -0.337538 6.00019 0.8852C7.40949 -0.335802 9.58735 -0.295275 10.9451 1.0172H10.9457Z" fill="#9CA1A8"/>
</svg>
