<svg width="12" height="10" viewBox="0 0 12 10" fill="none" xmlns="http://www.w3.org/2000/svg">
<path d="M5.85366 6.76471H4.68293C3.72269 6.76434 2.78062 7.02773 1.95856 7.52641C1.1365 8.0251 0.465718 8.7401 0.0187325 9.59412C0.00616858 9.43561 -8.03606e-05 9.27666 7.80066e-07 9.11765C7.80066e-07 5.86882 2.62068 3.23529 5.85366 3.23529V0L12 5L5.85366 10V6.76471ZM4.68293 5.58824H7.02439V7.53412L10.1391 5L7.02439 2.46588V4.41177H5.85366C5.18063 4.41101 4.51539 4.55636 3.90345 4.8379C3.29151 5.11943 2.74731 5.53048 2.3081 6.04294C3.06399 5.74189 3.86983 5.5876 4.68293 5.58824Z" fill="#00C580"/>
</svg>
