<svg width="14" height="14" viewBox="0 0 14 14" fill="none" xmlns="http://www.w3.org/2000/svg">
<g clip-path="url(#clip0_10368_45394)">
<path d="M7.27699 12.446C6.3821 12.446 5.58665 12.3239 4.89062 12.0795C4.19744 11.8381 3.61222 11.4815 3.13494 11.0099C2.65767 10.5412 2.29545 9.96875 2.0483 9.29261C1.80114 8.61648 1.67614 7.84375 1.6733 6.97443C1.67614 6.125 1.80256 5.35938 2.05256 4.67756C2.30256 3.9929 2.66761 3.40767 3.14773 2.92188C3.62784 2.43324 4.21449 2.05824 4.90767 1.79688C5.60085 1.53551 6.3892 1.40483 7.27273 1.40483C8.10511 1.40483 8.84233 1.53125 9.48438 1.78409C10.1293 2.03693 10.6733 2.3892 11.1165 2.84091C11.5625 3.28977 11.8991 3.81534 12.1264 4.41761C12.3565 5.01705 12.4716 5.66761 12.4716 6.36932C12.4716 6.85511 12.4347 7.31534 12.3608 7.75C12.2869 8.18182 12.1605 8.56534 11.9815 8.90057C11.8054 9.2358 11.5653 9.50284 11.2614 9.7017C10.9574 9.89773 10.5767 10.0043 10.1193 10.0213C9.83239 10.0355 9.58097 10.0085 9.36506 9.94034C9.14915 9.87216 8.97443 9.76562 8.84091 9.62074C8.71023 9.47301 8.62784 9.29261 8.59375 9.07955H8.54261C8.47727 9.25 8.35369 9.40625 8.17188 9.5483C7.9929 9.6875 7.77131 9.79687 7.5071 9.87642C7.2429 9.95312 6.94886 9.98438 6.625 9.97017C6.27841 9.95312 5.95739 9.87358 5.66193 9.73153C5.36932 9.58665 5.11364 9.38494 4.89489 9.12642C4.67898 8.86506 4.51136 8.54972 4.39205 8.1804C4.27273 7.81108 4.21307 7.39205 4.21307 6.9233C4.21307 6.46591 4.27841 6.0625 4.40909 5.71307C4.53977 5.36364 4.71449 5.06534 4.93324 4.81818C5.15483 4.57102 5.40483 4.37784 5.68324 4.23864C5.96165 4.09659 6.24858 4.00568 6.54403 3.96591C6.85085 3.9233 7.1392 3.92756 7.40909 3.97869C7.67898 4.02983 7.90341 4.10795 8.08239 4.21307C8.2642 4.31818 8.37784 4.43324 8.4233 4.55824H8.48295V4.08097H9.67188V8.13778C9.67472 8.35085 9.72585 8.52273 9.82528 8.65341C9.92756 8.78409 10.0696 8.84943 10.2514 8.84943C10.4787 8.84943 10.6619 8.75994 10.8011 8.58097C10.9432 8.39915 11.0455 8.12074 11.108 7.74574C11.1733 7.3679 11.2045 6.88494 11.2017 6.29688C11.2045 5.81392 11.1406 5.37642 11.0099 4.98438C10.8821 4.58949 10.7003 4.2429 10.4645 3.9446C10.2287 3.64631 9.94602 3.39773 9.61648 3.19886C9.28977 2.99716 8.92614 2.84517 8.52557 2.7429C8.125 2.64062 7.69744 2.58949 7.2429 2.58949C6.54688 2.58949 5.93466 2.69602 5.40625 2.90909C4.87784 3.11932 4.43466 3.41903 4.0767 3.80824C3.72159 4.19744 3.45313 4.65909 3.27131 5.19318C3.09233 5.72443 3.00284 6.3125 3.00284 6.95739C3.00284 7.64773 3.09659 8.25994 3.28409 8.79403C3.47443 9.32528 3.75284 9.77273 4.11932 10.1364C4.4858 10.5 4.93892 10.7756 5.47869 10.9631C6.02131 11.1506 6.64489 11.2443 7.34943 11.2443C7.6733 11.2443 7.99006 11.2188 8.29972 11.1676C8.60938 11.1165 8.88778 11.0568 9.13494 10.9886C9.3821 10.9205 9.57244 10.8608 9.70597 10.8097L10.0682 11.892C9.89205 11.983 9.65341 12.071 9.35227 12.1562C9.05398 12.2415 8.72443 12.3111 8.36364 12.3651C8.00568 12.419 7.64347 12.446 7.27699 12.446ZM6.97869 8.74716C7.33949 8.74716 7.62784 8.67756 7.84375 8.53835C8.05966 8.39631 8.21449 8.18608 8.30824 7.90767C8.40199 7.62926 8.44744 7.28267 8.4446 6.8679C8.4446 6.48153 8.39631 6.16477 8.29972 5.91761C8.20313 5.67045 8.0483 5.48722 7.83523 5.3679C7.62216 5.24858 7.33949 5.18892 6.98722 5.18892C6.66903 5.18892 6.39773 5.26136 6.1733 5.40625C5.9517 5.55114 5.78125 5.75142 5.66193 6.0071C5.54545 6.25994 5.48722 6.5483 5.48722 6.87216C5.48722 7.19602 5.53409 7.50142 5.62784 7.78835C5.72443 8.07244 5.88068 8.30398 6.09659 8.48295C6.31534 8.65909 6.60938 8.74716 6.97869 8.74716Z" fill="currentColor"/>
</g>
<defs>
<clipPath id="clip0_10368_45394">
<rect width="14" height="14" fill="white"/>
</clipPath>
</defs>
</svg>
