<svg width="12" height="12" viewBox="0 0 12 12" fill="none" xmlns="http://www.w3.org/2000/svg">
<path d="M11.1568 9.73078L10.2679 10.6197L8.04636 8.39815L7.99997 8.44447L7.55553 10.6667L6.66665 11.5556L4 8.88892L0.888887 12L0 11.1111L3.11111 8.00003L0.444441 5.33333L1.33333 4.44445L3.55556 4L3.60188 3.95367L1.37902 1.7308L2.2679 0.841911L11.1568 9.73078ZM4.49077 4.84256L4.17531 5.15803L2.40164 5.51277L6.48727 9.59835L6.84195 7.82467L7.15741 7.50921L4.49077 4.84256ZM9.7778 4.8889L8.93524 5.73144L9.82412 6.62032L10.6667 5.77777L11.1111 6.22221L12 5.33333L6.66665 0L5.77777 0.888894L6.22221 1.33333L5.37965 2.17589L6.26853 3.06478L7.11109 2.22223L9.7778 4.8889Z" fill="#E08235"/>
</svg>
