<svg width="12" height="12" viewBox="0 0 12 12" fill="none" xmlns="http://www.w3.org/2000/svg">
<path d="M10.8 6C10.7999 4.93013 10.4423 3.89096 9.78415 3.04751C9.12595 2.20407 8.20484 1.60469 7.16708 1.34456C6.12931 1.08443 5.03439 1.17846 4.05617 1.61172C3.07795 2.04498 2.27252 2.79263 1.76777 3.73595C1.26302 4.67927 1.0879 5.76418 1.2702 6.81841C1.4525 7.87263 1.98177 8.83573 2.77398 9.55478C3.56619 10.2738 4.57592 10.7076 5.64282 10.7872C6.70973 10.8668 7.77265 10.5877 8.6628 9.99419L9.3288 10.9926C8.34372 11.6512 7.18497 12.0019 6 12C2.6862 12 0 9.31379 0 6C0 2.6862 2.6862 0 6 0C9.3138 0 12 2.6862 12 6V6.9C12.0001 7.34925 11.8561 7.78668 11.5891 8.14803C11.3222 8.50938 10.9464 8.77561 10.517 8.90761C10.0876 9.0396 9.62715 9.03041 9.20334 8.88137C8.77953 8.73234 8.41469 8.45132 8.1624 8.07959C7.76194 8.49599 7.24978 8.78791 6.68743 8.92027C6.12508 9.05263 5.53648 9.0198 4.99234 8.82574C4.4482 8.63167 3.97166 8.28462 3.61998 7.82628C3.26831 7.36794 3.05645 6.81781 3.00986 6.24198C2.96328 5.66615 3.08395 5.08911 3.35737 4.5802C3.6308 4.07129 4.04535 3.65215 4.55122 3.37314C5.05709 3.09413 5.63276 2.96711 6.20907 3.00736C6.78538 3.0476 7.33782 3.25339 7.8 3.6H9V6.9C9 7.13869 9.09482 7.36761 9.2636 7.53639C9.43239 7.70517 9.66131 7.79999 9.9 7.79999C10.1387 7.79999 10.3676 7.70517 10.5364 7.53639C10.7052 7.36761 10.8 7.13869 10.8 6.9V6ZM6 4.2C5.52261 4.2 5.06477 4.38964 4.72721 4.7272C4.38964 5.06477 4.2 5.52261 4.2 6C4.2 6.47739 4.38964 6.93522 4.72721 7.27279C5.06477 7.61035 5.52261 7.79999 6 7.79999C6.47739 7.79999 6.93523 7.61035 7.27279 7.27279C7.61036 6.93522 7.8 6.47739 7.8 6C7.8 5.52261 7.61036 5.06477 7.27279 4.7272C6.93523 4.38964 6.47739 4.2 6 4.2Z" fill="currentColor"/>
</svg>
