<svg width="9" height="12" viewBox="0 0 9 12" fill="none" xmlns="http://www.w3.org/2000/svg">
<path d="M0 12C0 10.7876 0.474106 9.62482 1.31802 8.76751C2.16193 7.9102 3.30653 7.42857 4.5 7.42857C5.69347 7.42857 6.83807 7.9102 7.68198 8.76751C8.52589 9.62482 9 10.7876 9 12H7.875C7.875 11.0907 7.51942 10.2186 6.88649 9.57563C6.25355 8.93265 5.39511 8.57143 4.5 8.57143C3.60489 8.57143 2.74645 8.93265 2.11351 9.57563C1.48058 10.2186 1.125 11.0907 1.125 12H0ZM4.5 6.85714C2.63531 6.85714 1.125 5.32286 1.125 3.42857C1.125 1.53429 2.63531 0 4.5 0C6.36469 0 7.875 1.53429 7.875 3.42857C7.875 5.32286 6.36469 6.85714 4.5 6.85714ZM4.5 5.71429C5.74312 5.71429 6.75 4.69143 6.75 3.42857C6.75 2.16571 5.74312 1.14286 4.5 1.14286C3.25688 1.14286 2.25 2.16571 2.25 3.42857C2.25 4.69143 3.25688 5.71429 4.5 5.71429Z" fill="currentColor"/>
</svg>
