<svg width="12" height="12" viewBox="0 0 12 12" fill="none" xmlns="http://www.w3.org/2000/svg">
<path d="M9.57031 0.850586L8.04883 2.37598H11.4053C11.7339 2.37623 12 2.64386 12 2.97754V11.3984C12 11.7303 11.7273 11.9997 11.4053 12H0.594727C0.516368 11.9998 0.438518 11.9844 0.366211 11.9541C0.293814 11.9238 0.228115 11.8791 0.172852 11.8232C0.117569 11.7674 0.073623 11.7008 0.0439453 11.6279C0.0143367 11.5551 -0.000473529 11.4771 0 11.3984V2.97754C0 2.64568 0.272737 2.37625 0.594727 2.37598H3.95117L2.42969 0.850586L3.27832 0L5.64844 2.37598H6.35156L8.72168 0L9.57031 0.850586ZM4.85938 5C4.7965 5 4.7346 5.01802 4.67969 5.05176C4.62547 5.08672 4.5803 5.13637 4.54883 5.19629C4.51741 5.25622 4.50046 5.32435 4.5 5.39355V9.60449C4.4996 9.67393 4.51633 9.74261 4.54785 9.80273C4.57939 9.86271 4.62498 9.91207 4.67969 9.94629C4.73425 9.98118 4.79629 10 4.85938 10C4.92242 9.99998 4.98453 9.98116 5.03906 9.94629L8.32031 7.83789C8.37466 7.80287 8.41968 7.75245 8.45117 7.69238C8.48258 7.63237 8.49961 7.5644 8.5 7.49512C8.49577 7.4279 8.47735 7.36272 8.44629 7.30469C8.41511 7.24653 8.37184 7.19673 8.32031 7.16016L5.03906 5.05176C4.98418 5.01805 4.9222 5.00002 4.85938 5Z" fill="currentColor"/>
</svg>
