<svg width="12" height="10" viewBox="0 0 12 10" fill="currentColor" xmlns="http://www.w3.org/2000/svg">
<path d="M6 7.45457C6.68182 7.45457 7.26136 7.21594 7.73864 6.73866C8.21591 6.26139 8.45455 5.68185 8.45455 5.00003C8.45455 4.31821 8.21591 3.73866 7.73864 3.26139C7.26136 2.78412 6.68182 2.54548 6 2.54548C5.31818 2.54548 4.73864 2.78412 4.26136 3.26139C3.78409 3.73866 3.54545 4.31821 3.54545 5.00003C3.54545 5.68185 3.78409 6.26139 4.26136 6.73866C4.73864 7.21594 5.31818 7.45457 6 7.45457ZM6 6.47275C5.59091 6.47275 5.24318 6.32957 4.95682 6.04321C4.67045 5.75685 4.52727 5.40912 4.52727 5.00003C4.52727 4.59094 4.67045 4.24321 4.95682 3.95685C5.24318 3.67048 5.59091 3.5273 6 3.5273C6.40909 3.5273 6.75682 3.67048 7.04318 3.95685C7.32955 4.24321 7.47273 4.59094 7.47273 5.00003C7.47273 5.40912 7.32955 5.75685 7.04318 6.04321C6.75682 6.32957 6.40909 6.47275 6 6.47275ZM6 9.09094C4.67273 9.09094 3.46364 8.72048 2.37273 7.97957C1.28182 7.23866 0.490909 6.24548 0 5.00003C0.490909 3.75457 1.28182 2.76139 2.37273 2.02048C3.46364 1.27957 4.67273 0.909119 6 0.909119C7.32727 0.909119 8.53636 1.27957 9.62727 2.02048C10.7182 2.76139 11.5091 3.75457 12 5.00003C11.5091 6.24548 10.7182 7.23866 9.62727 7.97957C8.53636 8.72048 7.32727 9.09094 6 9.09094ZM6 8.00003C7.02727 8.00003 7.97045 7.72957 8.82955 7.18866C9.68864 6.64776 10.3455 5.91821 10.8 5.00003C10.3455 4.08185 9.68864 3.3523 8.82955 2.81139C7.97045 2.27048 7.02727 2.00003 6 2.00003C4.97273 2.00003 4.02955 2.27048 3.17045 2.81139C2.31136 3.3523 1.65455 4.08185 1.2 5.00003C1.65455 5.91821 2.31136 6.64776 3.17045 7.18866C4.02955 7.72957 4.97273 8.00003 6 8.00003Z" fill="#F5F5F5"/>
</svg>
