<svg width="12" height="12" viewBox="0 0 12 12" fill="none" xmlns="http://www.w3.org/2000/svg">
<path d="M6 12C2.6862 12 0 9.3138 0 6C0 2.6862 2.6862 0 6 0C9.3138 0 12 2.6862 12 6C12 9.3138 9.3138 12 6 12ZM6 10.8C7.27304 10.8 8.49394 10.2943 9.39411 9.39411C10.2943 8.49394 10.8 7.27304 10.8 6C10.8 4.72696 10.2943 3.50606 9.39411 2.60589C8.49394 1.70571 7.27304 1.2 6 1.2C4.72696 1.2 3.50606 1.70571 2.60589 2.60589C1.70571 3.50606 1.2 4.72696 1.2 6C1.2 7.27304 1.70571 8.49394 2.60589 9.39411C3.50606 10.2943 4.72696 10.8 6 10.8ZM3.9 7.2H7.2C7.27957 7.2 7.35587 7.16839 7.41213 7.11213C7.46839 7.05587 7.5 6.97957 7.5 6.9C7.5 6.82044 7.46839 6.74413 7.41213 6.68787C7.35587 6.63161 7.27957 6.6 7.2 6.6H4.8C4.40218 6.6 4.02064 6.44197 3.73934 6.16066C3.45804 5.87936 3.3 5.49783 3.3 5.1C3.3 4.70218 3.45804 4.32064 3.73934 4.03934C4.02064 3.75804 4.40218 3.6 4.8 3.6H5.4V2.4H6.6V3.6H8.1V4.8H4.8C4.72044 4.8 4.64413 4.83161 4.58787 4.88787C4.53161 4.94413 4.5 5.02044 4.5 5.1C4.5 5.17956 4.53161 5.25587 4.58787 5.31213C4.64413 5.36839 4.72044 5.4 4.8 5.4H7.2C7.59783 5.4 7.97936 5.55804 8.26066 5.83934C8.54197 6.12064 8.7 6.50218 8.7 6.9C8.7 7.29782 8.54197 7.67936 8.26066 7.96066C7.97936 8.24197 7.59783 8.4 7.2 8.4H6.6V9.6H5.4V8.4H3.9V7.2Z" fill="currentColor"/>
</svg>
