<svg width="14" height="14" viewBox="0 0 14 14" fill="none" xmlns="http://www.w3.org/2000/svg">
<path fill-rule="evenodd" clip-rule="evenodd" d="M9.90806 1.58333C10.7329 1.58333 11.3176 2.23003 11.3664 3.04257L11.3693 3.13704V3.90037C11.9877 4.07528 12.4812 4.60402 12.5258 5.26712L12.5294 5.37273V11.0123C12.5294 11.8371 11.8593 12.5317 11.0468 12.5805L10.9523 12.5833L2.87874 12.5805C2.05393 12.5805 1.55166 11.9395 1.50283 11.1269L1.5 11.0324V3.13704C1.5 2.31224 2.23356 1.63498 3.0461 1.58616L3.14057 1.58333L9.90806 1.58333ZM2.38925 4.51599V11.0296C2.38925 11.3946 2.66665 11.6948 3.02212 11.7309L3.0942 11.7346H10.9896C11.3546 11.7346 11.6548 11.4572 11.6909 11.1017L11.6945 11.0296V9.9017H9.7207C8.7863 9.9017 8.02882 9.14422 8.02882 8.20983C8.02882 7.3088 8.73316 6.57228 9.62129 6.52083L9.7207 6.51795H11.6945V5.39004C11.6945 5.02504 11.4172 4.72483 11.0617 4.68873L10.9896 4.68509H3.0942C2.88266 4.68509 2.68102 4.64274 2.49728 4.56606L2.38925 4.51599ZM11.6946 7.36388H9.72078C9.25359 7.36388 8.87485 7.74262 8.87485 8.20982C8.87485 8.64954 9.21034 9.01089 9.63931 9.05188L9.72078 9.05576H11.6946V7.36388ZM9.86168 2.42928H3.0942C2.70487 2.42928 2.38925 2.74489 2.38925 3.13422C2.38925 3.49922 2.66665 3.79943 3.02212 3.83553L3.0942 3.83917H10.5666V3.13422C10.5666 2.76922 10.2892 2.46902 9.93376 2.43292L9.86168 2.42928Z" fill="currentColor"/>
</svg>
