<svg width="55" height="41" viewBox="0 0 55 41" fill="none" xmlns="http://www.w3.org/2000/svg">
<path d="M51.5494 0.5H4.70468C3.21086 0.5 1.99988 1.70905 1.99988 3.20048V37.7995C1.99988 39.291 3.21086 40.5 4.70468 40.5H51.5494C53.0432 40.5 54.2542 39.291 54.2542 37.7995V3.20048C54.2542 1.70905 53.0432 0.5 51.5494 0.5Z" fill="#383F4B" stroke="#1F242C"/>
<path d="M2.28929 15.6149H13.7933C16.7656 15.6149 19.1759 18.0237 19.1759 20.9889C19.1759 23.9565 16.7631 26.3629 13.7933 26.3629H2.46601C1.38115 26.3629 0.5 25.4832 0.5 24.4V17.3989C0.5 16.4137 1.3026 15.6124 2.28929 15.6124V15.6149Z" fill="#383F4B" stroke="#1F242C"/>
<path d="M50.074 30.8621H33.8427C33.1826 30.8621 32.6474 31.3958 32.6474 32.0542C32.6474 32.7127 33.1826 33.2464 33.8427 33.2464H50.074C50.7341 33.2464 51.2693 32.7127 51.2693 32.0542C51.2693 31.3958 50.7341 30.8621 50.074 30.8621Z" fill="#5A5E64"/>
<path d="M50.0749 34.3418H40.6891C40.029 34.3418 39.4938 34.8756 39.4938 35.534C39.4938 36.1924 40.029 36.7262 40.6891 36.7262H50.0749C50.7351 36.7262 51.2703 36.1924 51.2703 35.534C51.2703 34.8756 50.7351 34.3418 50.0749 34.3418Z" fill="#5A5E64"/>
<path d="M50.4329 25.0887H43.3396C42.8773 25.0887 42.5026 25.4629 42.5026 25.9244V28.4974C42.5026 28.9589 42.8773 29.3331 43.3396 29.3331H50.4329C50.8952 29.3331 51.2699 28.9589 51.2699 28.4974V25.9244C51.2699 25.4629 50.8952 25.0887 50.4329 25.0887Z" fill="#1F242C"/>
<path d="M13.5574 24.7015C15.6111 24.7015 17.2759 23.0393 17.2759 20.9889C17.2759 18.9385 15.6111 17.2764 13.5574 17.2764C11.5038 17.2764 9.83893 18.9385 9.83893 20.9889C9.83893 23.0393 11.5038 24.7015 13.5574 24.7015Z" fill="#383F4B" stroke="#1F242C"/>
</svg>
