<svg width="55" height="41" viewBox="0 0 55 41" fill="none" xmlns="http://www.w3.org/2000/svg">
<path d="M51.5495 0.5H4.7048C3.21098 0.5 2 1.70905 2 3.20048V37.7995C2 39.291 3.21098 40.5 4.7048 40.5H51.5495C53.0433 40.5 54.2543 39.291 54.2543 37.7995V3.20048C54.2543 1.70905 53.0433 0.5 51.5495 0.5Z" fill="#CAD6EC" stroke="white"/>
<path d="M2.28929 15.615H13.7933C16.7656 15.615 19.1759 18.0239 19.1759 20.989C19.1759 23.9566 16.7631 26.363 13.7933 26.363H2.46601C1.38115 26.363 0.5 25.4833 0.5 24.4001V17.399C0.5 16.4139 1.3026 15.6125 2.28929 15.6125V15.615Z" fill="#CAD6EC" stroke="white"/>
<path d="M50.074 30.8621H33.8428C33.1826 30.8621 32.6475 31.3958 32.6475 32.0542C32.6475 32.7127 33.1826 33.2464 33.8428 33.2464H50.074C50.7342 33.2464 51.2693 32.7127 51.2693 32.0542C51.2693 31.3958 50.7342 30.8621 50.074 30.8621Z" fill="#A9B0BC"/>
<path d="M50.0752 34.3418H40.6895C40.0293 34.3418 39.4941 34.8756 39.4941 35.534C39.4941 36.1924 40.0293 36.7262 40.6895 36.7262H50.0752C50.7354 36.7262 51.2706 36.1924 51.2706 35.534C51.2706 34.8756 50.7354 34.3418 50.0752 34.3418Z" fill="#A9B0BC"/>
<path d="M50.4332 25.0886H43.3399C42.8777 25.0886 42.5029 25.4627 42.5029 25.9242V28.4973C42.5029 28.9588 42.8777 29.3329 43.3399 29.3329H50.4332C50.8955 29.3329 51.2702 28.9588 51.2702 28.4973V25.9242C51.2702 25.4627 50.8955 25.0886 50.4332 25.0886Z" fill="white"/>
<path d="M13.5574 24.7015C15.611 24.7015 17.2758 23.0393 17.2758 20.9889C17.2758 18.9385 15.611 17.2764 13.5574 17.2764C11.5037 17.2764 9.83887 18.9385 9.83887 20.9889C9.83887 23.0393 11.5037 24.7015 13.5574 24.7015Z" fill="#CAD6EC" stroke="white"/>
</svg>
