<svg width="12" height="12" viewBox="0 0 12 12" fill="none" xmlns="http://www.w3.org/2000/svg">
<path d="M1.5 4.65001H10.05C10.1693 4.65001 10.2838 4.69742 10.3682 4.78181C10.4526 4.86621 10.5 4.98066 10.5 5.10001V9.60001C10.5 9.71936 10.4526 9.83382 10.3682 9.91821C10.2838 10.0026 10.1693 10.05 10.05 10.05H1.95C1.83065 10.05 1.71619 10.0026 1.6318 9.91821C1.54741 9.83382 1.5 9.71936 1.5 9.60001V4.65001ZM1.95 1.95001H8.7V3.75001H1.5V2.40001C1.5 2.28066 1.54741 2.16621 1.6318 2.08181C1.71619 1.99742 1.83065 1.95001 1.95 1.95001ZM7.35 6.90001V7.80001H8.7V6.90001H7.35Z" fill="currentColor"/>
</svg>
