<svg width="24" height="24" viewBox="0 0 24 24" fill="currentColor" xmlns="http://www.w3.org/2000/svg">
<path d="M12 24C5.3724 24 0 18.6276 0 12C0 5.3724 5.3724 0 12 0C18.6276 0 24 5.3724 24 12C24 18.6276 18.6276 24 12 24ZM9.252 21.2004C8.0681 18.6892 7.38225 15.9723 7.2324 13.2H2.4744C2.7079 15.0467 3.47271 16.7858 4.67588 18.206C5.87906 19.6263 7.46882 20.6665 9.252 21.2004V21.2004ZM9.636 13.2C9.8172 16.1268 10.6536 18.876 12 21.3024C13.3828 18.8119 14.1905 16.0434 14.364 13.2H9.636V13.2ZM21.5256 13.2H16.7676C16.6178 15.9723 15.9319 18.6892 14.748 21.2004C16.5312 20.6665 18.1209 19.6263 19.3241 18.206C20.5273 16.7858 21.2921 15.0467 21.5256 13.2V13.2ZM2.4744 10.8H7.2324C7.38225 8.02774 8.0681 5.31082 9.252 2.7996C7.46882 3.33346 5.87906 4.3737 4.67588 5.79395C3.47271 7.21421 2.7079 8.95332 2.4744 10.8V10.8ZM9.6372 10.8H14.3628C14.1897 7.95672 13.3824 5.18824 12 2.6976C10.6172 5.18814 9.80947 7.95662 9.636 10.8H9.6372ZM14.748 2.7996C15.9319 5.31082 16.6178 8.02774 16.7676 10.8H21.5256C21.2921 8.95332 20.5273 7.21421 19.3241 5.79395C18.1209 4.3737 16.5312 3.33346 14.748 2.7996V2.7996Z" fill="currentColor"/>
</svg>
