<svg width="16" height="16" viewBox="0 0 16 16" fill="none" xmlns="http://www.w3.org/2000/svg">
<rect width="16" height="16" rx="2" fill="none"/>
<path d="M1 13V11.25C1 10.8958 1.0928 10.5703 1.27841 10.2734C1.46402 9.97656 1.71061 9.75 2.01818 9.59375C2.67576 9.27083 3.34394 9.02865 4.02273 8.86719C4.70152 8.70573 5.39091 8.625 6.09091 8.625C6.79091 8.625 7.4803 8.70573 8.15909 8.86719C8.83788 9.02865 9.50606 9.27083 10.1636 9.59375C10.4712 9.75 10.7178 9.97656 10.9034 10.2734C11.089 10.5703 11.1818 10.8958 11.1818 11.25V13H1ZM12.4545 13V11.125C12.4545 10.6667 12.3246 10.2266 12.0648 9.80469C11.8049 9.38281 11.4364 9.02083 10.9591 8.71875C11.5 8.78125 12.0091 8.88802 12.4864 9.03906C12.9636 9.1901 13.4091 9.375 13.8227 9.59375C14.2045 9.80208 14.4962 10.0339 14.6977 10.2891C14.8992 10.5443 15 10.8229 15 11.125V13H12.4545ZM6.09091 8C5.39091 8 4.79167 7.75521 4.29318 7.26562C3.7947 6.77604 3.54545 6.1875 3.54545 5.5C3.54545 4.8125 3.7947 4.22396 4.29318 3.73438C4.79167 3.24479 5.39091 3 6.09091 3C6.79091 3 7.39015 3.24479 7.88864 3.73438C8.38712 4.22396 8.63636 4.8125 8.63636 5.5C8.63636 6.1875 8.38712 6.77604 7.88864 7.26562C7.39015 7.75521 6.79091 8 6.09091 8ZM12.4545 5.5C12.4545 6.1875 12.2053 6.77604 11.7068 7.26562C11.2083 7.75521 10.6091 8 9.90909 8C9.79242 8 9.64394 7.98698 9.46364 7.96094C9.28333 7.9349 9.13485 7.90625 9.01818 7.875C9.30455 7.54167 9.52462 7.17188 9.67841 6.76562C9.8322 6.35938 9.90909 5.9375 9.90909 5.5C9.90909 5.0625 9.8322 4.64062 9.67841 4.23438C9.52462 3.82812 9.30455 3.45833 9.01818 3.125C9.16667 3.07292 9.31515 3.03906 9.46364 3.02344C9.61212 3.00781 9.76061 3 9.90909 3C10.6091 3 11.2083 3.24479 11.7068 3.73438C12.2053 4.22396 12.4545 4.8125 12.4545 5.5ZM2.27273 11.75H9.90909V11.25C9.90909 11.1354 9.87992 11.0312 9.82159 10.9375C9.76326 10.8438 9.68636 10.7708 9.59091 10.7188C9.01818 10.4375 8.44015 10.2266 7.85682 10.0859C7.27348 9.94531 6.68485 9.875 6.09091 9.875C5.49697 9.875 4.90833 9.94531 4.325 10.0859C3.74167 10.2266 3.16364 10.4375 2.59091 10.7188C2.49545 10.7708 2.41856 10.8438 2.36023 10.9375C2.30189 11.0312 2.27273 11.1354 2.27273 11.25V11.75ZM6.09091 6.75C6.44091 6.75 6.74053 6.6276 6.98977 6.38281C7.23902 6.13802 7.36364 5.84375 7.36364 5.5C7.36364 5.15625 7.23902 4.86198 6.98977 4.61719C6.74053 4.3724 6.44091 4.25 6.09091 4.25C5.74091 4.25 5.44129 4.3724 5.19205 4.61719C4.9428 4.86198 4.81818 5.15625 4.81818 5.5C4.81818 5.84375 4.9428 6.13802 5.19205 6.38281C5.44129 6.6276 5.74091 6.75 6.09091 6.75Z" fill="currentColor"/>
</svg>
