<svg width="12" height="12" viewBox="0 0 12 12" fill="none" xmlns="http://www.w3.org/2000/svg">
<path d="M0 12C0 10.7876 0.481631 9.62482 1.33894 8.76751C2.19625 7.9102 3.35901 7.42857 4.57143 7.42857C5.78385 7.42857 6.94661 7.9102 7.80392 8.76751C8.66123 9.62482 9.14286 10.7876 9.14286 12H8C8 11.0907 7.63878 10.2186 6.99579 9.57563C6.35281 8.93265 5.48074 8.57143 4.57143 8.57143C3.66212 8.57143 2.79004 8.93265 2.14706 9.57563C1.50408 10.2186 1.14286 11.0907 1.14286 12H0ZM4.57143 6.85714C2.67714 6.85714 1.14286 5.32286 1.14286 3.42857C1.14286 1.53429 2.67714 0 4.57143 0C6.46571 0 8 1.53429 8 3.42857C8 5.32286 6.46571 6.85714 4.57143 6.85714ZM4.57143 5.71429C5.83429 5.71429 6.85714 4.69143 6.85714 3.42857C6.85714 2.16571 5.83429 1.14286 4.57143 1.14286C3.30857 1.14286 2.28571 2.16571 2.28571 3.42857C2.28571 4.69143 3.30857 5.71429 4.57143 5.71429ZM9.30514 7.83029C10.1082 8.19196 10.7897 8.77785 11.2678 9.51755C11.7458 10.2572 12.0001 11.1193 12 12H10.8571C10.8573 11.3394 10.6666 10.6929 10.3081 10.138C9.9495 9.58324 9.43833 9.14381 8.836 8.87257L9.30457 7.83029H9.30514ZM8.912 1.37886C9.48773 1.61617 9.97998 2.01916 10.3263 2.5367C10.6726 3.05424 10.8574 3.66299 10.8571 4.28571C10.8574 5.0699 10.5644 5.82584 10.0357 6.40504C9.50708 6.98424 8.78095 7.34484 8 7.416V6.26571C8.4234 6.20507 8.8162 6.0103 9.12075 5.70998C9.42529 5.40966 9.62554 5.01961 9.69209 4.59711C9.75864 4.1746 9.68799 3.74188 9.49051 3.36249C9.29302 2.98309 8.97911 2.677 8.59486 2.48914L8.912 1.37886Z" fill="currentColor"/>
</svg>
