<svg width="12" height="12" viewBox="0 0 12 12" fill="none" xmlns="http://www.w3.org/2000/svg">
<path d="M3.40778 7.2216C3.26539 7.596 3.145 7.9416 3.03744 8.2914C3.62411 7.8732 4.32139 7.608 5.12622 7.509C6.66194 7.3206 8.02656 6.3252 8.71711 5.0742L7.82733 4.2012L8.69083 3.3522L9.30194 2.7516C9.56472 2.4936 9.86111 2.0172 10.1746 1.3308C6.75667 1.851 4.66361 3.906 3.40717 7.2216H3.40778ZM9.55556 4.2006L10.1667 4.8C9.55556 6.6 7.72222 8.4 5.27778 8.7C3.64672 8.9004 2.628 10.0002 2.221 12H1C1.61111 8.4 2.83333 0 12 0C11.3889 1.7982 10.779 2.9976 10.1685 3.5982L9.55556 4.2006Z" fill="currentColor"/>
</svg>
