<svg width="16" height="16" viewBox="0 0 16 16" xmlns="http://www.w3.org/2000/svg">
<rect width="16" height="16" fill="none" rx="2"/>
<path d="M10.7064 7.16732C10.7829 7.10159 10.7599 7.01829 10.6945 6.98934C10.4802 6.89442 10.4683 6.88256 10.0637 6.76391C9.54804 6.61275 8.94387 6.56315 9.02219 6.48508C9.08765 6.41982 9.28392 6.4286 9.47448 6.43762C9.59946 6.44355 9.74026 6.46467 10.1053 6.49694C10.5755 6.53847 10.6945 6.57407 10.9444 6.53847C11.5832 6.44759 11.7469 6.32205 11.8771 6.21361C11.9807 6.10765 12.071 6.00526 12.1525 5.90369C12.3487 5.65975 12.5078 5.39385 12.633 5.1244C12.7098 4.90501 12.3148 5.10268 11.7359 5.09687C11.1468 5.09094 10.844 4.97347 10.8492 4.93669C10.8552 4.89517 11.1743 4.95746 11.7955 4.82398C12.3258 4.71007 12.5257 4.61574 12.6881 4.50362C12.8715 4.37702 12.9288 4.21091 12.9647 4.03839C13.0239 3.64957 13.007 3.31676 12.9262 3.11541C12.9024 3.05609 12.865 2.93459 11.6526 3.04422C11.1425 3.09037 10.213 3.18185 9.22453 3.63747C8.39362 4.02048 7.8842 4.49342 7.30824 5.03755C5.98803 6.28456 5.27424 7.53881 4.80874 8.37162C4.14197 9.56441 3.75157 10.6173 3.48757 11.3379C3.27142 11.9279 3.11824 12.3387 3.01743 12.7202C3.01088 12.745 2.98172 12.8625 3.01743 12.91C3.13038 13.0601 3.42211 12.9812 3.46377 12.9634C3.58446 12.9118 3.70098 12.7683 3.76133 12.643C4.02092 12.104 4.16803 11.5739 4.27908 11.237C4.47869 10.6319 4.83064 10.294 5.01108 10.1395C5.57264 9.65874 5.82663 9.63631 6.43937 9.4988C7.0946 9.35179 8.0744 8.85892 9.89107 7.70718C10.2008 7.51081 10.4696 7.33272 10.705 7.16862L10.7064 7.16732Z" fill="currentColor"/>
</svg>
