<svg width="24" height="24" viewBox="0 0 24 24" fill="none" xmlns="http://www.w3.org/2000/svg">
<g clip-path="url(#clip0_5207_22615)">
<path d="M23.5216 6.18687C23.3859 5.67629 23.1185 5.2103 22.7462 4.83553C22.3738 4.46077 21.9095 4.19038 21.3998 4.05142C19.5234 3.54688 12.0234 3.54688 12.0234 3.54688C12.0234 3.54688 4.52344 3.54688 2.64707 4.05142C2.13737 4.19038 1.6731 4.46077 1.30073 4.83553C0.928354 5.2103 0.660943 5.67629 0.525256 6.18687C0.0234376 8.07142 0.0234375 12.0014 0.0234375 12.0014C0.0234375 12.0014 0.0234376 15.9314 0.525256 17.816C0.660943 18.3266 0.928354 18.7925 1.30073 19.1673C1.6731 19.5421 2.13737 19.8125 2.64707 19.9514C4.52344 20.456 12.0234 20.456 12.0234 20.456C12.0234 20.456 19.5234 20.456 21.3998 19.9514C21.9095 19.8125 22.3738 19.5421 22.7462 19.1673C23.1185 18.7925 23.3859 18.3266 23.5216 17.816C24.0234 15.9314 24.0234 12.0014 24.0234 12.0014C24.0234 12.0014 24.0234 8.07142 23.5216 6.18687Z" fill="#FF0302"/>
<path d="M9.57031 15.567V8.42969L15.843 11.9983L9.57031 15.567Z" fill="#FEFEFE"/>
</g>
<defs>
<clipPath id="clip0_5207_22615">
<rect width="24" height="24" fill="white"/>
</clipPath>
</defs>
</svg>
