<svg width="14" height="15" viewBox="0 0 14 15" fill="none" xmlns="http://www.w3.org/2000/svg">
<path d="M9.51749 5.51353C8.99652 4.9658 8.59363 4.32322 8.35239 3.65534C8.17839 3.17362 8.09276 2.6856 8.09644 2.21472C7.42663 2.55656 6.79739 3.01656 6.21928 3.58855C5.45296 4.34678 4.83943 5.23272 4.3958 6.22174C4.03918 7.01678 3.79034 7.88077 3.65624 8.78967C3.49211 9.90201 3.54194 10.8138 3.58467 11.2491C4.04504 11.292 5.02859 11.3483 6.20046 11.2064C7.14467 11.092 8.02512 10.873 8.81733 10.5554C9.79753 10.1625 10.6452 9.61626 11.3369 8.93189C11.8908 8.38385 12.3393 7.75586 12.6753 7.05986C11.57 7.02127 10.4274 6.47022 9.51749 5.51353ZM10.2467 7.93798C10.2029 8.10637 10.0507 8.21804 9.88406 8.21804C9.85286 8.21804 9.82118 8.21413 9.78958 8.20594C8.70067 7.9241 7.02939 6.2036 6.80912 5.13767C6.76732 4.9354 6.89789 4.73766 7.10068 4.69601C7.30338 4.65446 7.50181 4.7845 7.54359 4.98675C7.6172 5.34294 7.99702 5.91544 8.51123 6.44524C9.02882 6.97846 9.60455 7.38548 9.97797 7.48214C10.1784 7.53402 10.2988 7.7381 10.2467 7.93798Z" fill="#F5F5F5"/>
<path d="M2.87898 11.65C2.87347 11.6176 2.79064 11.1172 2.79172 10.3315L0.830648 11.2676C0.633391 11.3617 0.536003 11.5879 0.605974 11.7945C1.00675 12.978 1.94384 13.9032 3.13358 14.2912C3.33973 14.3585 3.56395 14.2618 3.65806 14.0669L4.63399 12.0459C3.78299 12.0438 3.22778 11.9624 3.19252 11.957C3.03253 11.9329 2.9061 11.8091 2.87898 11.65Z" fill="#F5F5F5"/>
<path d="M7.89572 11.6445L9.67765 13.4076C9.89268 13.6204 10.2576 13.5274 10.3438 13.2378L11.3233 9.94922C10.6713 10.4823 9.92137 10.9201 9.08478 11.2542C8.70563 11.4055 8.30846 11.5358 7.89572 11.6445Z" fill="#F5F5F5"/>
<path d="M3.27638 7.07389C3.3972 6.68143 3.53985 6.30012 3.70412 5.93218C4.06505 5.12372 4.53047 4.37853 5.09252 3.70776L2.02885 5.07398C1.77198 5.18853 1.7105 5.52455 1.91024 5.72219L3.27638 7.07389Z" fill="#F5F5F5"/>
<path d="M13.3154 2.2555C13.2722 1.96627 13.0558 1.73315 12.7702 1.66659C12.3508 1.56882 11.7505 1.47196 11.047 1.48391C10.2943 1.49654 9.56234 1.62959 8.869 1.87943C8.73738 2.89837 9.18251 4.0747 10.0616 4.99898C10.917 5.89835 11.9941 6.37662 12.9851 6.30805C13.2155 5.64243 13.3553 4.9242 13.4006 4.16893C13.4472 3.39245 13.3844 2.71733 13.3154 2.2555ZM11.1382 3.33907C10.9306 3.33907 10.7623 3.17076 10.7623 2.96315C10.7623 2.75555 10.9306 2.58724 11.1382 2.58724C11.3458 2.58724 11.5141 2.75555 11.5141 2.96315C11.5141 3.17076 11.3458 3.33907 11.1382 3.33907Z" fill="#F5F5F5"/>
</svg>
