<svg width="14" height="15" viewBox="0 0 14 15" fill="none" xmlns="http://www.w3.org/2000/svg">
<path d="M9.51749 5.51347C8.99652 4.96573 8.59363 4.32316 8.35239 3.65528C8.17839 3.17355 8.09276 2.68554 8.09644 2.21466C7.42663 2.5565 6.79739 3.0165 6.21928 3.58849C5.45296 4.34672 4.83943 5.23266 4.3958 6.22168C4.03918 7.01672 3.79034 7.88071 3.65624 8.78961C3.49211 9.90195 3.54194 10.8138 3.58467 11.249C4.04504 11.2919 5.02859 11.3483 6.20046 11.2063C7.14467 11.0919 8.02512 10.8729 8.81733 10.5553C9.79753 10.1624 10.6452 9.6162 11.3369 8.93183C11.8908 8.38379 12.3393 7.7558 12.6753 7.0598C11.57 7.02121 10.4274 6.47016 9.51749 5.51347ZM10.2467 7.93792C10.2029 8.10631 10.0507 8.21798 9.88406 8.21798C9.85286 8.21798 9.82118 8.21407 9.78958 8.20588C8.70067 7.92404 7.02939 6.20353 6.80912 5.1376C6.76732 4.93534 6.89789 4.7376 7.10068 4.69595C7.30338 4.6544 7.50181 4.78444 7.54359 4.98669C7.6172 5.34288 7.99702 5.91538 8.51123 6.44517C9.02882 6.9784 9.60455 7.38542 9.97797 7.48208C10.1784 7.53396 10.2988 7.73803 10.2467 7.93792Z" fill="#111111"/>
<path d="M2.87898 11.6499C2.87347 11.6176 2.79064 11.1172 2.79172 10.3315L0.830648 11.2675C0.633391 11.3616 0.536003 11.5878 0.605974 11.7945C1.00675 12.978 1.94384 13.9031 3.13358 14.2912C3.33973 14.3584 3.56395 14.2617 3.65806 14.0669L4.63399 12.0458C3.78299 12.0438 3.22778 11.9623 3.19252 11.957C3.03253 11.9328 2.9061 11.809 2.87898 11.6499Z" fill="#111111"/>
<path d="M7.89572 11.6444L9.67765 13.4075C9.89268 13.6203 10.2576 13.5272 10.3438 13.2377L11.3233 9.9491C10.6713 10.4821 9.92137 10.92 9.08478 11.254C8.70563 11.4054 8.30846 11.5356 7.89572 11.6444Z" fill="#111111"/>
<path d="M3.27638 7.07389C3.3972 6.68143 3.53985 6.30012 3.70412 5.93218C4.06505 5.12372 4.53047 4.37853 5.09252 3.70776L2.02885 5.07398C1.77198 5.18853 1.7105 5.52455 1.91024 5.72219L3.27638 7.07389Z" fill="#111111"/>
<path d="M13.3154 2.25538C13.2722 1.96615 13.0558 1.73303 12.7702 1.66646C12.3508 1.5687 11.7505 1.47184 11.047 1.48379C10.2943 1.49642 9.56234 1.62947 8.869 1.87931C8.73738 2.89825 9.18251 4.07457 10.0616 4.99886C10.917 5.89823 11.9941 6.3765 12.9851 6.30793C13.2155 5.64231 13.3553 4.92408 13.4006 4.1688C13.4472 3.39233 13.3844 2.71721 13.3154 2.25538ZM11.1382 3.33895C10.9306 3.33895 10.7623 3.17064 10.7623 2.96303C10.7623 2.75542 10.9306 2.58711 11.1382 2.58711C11.3458 2.58711 11.5141 2.75542 11.5141 2.96303C11.5141 3.17064 11.3458 3.33895 11.1382 3.33895Z" fill="#111111"/>
</svg>
