<svg width="16" height="16" viewBox="0 0 16 16" fill="none" xmlns="http://www.w3.org/2000/svg">
<path d="M1.01489 7.99547C1.01489 8.9137 1.19575 9.82293 1.54714 10.6713C1.89853 11.5196 2.41357 12.2904 3.06286 12.9397C3.71214 13.589 4.48295 14.104 5.33129 14.4554C6.17962 14.8068 7.08885 14.9877 8.00708 14.9877C8.92531 14.9877 9.83454 14.8068 10.6829 14.4554C11.5312 14.104 12.302 13.589 12.9513 12.9397C13.6006 12.2904 14.1156 11.5196 14.467 10.6713C14.8184 9.82293 14.9993 8.9137 14.9993 7.99547C14.9993 7.07724 14.8184 6.16801 14.467 5.31967C14.1156 4.47134 13.6006 3.70053 12.9513 3.05124C12.302 2.40196 11.5312 1.88692 10.6829 1.53553C9.83454 1.18414 8.92531 1.00328 8.00708 1.00328C7.08885 1.00328 6.17962 1.18414 5.33129 1.53553C4.48295 1.88692 3.71214 2.40196 3.06286 3.05124C2.41357 3.70053 1.89853 4.47134 1.54714 5.31967C1.19575 6.16801 1.01489 7.07724 1.01489 7.99547Z" fill="#F7931A"/>
<path d="M9.91319 8.02453L9.83444 8.00344C10.5073 8.17172 11.1994 7.77203 11.3804 7.09656C11.4245 6.93396 11.436 6.76423 11.4142 6.59716C11.3925 6.43009 11.3379 6.26897 11.2537 6.12306C11.1695 5.97715 11.0572 5.84933 10.9234 5.74697C10.7896 5.6446 10.6368 5.56969 10.474 5.52657L9.90554 5.37422L10.2434 4.11344L9.43288 3.89625L9.09507 5.15703L8.44523 4.98297L8.78366 3.72L7.97194 3.5025L7.63351 4.76547L6.14585 4.36688L5.90913 5.25047L6.94476 5.52797L5.86194 9.56906L4.82632 9.29156L4.5896 10.1752L6.07726 10.5738L5.72726 11.88L6.53898 12.0975L6.88897 10.7913L7.53882 10.9653L7.18898 12.2711L7.99944 12.4883L8.34929 11.1825L9.01913 11.362C9.9421 11.6094 10.8913 11.0614 11.1387 10.1383C11.386 9.21516 10.8362 8.27188 9.91319 8.02453ZM8.28038 5.85578L8.86569 6.01266L9.25398 6.11672C9.41148 6.15891 9.54023 6.24172 9.64148 6.35938C9.81913 6.55172 9.89507 6.83141 9.82257 7.10156C9.75023 7.37172 9.5446 7.5761 9.2946 7.65375C9.14819 7.705 8.99538 7.71235 8.83773 7.67016L8.44944 7.5661L7.86413 7.40922L8.28038 5.85578ZM8.63273 10.1245C8.61429 10.1256 8.60304 10.1227 8.58616 10.1181L7.82069 9.91297L7.23538 9.7561L7.65163 8.20266L8.23694 8.35953L9.00241 8.56469C9.01929 8.56922 9.03054 8.57219 9.04601 8.58235C9.44663 8.70782 9.68116 9.1386 9.57101 9.54953C9.46085 9.96047 9.04241 10.2163 8.63273 10.1245Z" fill="#16181D"/>
</svg>
