<svg width="29" height="30" viewBox="0 0 29 30" fill="none" xmlns="http://www.w3.org/2000/svg">
<path d="M14.5002 0C14.9401 0 15.3645 0.163711 15.6903 0.459161C16.0162 0.754731 16.2205 1.16137 16.2633 1.59922C16.306 2.03691 16.1842 2.47461 15.9218 2.82757C15.6594 3.18054 15.2751 3.42326 14.8436 3.50846V5.15085C17.7478 5.24231 20.5312 6.48923 22.7151 8.69365C25.2214 11.2113 26.627 14.6207 26.6219 18.1732L26.613 20.7005C26.595 26.2961 22.5972 29.2538 15.0516 29.2539H13.9577C6.41222 29.2538 2.4145 26.2961 2.39621 20.7005L2.38836 18.1712C2.3837 14.6193 3.78815 11.2098 6.29418 8.69267C8.47602 6.49084 11.2568 5.2434 14.1578 5.15085V3.50846C13.7262 3.4233 13.342 3.1806 13.0796 2.82757C12.8172 2.47459 12.6954 2.03696 12.7381 1.59922C12.7809 1.16145 12.9844 0.754716 13.3101 0.459161C13.6359 0.163675 14.0604 9.2502e-05 14.5002 0ZM14.2333 23.3377C13.9674 23.3907 13.7226 23.5217 13.5309 23.7135C13.3391 23.9053 13.209 24.15 13.1561 24.416C13.1033 24.6818 13.1299 24.9573 13.2336 25.2078C13.3374 25.4583 13.5134 25.6722 13.7389 25.8229C13.9643 25.9735 14.2291 26.0544 14.5002 26.0545C14.8639 26.0545 15.2134 25.9094 15.4705 25.6522C15.7274 25.3951 15.8718 25.0463 15.8718 24.6829C15.8718 24.4117 15.7909 24.147 15.6403 23.9215C15.4896 23.696 15.2757 23.52 15.0251 23.4162C14.7747 23.3126 14.4992 23.2849 14.2333 23.3377ZM14.5002 8.45622C8.90594 8.45643 4.9248 13.3152 5.51419 18.8266C5.61847 19.8351 6.09182 20.7697 6.8436 21.4501C7.59549 22.1305 8.57275 22.5083 9.58679 22.5117C12.0435 22.5048 12.0438 21.1412 14.5002 21.141C16.957 21.141 16.9578 22.5048 19.4146 22.5117C20.4284 22.5083 21.405 22.1303 22.1568 21.4501C22.9087 20.7697 23.3829 19.8352 23.4872 18.8266C24.0766 13.3151 20.0947 8.45622 14.5002 8.45622ZM2.4178 12.5288C2.48532 12.5398 2.54834 12.5704 2.59832 12.6171C2.64831 12.6639 2.68292 12.7251 2.6984 12.7918C2.71376 12.8583 2.70893 12.928 2.68466 12.9919C2.02352 14.6379 1.69029 16.3974 1.70257 18.1712L1.71041 20.7035C1.71156 21.0687 1.7313 21.4358 1.7683 21.7945C1.77414 21.862 1.75956 21.9302 1.72709 21.9897C1.69463 22.0492 1.64572 22.0983 1.58581 22.13C1.526 22.1616 1.4579 22.1749 1.39057 22.1683C1.32308 22.1616 1.25867 22.1346 1.20612 22.0917C1.09711 22.0012 0.993513 21.9042 0.897071 21.8003C-0.0796711 20.7367 -0.0349766 19.3871 0.0287856 17.5197C0.0911757 15.6645 0.136248 14.3245 1.19141 13.2735C1.49046 12.9777 1.83812 12.7356 2.21863 12.5563C2.28083 12.5277 2.35021 12.5179 2.4178 12.5288ZM26.7828 12.5553C27.1633 12.7346 27.5109 12.9777 27.81 13.2735C28.8648 14.3245 28.9092 15.6645 28.9716 17.5197C29.0345 19.3871 29.08 20.7358 28.1034 21.7994C28.0069 21.9032 27.9043 22.0012 27.7953 22.0917C27.7427 22.1346 27.6783 22.1606 27.6108 22.1673C27.5434 22.174 27.4755 22.1607 27.4156 22.129C27.3558 22.0974 27.3068 22.049 27.2743 21.9897C27.2418 21.9302 27.2273 21.862 27.2331 21.7945C27.2701 21.4358 27.291 21.069 27.291 20.7035L27.2988 18.1712C27.3112 16.3974 26.9778 14.638 26.3167 12.9919C26.2924 12.9279 26.2875 12.8575 26.303 12.7908C26.3185 12.7243 26.3532 12.6638 26.4031 12.6171C26.4531 12.5704 26.5161 12.5398 26.5836 12.5288C26.6511 12.5179 26.7206 12.5268 26.7828 12.5553ZM13.1414 16.2168C13.505 16.22 13.8529 16.3675 14.1078 16.6269C14.1526 16.6919 14.2125 16.7453 14.2824 16.7819C14.3523 16.8185 14.4301 16.8371 14.509 16.8369C14.588 16.8367 14.666 16.8179 14.7357 16.781C14.8053 16.744 14.8649 16.6901 14.9093 16.625C15.1685 16.3716 15.5163 16.2288 15.8787 16.2266C16.241 16.2245 16.5898 16.3631 16.8519 16.6132C17.1067 16.8702 17.251 17.2168 17.2532 17.5786C17.2554 17.9405 17.1154 18.2889 16.8637 18.5489C16.563 18.8732 16.1987 19.1323 15.7933 19.3093C15.3879 19.4863 14.9495 19.5771 14.5071 19.5771C14.0648 19.5771 13.6272 19.4862 13.2218 19.3093C12.8164 19.1324 12.4522 18.8732 12.1514 18.5489C11.8965 18.2895 11.7548 17.9393 11.758 17.5757C11.7613 17.2122 11.9089 16.8651 12.1681 16.6103C12.4275 16.3554 12.7777 16.2136 13.1414 16.2168ZM10.6179 12.2276C10.9801 12.2312 11.3264 12.3766 11.5824 12.6328C11.8384 12.8893 11.9837 13.2368 11.9866 13.5992V15.1984C11.9837 15.5608 11.8384 15.9074 11.5824 16.1638C11.3264 16.4203 10.9802 16.5665 10.6179 16.57C10.2493 16.5624 9.89781 16.4095 9.64076 16.1452C9.38387 15.8809 9.24172 15.5258 9.24439 15.1572C9.24895 14.7778 9.24896 14.0188 9.24439 13.6394C9.24185 13.2711 9.38408 12.9166 9.64076 12.6524C9.89781 12.3881 10.2493 12.2352 10.6179 12.2276ZM18.3835 12.2276C18.7521 12.2352 19.1026 12.3881 19.3597 12.6524C19.6166 12.9166 19.7596 13.2709 19.757 13.6394C19.7524 14.0188 19.7524 14.7778 19.757 15.1572C19.7597 15.5259 19.6167 15.8809 19.3597 16.1452C19.1026 16.4095 18.7521 16.5624 18.3835 16.57C18.0211 16.5666 17.6741 16.4203 17.418 16.1638C17.1623 15.9074 17.0177 15.5606 17.0148 15.1984V13.5992C17.0177 13.2369 17.162 12.8893 17.418 12.6328C17.6741 12.3763 18.0211 12.2311 18.3835 12.2276Z" fill="white"/>
</svg>
