<svg width="16" height="16" viewBox="0 0 16 16" fill="none" xmlns="http://www.w3.org/2000/svg">
<path d="M0 8C0 10.1217 0.842855 12.1566 2.34315 13.6569C3.84344 15.1571 5.87827 16 8 16C10.1217 16 12.1566 15.1571 13.6569 13.6569C15.1571 12.1566 16 10.1217 16 8C16 5.87827 15.1571 3.84344 13.6569 2.34315C12.1566 0.842855 10.1217 0 8 0C5.87827 0 3.84344 0.842855 2.34315 2.34315C0.842855 3.84344 0 5.87827 0 8Z" fill="#5A5E64"/>
<path d="M7.34 9.38C7.29333 9.10667 7.30667 8.86667 7.38 8.66C7.46 8.44667 7.57667 8.25667 7.73 8.09C7.88333 7.91667 8.05 7.76 8.23 7.62C8.41667 7.47333 8.59 7.33333 8.75 7.2C8.91667 7.06 9.05333 6.91667 9.16 6.77C9.27333 6.61667 9.33 6.45333 9.33 6.28C9.33 6.06 9.27667 5.87 9.17 5.71C9.06333 5.55 8.90333 5.42667 8.69 5.34C8.48333 5.24667 8.22667 5.2 7.92 5.2C7.59333 5.2 7.28333 5.27 6.99 5.41C6.70333 5.55 6.42667 5.76333 6.16 6.05L5.5 5.44C5.82 5.08 6.19 4.79333 6.61 4.58C7.03 4.36 7.51 4.25 8.05 4.25C8.52333 4.25 8.94 4.32667 9.3 4.48C9.66 4.62667 9.94 4.84333 10.14 5.13C10.3467 5.41667 10.45 5.76667 10.45 6.18C10.45 6.42667 10.3933 6.64667 10.28 6.84C10.1733 7.02667 10.0333 7.19667 9.86 7.35C9.69333 7.50333 9.51333 7.65333 9.32 7.8C9.13333 7.94 8.96 8.08667 8.8 8.24C8.64667 8.38667 8.52667 8.55333 8.44 8.74C8.35333 8.92 8.32667 9.13333 8.36 9.38H7.34ZM7.86 11.93C7.64667 11.93 7.47 11.86 7.33 11.72C7.19 11.58 7.12 11.3967 7.12 11.17C7.12 10.9433 7.19 10.76 7.33 10.62C7.47667 10.48 7.65333 10.41 7.86 10.41C8.06667 10.41 8.24333 10.48 8.39 10.62C8.53667 10.76 8.61 10.9433 8.61 11.17C8.61 11.3967 8.53667 11.58 8.39 11.72C8.24333 11.86 8.06667 11.93 7.86 11.93Z" fill="white"/>
</svg>
