<svg width="28" height="28" viewBox="0 0 28 28" fill="none" xmlns="http://www.w3.org/2000/svg">
<g clip-path="url(#clip0_4666_1700)">
<path d="M4.36111 23.3336C4.32912 23.101 4.26806 22.8684 4.26806 22.6387C4.26225 16.9164 4.26225 11.197 4.26515 5.47477C4.26515 5.30031 4.30295 5.12295 4.3204 4.94849C7.49847 7.92302 10.5631 11.0139 13.6074 14.125C10.5253 17.1926 7.44322 20.2631 4.36111 23.3336Z" fill="#4285F2"/>
<path d="M13.6075 14.125C10.5632 11.0138 7.4985 7.92299 4.32043 4.94555C4.85254 3.20677 6.46628 2.45369 8.01897 3.32599C11.5314 5.3061 15.0061 7.35018 18.4982 9.371C16.9077 10.9586 15.3172 12.5462 13.7238 14.1337C13.686 14.1337 13.6482 14.1308 13.6075 14.125Z" fill="#36A854"/>
<path d="M13.6075 14.125C13.6453 14.1308 13.686 14.1337 13.7238 14.1337C15.2794 15.7184 16.835 17.306 18.3906 18.8906C14.9159 20.894 11.4529 22.9177 7.9608 24.892C6.51279 25.712 4.60246 24.8368 4.35822 23.3306C7.44324 20.2631 10.5254 17.1926 13.6075 14.125Z" fill="#E84537"/>
<path d="M18.3905 18.8908C16.8349 17.3061 15.2794 15.7185 13.7238 14.1339C15.3171 12.5463 16.9076 10.9587 18.4981 9.37402C20.0159 10.2347 21.5541 11.0576 23.0428 11.9677C24.7176 12.9911 24.7496 15.2039 23.0922 16.2274C21.5599 17.1694 19.9607 18.0068 18.3905 18.8908Z" fill="#FABB06"/>
</g>
<defs>
<clipPath id="clip0_4666_1700">
<rect width="23" height="23" fill="white" transform="translate(2.5 2.5)"/>
</clipPath>
</defs>
</svg>
