<svg width="20" height="20" viewBox="0 0 20 20" fill="none" xmlns="http://www.w3.org/2000/svg">
<path d="M16.8761 18.3073H3.15639C2.80856 18.3073 2.47498 18.1691 2.22903 17.9232C1.98308 17.6772 1.84491 17.3437 1.84491 16.9958V4.8688C1.84501 4.62015 1.91586 4.37666 2.04919 4.16678C2.18252 3.95691 2.37282 3.7893 2.59786 3.68355L3.97163 1.80322H15.9934L17.4582 3.69421C17.6771 3.80248 17.8613 3.96977 17.9902 4.1772C18.1191 4.38463 18.1874 4.62394 18.1875 4.86814V16.9958C18.1875 17.3437 18.0494 17.6772 17.8034 17.9232C17.5575 18.1691 17.2239 18.3073 16.8761 18.3073Z" fill="url(#paint0_linear_4572_2388)"/>
<path d="M4.54457 2.6145H15.6023L16.1793 3.80984H3.8208L4.54457 2.6145Z" fill="url(#paint1_linear_4572_2388)"/>
<path d="M11.9385 10.1152L15.0576 10.0938L10.2061 15.8652L5.20508 10.1621L8.09473 10.1416V7.58398H11.9385V10.1152Z" fill="url(#paint2_linear_4572_2388)"/>
<defs>
<linearGradient id="paint0_linear_4572_2388" x1="10.0162" y1="1.80322" x2="10.0162" y2="18.3073" gradientUnits="userSpaceOnUse">
<stop stop-color="#0181FF"/>
<stop offset="1" stop-color="#2B98FF"/>
</linearGradient>
<linearGradient id="paint1_linear_4572_2388" x1="10.4561" y1="3.80984" x2="10.4561" y2="2.6145" gradientUnits="userSpaceOnUse">
<stop stop-color="#9FCFFF"/>
<stop offset="1" stop-color="#F9FCFF"/>
</linearGradient>
<linearGradient id="paint2_linear_4572_2388" x1="10.1313" y1="7.58398" x2="10.1313" y2="15.8652" gradientUnits="userSpaceOnUse">
<stop stop-color="white"/>
<stop offset="1" stop-color="white" stop-opacity="0.01"/>
</linearGradient>
</defs>
</svg>
